<svg width="28" height="17" viewBox="0 0 28 17" fill="none" xmlns="http://www.w3.org/2000/svg">
<path d="M3.64645 16.3536C3.84171 16.5488 4.15829 16.5488 4.35355 16.3536L7.53553 13.1716C7.7308 12.9763 7.7308 12.6597 7.53553 12.4645C7.34027 12.2692 7.02369 12.2692 6.82843 12.4645L4 15.2929L1.17157 12.4645C0.976311 12.2692 0.659729 12.2692 0.464467 12.4645C0.269205 12.6597 0.269205 12.9763 0.464467 13.1716L3.64645 16.3536ZM3.5 2.18557e-08L3.5 16L4.5 16L4.5 -2.18557e-08L3.5 2.18557e-08Z" fill="#F7F7FF"/>
<path d="M13.6464 16.3536C13.8417 16.5488 14.1583 16.5488 14.3536 16.3536L17.5355 13.1716C17.7308 12.9763 17.7308 12.6597 17.5355 12.4645C17.3403 12.2692 17.0237 12.2692 16.8284 12.4645L14 15.2929L11.1716 12.4645C10.9763 12.2692 10.6597 12.2692 10.4645 12.4645C10.2692 12.6597 10.2692 12.9763 10.4645 13.1716L13.6464 16.3536ZM13.5 2.18557e-08L13.5 16L14.5 16L14.5 -2.18557e-08L13.5 2.18557e-08Z" fill="#F7F7FF"/>
<path d="M23.6464 16.3536C23.8417 16.5488 24.1583 16.5488 24.3536 16.3536L27.5355 13.1716C27.7308 12.9763 27.7308 12.6597 27.5355 12.4645C27.3403 12.2692 27.0237 12.2692 26.8284 12.4645L24 15.2929L21.1716 12.4645C20.9763 12.2692 20.6597 12.2692 20.4645 12.4645C20.2692 12.6597 20.2692 12.9763 20.4645 13.1716L23.6464 16.3536ZM23.5 2.18557e-08L23.5 16L24.5 16L24.5 -2.18557e-08L23.5 2.18557e-08Z" fill="#F7F7FF"/>
</svg>
