<svg width="1551" height="674" viewBox="0 0 1551 674" fill="none" xmlns="http://www.w3.org/2000/svg">
<path d="M126 285.728C56.6669 296.562 -40.1189 379.55 26.2544 416.228C185.5 504.229 354 10.2286 564.754 172.229C652.344 239.556 600 328.729 533.5 303.729C446.427 270.994 552.254 80.2285 684.754 91.2285C817.254 102.229 972.254 250.729 977.754 421.728C983.254 592.728 1150.21 720.073 1330.5 650.5C1451 604 1479.98 529.92 1490.5 452.5C1497.5 401 1483.5 240.229 1341 231.229C1198.5 222.229 1230.25 315.728 1013.25 371.728C907.741 398.957 790.254 335.229 788.254 253.729C786.254 172.229 846.254 43.2285 1033.25 43.2285C1220.25 43.2285 1450.5 222.229 1541.5 64.7285C1564.5 21.2286 1519.7 -23.8287 1402.5 26.5" stroke="#FFBA49" stroke-width="7"/>
</svg>
