<svg width="36" height="24" viewBox="0 0 36 24" fill="none" xmlns="http://www.w3.org/2000/svg">
<g clip-path="url(#clip0_425_5085)">
<path d="M10.5756 22.4562L8.45432 20.3349L21.1822 7.60697L19.0609 5.48565L21.1822 3.36433L23.3036 5.48565L25.4249 3.36433L27.5462 5.48565L25.4249 7.60697L27.5462 9.72829L25.4249 11.8496L23.3036 9.72829L10.5756 22.4562ZM25.4249 16.0922L27.5462 13.9709L25.4249 11.8496L23.3036 13.9709L25.4249 16.0922ZM25.4249 16.0922L23.3036 18.2136L25.4249 20.3349L27.5462 18.2136L25.4249 16.0922ZM14.8183 5.48565L16.9396 3.36433L19.0609 5.48565L16.9396 7.60697L14.8183 5.48565ZM14.8183 5.48565L12.697 7.60696L10.5756 5.48564L12.697 3.36432L14.8183 5.48565Z" fill="#F7F7FF"/>
</g>
<defs>
<clipPath id="clip0_425_5085">
<rect width="36" height="24" fill="white"/>
</clipPath>
</defs>
</svg>
