<svg width="101" height="101" viewBox="0 0 101 101" fill="none" xmlns="http://www.w3.org/2000/svg">
<g clip-path="url(#clip0_574_12097)">
<circle cx="50.0241" cy="50.7738" r="57.1106" stroke="#ADE0F5" stroke-width="0.833732"/>
<path d="M88.7923 50.7747C88.7923 71.2111 84.417 89.6921 77.3634 103.049C70.2999 116.424 60.6135 124.56 50.0238 124.56C39.4341 124.56 29.7477 116.424 22.6841 103.049C15.6306 89.6921 11.2552 71.2111 11.2552 50.7747C11.2552 30.3383 15.6306 11.8572 22.6841 -1.49952C29.7477 -14.8752 39.4341 -23.0106 50.0238 -23.0106C60.6135 -23.0106 70.2999 -14.8752 77.3634 -1.49952C84.417 11.8572 88.7923 30.3383 88.7923 50.7747Z" stroke="#ADE0F5" stroke-width="0.833732"/>
<path d="M50.0239 89.5431C29.5875 89.5431 11.1065 85.1677 -2.25024 78.1142C-15.6259 71.0506 -23.7613 61.3642 -23.7613 50.7745C-23.7613 40.1848 -15.6259 30.4984 -2.25024 23.4349C11.1065 16.3813 29.5875 12.006 50.0239 12.006C70.4603 12.006 88.9413 16.3813 102.298 23.4349C115.674 30.4984 123.809 40.1848 123.809 50.7745C123.809 61.3642 115.674 71.0506 102.298 78.1142C88.9413 85.1677 70.4603 89.5431 50.0239 89.5431Z" stroke="#ADE0F5" stroke-width="0.833732"/>
<rect x="27.3047" y="28.055" width="45.4384" height="45.4384" stroke="#FFAA20" stroke-width="1.2506"/>
<path d="M49.3889 50.3615L36.1805 38.7202C36.0459 38.6016 35.8342 38.6971 35.8342 38.8766V42.3552C35.8342 42.415 35.86 42.472 35.9048 42.5116L44.8115 50.3615C44.9057 50.4445 44.9057 50.5913 44.8115 50.6742L36.3626 58.1208C36.3177 58.1603 36.292 58.2173 36.292 58.2771V61.7557C36.292 61.9352 36.5036 62.0307 36.6382 61.9121L49.3889 50.6742C49.483 50.5913 49.483 50.4445 49.3889 50.3615Z" fill="#FFAA20" stroke="#FFAA20" stroke-width="0.833732"/>
<rect x="50.4817" y="59.4717" width="13.7321" height="3.66188" rx="0.208433" fill="#FFAA20"/>
</g>
<rect x="0.875" y="1.62524" width="98.2978" height="98.2978" stroke="#ADE0F5" stroke-width="1.75"/>
<defs>
<clipPath id="clip0_574_12097">
<rect y="0.750244" width="100.048" height="100.048" fill="white"/>
</clipPath>
</defs>
</svg>
