<svg width="101" height="101" viewBox="0 0 101 101" fill="none" xmlns="http://www.w3.org/2000/svg">
<g clip-path="url(#clip0_574_12071)">
<path d="M62.9365 72.9996C58.4138 75.6108 53.1991 76.7725 47.9957 76.328C42.7922 75.8834 37.8502 73.8541 33.8359 70.5135C29.8216 67.173 26.9281 62.6819 25.5456 57.6458C24.163 52.6097 24.3579 47.2708 26.1039 42.3489C27.8499 37.427 31.0631 33.1589 35.3103 30.1199C39.5574 27.0809 44.6342 25.4172 49.8563 25.3532C55.0783 25.2892 60.1944 26.828 64.5147 29.7619C68.8351 32.6959 72.1519 36.8841 74.018 41.7617" stroke="#FFAA20" stroke-width="1.5"/>
<circle cx="50.0241" cy="50.7738" r="57.1106" stroke="#ADE0F5" stroke-width="0.833732"/>
<path d="M88.7923 50.7747C88.7923 71.2111 84.417 89.6921 77.3634 103.049C70.2999 116.424 60.6135 124.56 50.0238 124.56C39.4341 124.56 29.7477 116.424 22.6841 103.049C15.6306 89.6921 11.2552 71.2111 11.2552 50.7747C11.2552 30.3383 15.6306 11.8572 22.6841 -1.49952C29.7477 -14.8752 39.4341 -23.0106 50.0238 -23.0106C60.6135 -23.0106 70.2999 -14.8752 77.3634 -1.49952C84.417 11.8572 88.7923 30.3383 88.7923 50.7747Z" stroke="#ADE0F5" stroke-width="0.833732"/>
<path d="M50.0239 89.5431C29.5875 89.5431 11.1065 85.1677 -2.25024 78.1142C-15.6259 71.0506 -23.7613 61.3642 -23.7613 50.7745C-23.7613 40.1848 -15.6259 30.4984 -2.25024 23.4349C11.1065 16.3813 29.5875 12.006 50.0239 12.006C70.4603 12.006 88.9413 16.3813 102.298 23.4349C115.674 30.4984 123.809 40.1848 123.809 50.7745C123.809 61.3642 115.674 71.0506 102.298 78.1142C88.9413 85.1677 70.4603 89.5431 50.0239 89.5431Z" stroke="#ADE0F5" stroke-width="0.833732"/>
<g clip-path="url(#clip1_574_12071)">
<path d="M50.8691 46.4918C49.926 46.3966 48.9772 46.6016 48.1525 47.0788C47.3278 47.556 46.6677 48.2819 46.2624 49.1573C45.8571 50.0327 45.7264 51.0147 45.8884 51.9689C46.0504 52.923 46.497 53.8027 47.1671 54.4875C47.8372 55.1723 48.6981 55.6287 49.6318 55.7942C50.5655 55.9597 51.5265 55.8262 52.3832 55.412C53.2398 54.9979 53.9502 54.3232 54.4172 53.4805C54.8841 52.6378 55.0848 51.6682 54.9916 50.7045C54.8854 49.6242 54.417 48.6145 53.6656 47.8468C52.9143 47.079 51.9263 46.6003 50.8691 46.4918ZM61.9367 51.1661C61.9338 51.6767 61.8971 52.1865 61.8268 52.692L65.0739 55.2945C65.2153 55.4142 65.3105 55.5813 65.3427 55.7661C65.3749 55.9509 65.342 56.1413 65.2498 56.3036L62.178 61.7346C62.0847 61.8954 61.9389 62.0173 61.7663 62.0789C61.5936 62.1405 61.4052 62.1379 61.2343 62.0715L58.0095 60.7446C57.8317 60.6722 57.6391 60.6461 57.4489 60.6685C57.2588 60.6909 57.0771 60.7612 56.92 60.873C56.4279 61.2193 55.9107 61.527 55.373 61.7933C55.2039 61.8773 55.0577 62.0025 54.9472 62.1579C54.8368 62.3133 54.7654 62.4941 54.7395 62.6843L54.2562 66.1991C54.2244 66.3847 54.1306 66.5533 53.9907 66.676C53.8508 66.7988 53.6735 66.8681 53.4891 66.8721H47.3456C47.1642 66.8689 46.9894 66.8027 46.8498 66.6843C46.7103 66.566 46.6143 66.4026 46.5778 66.2211L46.0951 62.7115C46.068 62.5191 45.9949 62.3366 45.8821 62.1802C45.7693 62.0237 45.6205 61.8981 45.4488 61.8146C44.9117 61.5497 44.3963 61.2412 43.9075 60.8921C43.751 60.7808 43.5698 60.7111 43.3804 60.6892C43.1909 60.6673 42.9991 60.6939 42.8223 60.7666L39.5982 62.0928C39.4274 62.1593 39.239 62.162 39.0664 62.1005C38.8937 62.039 38.7479 61.9173 38.6545 61.7566L35.5827 56.3256C35.4903 56.1634 35.4573 55.9729 35.4896 55.7881C35.5218 55.6033 35.6171 55.4362 35.7587 55.3165L38.5029 53.1147C38.6533 52.9927 38.7715 52.8344 38.8467 52.6539C38.922 52.4734 38.9519 52.2766 38.9339 52.0813C38.908 51.7753 38.8922 51.47 38.8922 51.1639C38.8922 50.8579 38.9073 50.557 38.9339 50.2575C38.9499 50.0634 38.9185 49.8683 38.8424 49.6897C38.7663 49.5111 38.6479 49.3547 38.4979 49.2345L35.7551 47.0327C35.6159 46.9124 35.5225 46.7459 35.4914 46.5623C35.4603 46.3787 35.4934 46.1898 35.5849 46.0287L38.6566 40.5977C38.7499 40.4369 38.8957 40.315 39.0684 40.2534C39.241 40.1917 39.4294 40.1944 39.6004 40.2608L42.8251 41.5877C43.003 41.6601 43.1956 41.6862 43.3857 41.6638C43.5759 41.6414 43.7576 41.5711 43.9147 41.4593C44.4068 41.113 44.924 40.8053 45.4617 40.5389C45.6307 40.455 45.777 40.3298 45.8874 40.1744C45.9979 40.019 46.0692 39.8382 46.0951 39.648L46.5785 36.1332C46.6103 35.9476 46.7041 35.779 46.844 35.6562C46.9839 35.5335 47.1612 35.4642 47.3456 35.4602H53.4891C53.6704 35.4634 53.8453 35.5296 53.9848 35.648C54.1244 35.7663 54.2204 35.9297 54.2569 36.1112L54.7395 39.6208C54.7666 39.8131 54.8398 39.9957 54.9526 40.1521C55.0654 40.3086 55.2142 40.4342 55.3859 40.5177C55.923 40.7826 56.4384 41.0911 56.9272 41.4402C57.0837 41.5515 57.2648 41.6212 57.4543 41.6431C57.6437 41.665 57.8355 41.6384 58.0124 41.5657L61.2365 40.2395C61.4073 40.173 61.5957 40.1703 61.7683 40.2318C61.9409 40.2933 62.0868 40.415 62.1802 40.5756L65.252 46.0067C65.3443 46.1689 65.3773 46.3594 65.3451 46.5442C65.3129 46.729 65.2175 46.8961 65.076 47.0158L62.3317 49.2176C62.1807 49.3391 62.0619 49.4974 61.986 49.6778C61.9101 49.8583 61.8796 50.0553 61.8972 50.2509C61.9209 50.5548 61.9367 50.8601 61.9367 51.1661Z" stroke="#FFAA20" stroke-width="1.29848" stroke-linecap="round" stroke-linejoin="round"/>
</g>
<circle cx="74.4341" cy="42.641" r="3.02619" transform="rotate(60 74.4341 42.641)" fill="#FFAA20" stroke="#FFAA20" stroke-width="0.833732"/>
</g>
<rect x="0.875" y="1.62524" width="98.2978" height="98.2978" stroke="#ADE0F5" stroke-width="1.75"/>
<defs>
<clipPath id="clip0_574_12071">
<rect y="0.750244" width="100.048" height="100.048" fill="white"/>
</clipPath>
<clipPath id="clip1_574_12071">
<rect width="32.9442" height="32.9442" fill="white" transform="translate(33.9448 34.6946)"/>
</clipPath>
</defs>
</svg>
