<svg width="101" height="101" viewBox="0 0 101 101" fill="none" xmlns="http://www.w3.org/2000/svg">
<g clip-path="url(#clip0_574_12084)">
<circle cx="50.0236" cy="50.7741" r="57.1106" stroke="#ADE0F5" stroke-width="0.833732"/>
<path d="M88.7928 50.7747C88.7928 71.2111 84.4175 89.6921 77.3639 103.049C70.3004 116.424 60.614 124.56 50.0243 124.56C39.4346 124.56 29.7482 116.424 22.6846 103.049C15.6311 89.6921 11.2557 71.2111 11.2557 50.7747C11.2557 30.3383 15.6311 11.8572 22.6846 -1.49952C29.7482 -14.8752 39.4346 -23.0106 50.0243 -23.0106C60.614 -23.0106 70.3004 -14.8752 77.3639 -1.49952C84.4175 11.8572 88.7928 30.3383 88.7928 50.7747Z" stroke="#ADE0F5" stroke-width="0.833732"/>
<path d="M50.0239 89.5431C29.5875 89.5431 11.1065 85.1677 -2.25024 78.1142C-15.6259 71.0506 -23.7613 61.3642 -23.7613 50.7745C-23.7613 40.1848 -15.6259 30.4984 -2.25024 23.4349C11.1065 16.3813 29.5875 12.006 50.0239 12.006C70.4603 12.006 88.9413 16.3813 102.298 23.4349C115.674 30.4984 123.809 40.1848 123.809 50.7745C123.809 61.3642 115.674 71.0506 102.298 78.1142C88.9413 85.1677 70.4603 89.5431 50.0239 89.5431Z" stroke="#ADE0F5" stroke-width="0.833732"/>
<path d="M49.5947 25.8451L31.5195 35.544C30.8892 35.8822 30.8892 36.7861 31.5195 37.1243L49.5947 46.8232C49.8624 46.9669 50.1846 46.9652 50.4508 46.8188L68.0851 37.1199C68.7046 36.7792 68.7046 35.8891 68.0851 35.5484L50.4508 25.8495C50.1846 25.7031 49.8624 25.7014 49.5947 25.8451Z" stroke="#FFAA20" stroke-width="1.42925"/>
<path d="M70.1321 41.9421L53.4103 51.1831C53.1246 51.3409 52.9473 51.6416 52.9473 51.9679V74.2458C52.9473 74.9366 53.6955 75.368 54.2933 75.0219L71.0151 65.3409C71.2921 65.1805 71.4626 64.8848 71.4626 64.5648V42.7269C71.4626 42.0441 70.7298 41.6118 70.1321 41.9421Z" stroke="#FFAA20" stroke-width="1.42925"/>
<path d="M29.9153 41.9421L46.6371 51.1831C46.9228 51.3409 47.1001 51.6416 47.1001 51.9679V74.2458C47.1001 74.9366 46.3519 75.368 45.754 75.0219L29.0322 65.3409C28.7553 65.1805 28.5848 64.8848 28.5848 64.5648V42.7269C28.5848 42.0441 29.3176 41.6118 29.9153 41.9421Z" stroke="#FFAA20" stroke-width="1.42925"/>
</g>
<rect x="0.875" y="1.62524" width="98.2978" height="98.2978" stroke="#ADE0F5" stroke-width="1.75"/>
<defs>
<clipPath id="clip0_574_12084">
<rect y="0.750244" width="100.048" height="100.048" fill="white"/>
</clipPath>
</defs>
</svg>
