<svg width="101" height="101" viewBox="0 0 101 101" fill="none" xmlns="http://www.w3.org/2000/svg">
<g clip-path="url(#clip0_574_12058)">
<path d="M30.2425 70.3266L44.704 55.8651M62.915 49.4342L58.5861 62.421C58.517 62.6291 58.3987 62.8176 58.2413 62.9703C58.0838 63.123 57.8919 63.2354 57.6817 63.2981L31.1447 71.1856C30.9056 71.2566 30.6516 71.2607 30.4104 71.1973C30.1692 71.134 29.9499 71.0058 29.7765 70.8265C29.6031 70.6473 29.4822 70.4239 29.427 70.1807C29.3717 69.9375 29.3842 69.6838 29.4631 69.4472L38.08 43.601C38.1418 43.4154 38.2427 43.2453 38.376 43.1022C38.5094 42.9591 38.6719 42.8463 38.8526 42.7716L51.094 37.7314C51.3429 37.6286 51.6166 37.6018 51.8807 37.6544C52.1448 37.707 52.3874 37.8366 52.5779 38.0268L62.5855 48.0367C62.765 48.216 62.8909 48.4417 62.9491 48.6886C63.0073 48.9355 62.9955 49.1937 62.915 49.4342Z" stroke="#FFAA20" stroke-width="1.46106" stroke-linecap="round" stroke-linejoin="round"/>
<path d="M63.1837 48.635L69.61 42.2064C70.462 41.3541 70.9406 40.1983 70.9406 38.9932C70.9406 37.7881 70.462 36.6323 69.61 35.78L64.7925 30.958C64.3705 30.5358 63.8694 30.2009 63.3179 29.9723C62.7663 29.7438 62.1752 29.6262 61.5782 29.6262C60.9812 29.6262 60.3901 29.7438 59.8386 29.9723C59.2871 30.2009 58.786 30.5358 58.3639 30.958L51.9376 37.3866M49.5243 51.0437C49.2077 50.7272 48.8318 50.4762 48.4182 50.305C48.0046 50.1338 47.5613 50.0457 47.1136 50.0458C46.666 50.0459 46.2227 50.1342 45.8092 50.3056C45.3956 50.477 45.0199 50.7282 44.7034 51.0448C44.387 51.3614 44.136 51.7373 43.9647 52.1509C43.7935 52.5645 43.7055 53.0078 43.7056 53.4555C43.7057 53.9032 43.7939 54.3464 43.9654 54.76C44.1368 55.1735 44.388 55.5492 44.7046 55.8657C45.344 56.5048 46.2112 56.8638 47.1152 56.8636C48.0193 56.8634 48.8863 56.504 49.5255 55.8646C50.1646 55.2251 50.5235 54.358 50.5233 53.4539C50.5231 52.5498 50.1638 51.6828 49.5243 51.0437Z" stroke="#FFAA20" stroke-width="1.46106" stroke-linecap="round" stroke-linejoin="round"/>
<circle cx="50.0236" cy="50.7738" r="57.1106" stroke="#ADE0F5" stroke-width="0.833732"/>
<path d="M88.7928 50.7747C88.7928 71.2111 84.4175 89.6921 77.3639 103.049C70.3004 116.424 60.614 124.56 50.0243 124.56C39.4346 124.56 29.7482 116.424 22.6846 103.049C15.6311 89.6921 11.2557 71.2111 11.2557 50.7747C11.2557 30.3383 15.6311 11.8572 22.6846 -1.49952C29.7482 -14.8752 39.4346 -23.0106 50.0243 -23.0106C60.614 -23.0106 70.3004 -14.8752 77.3639 -1.49952C84.4175 11.8572 88.7928 30.3383 88.7928 50.7747Z" stroke="#ADE0F5" stroke-width="0.833732"/>
<path d="M50.0239 89.5431C29.5875 89.5431 11.1065 85.1677 -2.25024 78.1142C-15.6259 71.0506 -23.7613 61.3642 -23.7613 50.7745C-23.7613 40.1848 -15.6259 30.4984 -2.25024 23.4349C11.1065 16.3813 29.5875 12.006 50.0239 12.006C70.4603 12.006 88.9413 16.3813 102.298 23.4349C115.674 30.4984 123.809 40.1848 123.809 50.7745C123.809 61.3642 115.674 71.0506 102.298 78.1142C88.9413 85.1677 70.4603 89.5431 50.0239 89.5431Z" stroke="#ADE0F5" stroke-width="0.833732"/>
</g>
<rect x="0.875" y="1.62524" width="98.2978" height="98.2978" stroke="#ADE0F5" stroke-width="1.75"/>
<defs>
<clipPath id="clip0_574_12058">
<rect y="0.750244" width="100.048" height="100.048" fill="white"/>
</clipPath>
</defs>
</svg>
