<svg width="29" height="30" viewBox="0 0 29 30" fill="none" xmlns="http://www.w3.org/2000/svg">
<path d="M6.16667 22.1944C6.16667 19.4167 11.7222 17.8889 14.5 17.8889C17.2778 17.8889 22.8333 19.4167 22.8333 22.1944V23.5833H6.16667M18.6667 11.0833C18.6667 12.1884 18.2277 13.2482 17.4463 14.0296C16.6649 14.811 15.6051 15.25 14.5 15.25C13.3949 15.25 12.3351 14.811 11.5537 14.0296C10.7723 13.2482 10.3333 12.1884 10.3333 11.0833C10.3333 9.97826 10.7723 8.91846 11.5537 8.13705C12.3351 7.35565 13.3949 6.91667 14.5 6.91667C15.6051 6.91667 16.6649 7.35565 17.4463 8.13705C18.2277 8.91846 18.6667 9.97826 18.6667 11.0833ZM2 5.52778V24.9722C2 25.7089 2.29266 26.4155 2.81359 26.9364C3.33453 27.4573 4.04107 27.75 4.77778 27.75H24.2222C24.9589 27.75 25.6655 27.4573 26.1864 26.9364C26.7073 26.4155 27 25.7089 27 24.9722V5.52778C27 4.79107 26.7073 4.08453 26.1864 3.56359C25.6655 3.04266 24.9589 2.75 24.2222 2.75H4.77778C4.04107 2.75 3.33453 3.04266 2.81359 3.56359C2.29266 4.08453 2 4.79107 2 5.52778Z" fill="#28AF36"/>
</svg>
