<svg width="30" height="30" viewBox="0 0 30 30" fill="none" xmlns="http://www.w3.org/2000/svg">
<path d="M24.0625 9.9375H4.125C3.88465 9.9375 3.65414 10.033 3.48418 10.2029C3.31423 10.3729 3.21875 10.6034 3.21875 10.8438V16.2812C3.22146 17.8241 3.55141 19.3489 4.18683 20.7548C4.82224 22.1608 5.74866 23.416 6.90492 24.4375H4.125C3.88465 24.4375 3.65414 24.533 3.48418 24.7029C3.31423 24.8729 3.21875 25.1034 3.21875 25.3438C3.21875 25.5841 3.31423 25.8146 3.48418 25.9846C3.65414 26.1545 3.88465 26.25 4.125 26.25H24.0625C24.3029 26.25 24.5334 26.1545 24.7033 25.9846C24.8733 25.8146 24.9688 25.5841 24.9688 25.3438C24.9688 25.1034 24.8733 24.8729 24.7033 24.7029C24.5334 24.533 24.3029 24.4375 24.0625 24.4375H21.2826C22.6705 23.2074 23.723 21.6446 24.3412 19.8961C25.4922 19.8251 26.5729 19.318 27.3631 18.478C28.1532 17.6379 28.5933 16.5282 28.5938 15.375V14.4688C28.5938 13.267 28.1164 12.1144 27.2666 11.2647C26.4168 10.4149 25.2643 9.9375 24.0625 9.9375ZM26.7812 15.375C26.7808 15.9613 26.5909 16.5318 26.2398 17.0013C25.8886 17.4709 25.3951 17.8143 24.8328 17.9805C24.9226 17.4185 24.9681 16.8503 24.9688 16.2812V11.9063C25.4987 12.0937 25.9575 12.4407 26.2821 12.8996C26.6067 13.3585 26.7811 13.9067 26.7812 14.4688V15.375ZM13.1875 7.21875V3.59375C13.1875 3.3534 13.283 3.12289 13.4529 2.95293C13.6229 2.78298 13.8534 2.6875 14.0938 2.6875C14.3341 2.6875 14.5646 2.78298 14.7346 2.95293C14.9045 3.12289 15 3.3534 15 3.59375V7.21875C15 7.4591 14.9045 7.68961 14.7346 7.85957C14.5646 8.02952 14.3341 8.125 14.0938 8.125C13.8534 8.125 13.6229 8.02952 13.4529 7.85957C13.283 7.68961 13.1875 7.4591 13.1875 7.21875ZM16.8125 7.21875V3.59375C16.8125 3.3534 16.908 3.12289 17.0779 2.95293C17.2479 2.78298 17.4784 2.6875 17.7188 2.6875C17.9591 2.6875 18.1896 2.78298 18.3596 2.95293C18.5295 3.12289 18.625 3.3534 18.625 3.59375V7.21875C18.625 7.4591 18.5295 7.68961 18.3596 7.85957C18.1896 8.02952 17.9591 8.125 17.7188 8.125C17.4784 8.125 17.2479 8.02952 17.0779 7.85957C16.908 7.68961 16.8125 7.4591 16.8125 7.21875ZM9.5625 7.21875V3.59375C9.5625 3.3534 9.65798 3.12289 9.82793 2.95293C9.99789 2.78298 10.2284 2.6875 10.4688 2.6875C10.7091 2.6875 10.9396 2.78298 11.1096 2.95293C11.2795 3.12289 11.375 3.3534 11.375 3.59375V7.21875C11.375 7.4591 11.2795 7.68961 11.1096 7.85957C10.9396 8.02952 10.7091 8.125 10.4688 8.125C10.2284 8.125 9.99789 8.02952 9.82793 7.85957C9.65798 7.68961 9.5625 7.4591 9.5625 7.21875Z" fill="#B95124"/>
</svg>
