<svg width="29" height="30" viewBox="0 0 29 30" fill="none" xmlns="http://www.w3.org/2000/svg">
<path d="M23.4988 7.33362C23.2563 6.51146 22.7531 5.79043 22.065 5.27931C21.3769 4.76819 20.5412 4.49469 19.6841 4.50008C18.6907 4.50096 17.7335 4.87341 17.0008 5.5442C16.2681 6.215 15.8128 7.13561 15.7244 8.12508H13.2775C13.1879 7.13457 12.7311 6.2134 11.9968 5.54262C11.2625 4.87183 10.3039 4.49996 9.30933 4.50008C8.45332 4.49588 7.61912 4.76995 6.9324 5.28101C6.24568 5.79207 5.74363 6.51245 5.50187 7.33362L2.46774 17.445C2.4345 17.5576 2.41742 17.6743 2.41699 17.7917V19.0001C2.41891 20.602 3.05622 22.1378 4.1891 23.2705C5.32198 24.4031 6.8579 25.0401 8.45987 25.0417C9.63398 25.0397 10.7821 24.6959 11.764 24.0521C12.7459 23.4084 13.5191 22.4927 13.9892 21.4167H15.0114C15.4815 22.4927 16.2547 23.4084 17.2366 24.0521C18.2185 24.6959 19.3667 25.0397 20.5408 25.0417C22.143 25.0401 23.6791 24.403 24.812 23.2701C25.9449 22.1371 26.5821 20.601 26.5837 18.9989V17.7917C26.5837 17.6733 26.5655 17.5573 26.5329 17.445L23.4988 7.33362ZM8.45987 22.6251C7.49874 22.6238 6.57732 22.2415 5.89759 21.562C5.21785 20.8825 4.83526 19.9612 4.83366 19.0001C4.83366 18.9082 4.8542 18.8225 4.86024 18.7318C4.92635 17.8217 5.33384 16.9702 6.00111 16.3477C6.66837 15.7253 7.54615 15.3779 8.45866 15.3751C9.42007 15.3751 10.3421 15.757 11.0219 16.4368C11.7017 17.1166 12.0837 18.0387 12.0837 19.0001V19.011C12.0795 19.9699 11.6961 20.8882 11.0171 21.5654C10.3381 22.2425 9.4188 22.6235 8.45987 22.6251ZM20.5408 22.6251C19.5819 22.6235 18.6625 22.2425 17.9835 21.5654C17.3046 20.8882 16.9211 19.9699 16.917 19.011V19.0001C16.9169 18.524 17.0106 18.0526 17.1927 17.6128C17.3748 17.173 17.6417 16.7733 17.9783 16.4366C18.658 15.7567 19.58 15.3746 20.5414 15.3745C21.5028 15.3743 22.4249 15.7561 23.1048 16.4358C23.7848 17.1155 24.1668 18.0375 24.167 18.9989C24.1657 19.9602 23.7833 20.8818 23.1035 21.5616C22.4237 22.2413 21.5021 22.6238 20.5408 22.6251Z" fill="#37B2E7"/>
</svg>
