<svg width="44" height="45" viewBox="0 0 44 45" fill="none" xmlns="http://www.w3.org/2000/svg">
<g clip-path="url(#clip0_597_10119)">
<path d="M12.3516 14.6641C12.3516 13.8701 13.0114 13.2266 13.8255 13.2266H30.9478C31.7619 13.2266 32.4217 13.8701 32.4217 14.6641V31.8592C32.4217 32.6532 31.7619 33.2967 30.9478 33.2967H13.8255C13.0114 33.2967 12.3516 32.6532 12.3516 31.8592V14.6641ZM18.552 30.0278V20.9649H15.5402V30.0278H18.552ZM17.0467 19.7268C18.0967 19.7268 18.7502 19.0319 18.7502 18.1613C18.7314 17.272 18.0979 16.5958 17.0668 16.5958C16.0357 16.5958 15.3621 17.2732 15.3621 18.1613C15.3621 19.0319 16.0156 19.7268 17.0267 19.7268H17.0467ZM23.2033 30.0278V24.9664C23.2033 24.6954 23.2233 24.4245 23.3036 24.2313C23.5206 23.6906 24.0161 23.1299 24.849 23.1299C25.9391 23.1299 26.3743 23.9603 26.3743 25.1796V30.0278H29.3861V24.8296C29.3861 22.0449 27.9009 20.7504 25.919 20.7504C24.3209 20.7504 23.6047 21.6284 23.2033 22.2469V22.2782H23.1832C23.1898 22.2677 23.1965 22.2573 23.2033 22.2469V20.9649H20.1927C20.2304 21.8153 20.1927 30.0278 20.1927 30.0278H23.2033Z" fill="#A0B0BF"/>
</g>
<rect x="0.77193" y="1.64693" width="42.4561" height="42.4561" rx="3.22807" stroke="#A0B0BF" stroke-width="1.54386"/>
<defs>
<clipPath id="clip0_597_10119">
<rect width="20.0702" height="20.0702" fill="white" transform="translate(12.3516 13.2266)"/>
</clipPath>
</defs>
</svg>
