<svg width="44" height="45" viewBox="0 0 44 45" fill="none" xmlns="http://www.w3.org/2000/svg">
<path d="M17.2919 12.1953H25.9375C29.231 12.1953 31.9071 14.8713 31.9071 18.1649V26.8105C31.9071 28.3938 31.2781 29.9121 30.1586 31.0317C29.0391 32.1512 27.5207 32.7801 25.9375 32.7801H17.2919C13.9983 32.7801 11.3223 30.1041 11.3223 26.8105V18.1649C11.3223 16.5817 11.9512 15.0633 13.0707 13.9438C14.1902 12.8242 15.7086 12.1953 17.2919 12.1953ZM17.086 14.2538C16.1033 14.2538 15.1609 14.6442 14.466 15.339C13.7711 16.0339 13.3807 16.9764 13.3807 17.9591V27.0164C13.3807 29.0646 15.0378 30.7216 17.086 30.7216H26.1433C27.126 30.7216 28.0685 30.3313 28.7633 29.6364C29.4582 28.9415 29.8486 27.9991 29.8486 27.0164V17.9591C29.8486 15.9109 28.1915 14.2538 26.1433 14.2538H17.086ZM27.0182 15.7977C27.3594 15.7977 27.6866 15.9332 27.9279 16.1745C28.1692 16.4157 28.3047 16.743 28.3047 17.0842C28.3047 17.4254 28.1692 17.7527 27.9279 17.9939C27.6866 18.2352 27.3594 18.3708 27.0182 18.3708C26.677 18.3708 26.3497 18.2352 26.1084 17.9939C25.8672 17.7527 25.7316 17.4254 25.7316 17.0842C25.7316 16.743 25.8672 16.4157 26.1084 16.1745C26.3497 15.9332 26.677 15.7977 27.0182 15.7977ZM21.6147 17.3415C22.9795 17.3415 24.2885 17.8837 25.2536 18.8488C26.2187 19.8139 26.7609 21.1229 26.7609 22.4877C26.7609 23.8526 26.2187 25.1615 25.2536 26.1266C24.2885 27.0917 22.9795 27.6339 21.6147 27.6339C20.2498 27.6339 18.9409 27.0917 17.9758 26.1266C17.0107 25.1615 16.4685 23.8526 16.4685 22.4877C16.4685 21.1229 17.0107 19.8139 17.9758 18.8488C18.9409 17.8837 20.2498 17.3415 21.6147 17.3415ZM21.6147 19.4C20.7957 19.4 20.0104 19.7253 19.4313 20.3044C18.8523 20.8834 18.5269 21.6688 18.5269 22.4877C18.5269 23.3066 18.8523 24.092 19.4313 24.6711C20.0104 25.2501 20.7957 25.5754 21.6147 25.5754C22.4336 25.5754 23.219 25.2501 23.798 24.6711C24.3771 24.092 24.7024 23.3066 24.7024 22.4877C24.7024 21.6688 24.3771 20.8834 23.798 20.3044C23.219 19.7253 22.4336 19.4 21.6147 19.4Z" fill="#A0B0BF"/>
<rect x="0.77193" y="1.64693" width="42.4561" height="42.4561" rx="3.22807" stroke="#A0B0BF" stroke-width="1.54386"/>
</svg>
