<svg width="44" height="45" viewBox="0 0 44 45" fill="none" xmlns="http://www.w3.org/2000/svg">
<path d="M17.0629 15.6719C17.7552 15.6719 18.3954 15.726 18.9804 15.8864C19.5665 15.9936 20.0464 16.2081 20.4722 16.4757C20.899 16.7444 21.2186 17.1192 21.4309 17.6013C21.6443 18.0834 21.7516 18.6738 21.7516 19.3162C21.7516 20.067 21.5913 20.7094 21.2186 21.1915C20.899 21.6746 20.366 22.1025 19.7268 22.4243C20.6325 22.693 21.3248 23.175 21.7516 23.8185C22.1773 24.461 22.4438 25.2648 22.4438 26.1759C22.4438 26.9266 22.2835 27.569 22.017 28.1053C21.7516 28.6415 21.3248 29.1236 20.8448 29.4454C20.3235 29.7902 19.7472 30.0437 19.1408 30.195C18.5016 30.3565 17.8624 30.4637 17.2233 30.4637H10.083V15.6719H17.0629ZM16.6361 21.6735C17.2222 21.6735 17.7021 21.5132 18.0748 21.2456C18.4474 20.978 18.6078 20.4949 18.6078 19.9055C18.6078 19.5838 18.5536 19.2631 18.4474 19.0486C18.3413 18.8341 18.1809 18.6727 17.9686 18.5124C17.7552 18.4051 17.5418 18.2979 17.2753 18.2448C17.0088 18.1906 16.7433 18.1906 16.4227 18.1906H13.333V21.6746H16.6372L16.6361 21.6735ZM16.7964 27.998C17.116 27.998 17.4356 27.9439 17.7021 27.8908C17.9686 27.8366 18.2351 27.7305 18.4474 27.569C18.6645 27.4122 18.8461 27.2114 18.9804 26.9797C19.0866 26.7121 19.1938 26.3904 19.1938 26.0155C19.1938 25.2648 18.9804 24.7285 18.5547 24.3537C18.1278 24.032 17.5418 23.8716 16.8495 23.8716H13.333V27.9991L16.7964 27.998ZM27.0794 27.9439C27.5052 28.3729 28.1443 28.5874 28.9969 28.5874C29.583 28.5874 30.116 28.427 30.5418 28.1595C30.9686 27.8377 31.2351 27.516 31.3413 27.1953H33.9521C33.5253 28.4801 32.8861 29.3912 32.0346 29.9816C31.1809 30.5168 30.1691 30.8385 28.9438 30.8385C28.1599 30.841 27.3825 30.6954 26.6526 30.4095C25.9957 30.1632 25.41 29.7583 24.9474 29.2309C24.4527 28.7375 24.0869 28.1299 23.8825 27.4618C23.616 26.7652 23.5088 26.0155 23.5088 25.1575C23.5088 24.3537 23.616 23.604 23.8825 22.9064C24.1392 22.2351 24.5187 21.6175 25.0016 21.0853C25.4881 20.5857 26.0668 20.1851 26.7057 19.9055C27.4171 19.6196 28.1771 19.4739 28.9438 19.4765C29.8495 19.4765 30.649 19.638 31.3413 20.0128C32.0346 20.3876 32.5665 20.8166 32.9923 21.4601C33.4191 22.0495 33.7398 22.746 33.9521 23.4968C34.0583 24.2465 34.1113 24.9972 34.0583 25.8541H26.333C26.333 26.7121 26.6526 27.516 27.0794 27.945V27.9439ZM30.4356 22.317C30.0629 21.9422 29.4768 21.7277 28.7835 21.7277C28.3047 21.7277 27.9309 21.836 27.6113 21.9964C27.2918 22.1567 27.0794 22.3712 26.866 22.5857C26.6696 22.7928 26.5394 23.0538 26.4923 23.3354C26.4392 23.604 26.3861 23.8185 26.3861 24.032H31.1809C31.0748 23.2281 30.8083 22.693 30.4356 22.317ZM25.7469 16.6902H31.7139V18.1375H25.748V16.6902H25.7469Z" fill="#8A8D97"/>
<rect x="0.77193" y="1.64693" width="42.4561" height="42.4561" rx="3.22807" stroke="#A0B0BF" stroke-width="1.54386"/>
</svg>
