<svg width="44" height="45" viewBox="0 0 44 45" fill="none" xmlns="http://www.w3.org/2000/svg">
<g clip-path="url(#clip0_597_10116)">
<path d="M23.6656 22.875C23.6656 26.9131 20.3831 30.1875 16.332 30.1875C15.3704 30.1888 14.418 30.0007 13.5292 29.6339C12.6403 29.2671 11.8324 28.7288 11.1515 28.0498C10.4707 27.3707 9.93026 26.5643 9.5611 25.6764C9.19194 24.7885 9.00128 23.8366 9 22.875C9 18.8353 12.2825 15.5625 16.332 15.5625C17.2937 15.561 18.2463 15.749 19.1353 16.1157C20.0244 16.4824 20.8325 17.0206 21.5135 17.6997C22.1945 18.3787 22.7351 19.1853 23.1044 20.0733C23.4736 20.9613 23.6643 21.9133 23.6656 22.875ZM31.7094 22.875C31.7094 26.6775 30.0681 29.7585 28.0434 29.7585C26.0186 29.7585 24.3774 26.6759 24.3774 22.875C24.3774 19.0725 26.0186 15.9915 28.0434 15.9915C30.0681 15.9915 31.7094 19.0741 31.7094 22.875ZM35 22.875C35 26.281 34.4231 29.0419 33.7098 29.0419C32.998 29.0419 32.4211 26.2794 32.4211 22.875C32.4211 19.469 32.998 16.7081 33.7114 16.7081C34.4231 16.7081 35 19.469 35 22.875Z" fill="#8A8D97"/>
</g>
<rect x="0.77193" y="1.64693" width="42.4561" height="42.4561" rx="3.22807" stroke="#A0B0BF" stroke-width="1.54386"/>
<defs>
<clipPath id="clip0_597_10116">
<rect width="26" height="26" fill="white" transform="translate(9 9.875)"/>
</clipPath>
</defs>
</svg>
