<svg width="1281" height="489" viewBox="0 0 1281 489" fill="none" xmlns="http://www.w3.org/2000/svg">
<rect x="0.544434" y="1.20215" width="1279" height="487" rx="7.5" fill="#D6D7DB"/>
<g filter="url(#filter0_d_519_7024)">
<rect x="527.544" y="34.7021" width="225" height="27" rx="13.5" fill="#F1F2F3" shape-rendering="crispEdges"/>
<path d="M543.044 40.2856C538.674 40.2856 535.128 43.8323 535.128 48.2023C535.128 52.5723 538.674 56.119 543.044 56.119C547.414 56.119 550.961 52.5723 550.961 48.2023C550.961 43.8323 547.414 40.2856 543.044 40.2856ZM543.836 52.1606H542.253V47.4106H543.836V52.1606ZM543.836 45.8273H542.253V44.244H543.836V45.8273Z" fill="#54575E"/>
<path d="M562.08 53.7021L559.296 43.5203H560.549L562.677 51.8129H562.776L564.944 43.5203H566.336L568.503 51.8129H568.603L570.731 43.5203H571.983L569.199 53.7021H567.927L565.679 45.5885H565.6L563.353 53.7021H562.08ZM574.534 49.1084V53.7021H573.36V43.5203H574.534V47.259H574.633C574.812 46.8646 575.081 46.5513 575.439 46.3193C575.8 46.084 576.28 45.9664 576.88 45.9664C577.401 45.9664 577.856 46.0708 578.248 46.2796C578.639 46.4851 578.942 46.8016 579.157 47.2291C579.376 47.6534 579.485 48.1936 579.485 48.8499V53.7021H578.312V48.9294C578.312 48.3229 578.155 47.8539 577.84 47.5225C577.528 47.1877 577.096 47.0203 576.542 47.0203C576.158 47.0203 575.813 47.1015 575.508 47.2639C575.207 47.4263 574.968 47.6633 574.792 47.9749C574.62 48.2864 574.534 48.6643 574.534 49.1084ZM583.879 53.8811C583.395 53.8811 582.956 53.79 582.562 53.6077C582.167 53.4221 581.854 53.1553 581.622 52.8073C581.39 52.4559 581.274 52.0317 581.274 51.5345C581.274 51.097 581.36 50.7424 581.533 50.4706C581.705 50.1955 581.935 49.9801 582.224 49.8243C582.512 49.6685 582.83 49.5525 583.178 49.4763C583.529 49.3968 583.882 49.3338 584.237 49.2874C584.701 49.2277 585.077 49.183 585.366 49.1531C585.657 49.12 585.869 49.0653 586.002 48.9891C586.138 48.9128 586.206 48.7803 586.206 48.5914V48.5516C586.206 48.061 586.072 47.6799 585.803 47.4081C585.538 47.1363 585.135 47.0004 584.595 47.0004C584.035 47.0004 583.596 47.1231 583.278 47.3683C582.959 47.6136 582.736 47.8754 582.606 48.1539L581.493 47.7561C581.692 47.2921 581.957 46.9308 582.288 46.6723C582.623 46.4105 582.988 46.2282 583.382 46.1254C583.78 46.0194 584.171 45.9664 584.555 45.9664C584.801 45.9664 585.082 45.9962 585.4 46.0558C585.722 46.1122 586.032 46.2298 586.33 46.4088C586.632 46.5878 586.882 46.8579 587.081 47.2192C587.28 47.5805 587.379 48.0644 587.379 48.6709V53.7021H586.206V52.6681H586.146C586.067 52.8338 585.934 53.0111 585.748 53.2C585.563 53.3889 585.316 53.5497 585.008 53.6823C584.699 53.8148 584.323 53.8811 583.879 53.8811ZM584.058 52.8271C584.522 52.8271 584.913 52.736 585.231 52.5537C585.553 52.3714 585.795 52.1361 585.957 51.8477C586.123 51.5594 586.206 51.2561 586.206 50.9379V49.8641C586.156 49.9237 586.047 49.9784 585.878 50.0281C585.712 50.0745 585.52 50.116 585.301 50.1524C585.086 50.1856 584.875 50.2154 584.67 50.2419C584.467 50.2651 584.303 50.285 584.177 50.3016C583.872 50.3414 583.587 50.406 583.322 50.4955C583.06 50.5816 582.848 50.7126 582.686 50.8882C582.527 51.0606 582.447 51.2959 582.447 51.5942C582.447 52.0019 582.598 52.3101 582.9 52.5189C583.205 52.7244 583.591 52.8271 584.058 52.8271ZM592.842 46.0658V47.0601H588.884V46.0658H592.842ZM590.038 44.2362H591.211V51.5146C591.211 51.8461 591.259 52.0947 591.355 52.2604C591.455 52.4228 591.581 52.5322 591.733 52.5885C591.889 52.6415 592.053 52.6681 592.225 52.6681C592.354 52.6681 592.461 52.6614 592.543 52.6482C592.626 52.6316 592.693 52.6183 592.742 52.6084L592.981 53.6624C592.901 53.6922 592.79 53.722 592.648 53.7519C592.505 53.785 592.325 53.8016 592.106 53.8016C591.774 53.8016 591.45 53.7303 591.131 53.5878C590.817 53.4453 590.555 53.2282 590.346 52.9365C590.14 52.6449 590.038 52.277 590.038 51.8328V44.2362ZM600.274 53.7021L597.947 46.0658H599.18L600.831 51.9124H600.911L602.541 46.0658H603.794L605.405 51.8925H605.484L607.135 46.0658H608.368L606.041 53.7021H604.888L603.217 47.8357H603.098L601.428 53.7021H600.274ZM612.861 53.8612C612.125 53.8612 611.491 53.6988 610.957 53.374C610.427 53.0459 610.017 52.5885 609.729 52.0019C609.444 51.4119 609.301 50.7258 609.301 49.9436C609.301 49.1614 609.444 48.472 609.729 47.8754C610.017 47.2755 610.418 46.8082 610.932 46.4735C611.449 46.1354 612.052 45.9664 612.742 45.9664C613.139 45.9664 613.532 46.0326 613.92 46.1652C614.308 46.2978 614.661 46.5132 614.979 46.8115C615.297 47.1065 615.551 47.4976 615.74 47.9848C615.928 48.472 616.023 49.0719 616.023 49.7845V50.2817H610.137V49.2675H614.83C614.83 48.8366 614.744 48.4521 614.571 48.1141C614.402 47.776 614.16 47.5092 613.845 47.3137C613.534 47.1181 613.166 47.0203 612.742 47.0203C612.274 47.0203 611.87 47.1363 611.529 47.3683C611.191 47.597 610.93 47.8953 610.748 48.2632C610.566 48.6311 610.475 49.0255 610.475 49.4465V50.1226C610.475 50.6993 610.574 51.1882 610.773 51.5892C610.975 51.9869 611.255 52.2902 611.613 52.499C611.971 52.7045 612.387 52.8073 612.861 52.8073C613.169 52.8073 613.448 52.7642 613.696 52.678C613.948 52.5885 614.165 52.4559 614.348 52.2803C614.53 52.1013 614.671 51.8792 614.77 51.6141L615.904 51.9323C615.784 52.3167 615.584 52.6548 615.302 52.9465C615.02 53.2348 614.672 53.4602 614.258 53.6226C613.844 53.7817 613.378 53.8612 612.861 53.8612ZM623.475 53.7021L621.149 46.0658H622.382L624.032 51.9124H624.112L625.742 46.0658H626.995L628.606 51.8925H628.686L630.336 46.0658H631.569L629.242 53.7021H628.089L626.419 47.8357H626.299L624.629 53.7021H623.475ZM635.367 53.8811C634.884 53.8811 634.444 53.79 634.05 53.6077C633.656 53.4221 633.342 53.1553 633.11 52.8073C632.878 52.4559 632.762 52.0317 632.762 51.5345C632.762 51.097 632.848 50.7424 633.021 50.4706C633.193 50.1955 633.424 49.9801 633.712 49.8243C634 49.6685 634.318 49.5525 634.666 49.4763C635.018 49.3968 635.371 49.3338 635.725 49.2874C636.189 49.2277 636.566 49.183 636.854 49.1531C637.146 49.12 637.358 49.0653 637.49 48.9891C637.626 48.9128 637.694 48.7803 637.694 48.5914V48.5516C637.694 48.061 637.56 47.6799 637.291 47.4081C637.026 47.1363 636.624 47.0004 636.083 47.0004C635.523 47.0004 635.084 47.1231 634.766 47.3683C634.448 47.6136 634.224 47.8754 634.095 48.1539L632.981 47.7561C633.18 47.2921 633.445 46.9308 633.777 46.6723C634.111 46.4105 634.476 46.2282 634.87 46.1254C635.268 46.0194 635.659 45.9664 636.044 45.9664C636.289 45.9664 636.571 45.9962 636.889 46.0558C637.21 46.1122 637.52 46.2298 637.818 46.4088C638.12 46.5878 638.37 46.8579 638.569 47.2192C638.768 47.5805 638.867 48.0644 638.867 48.6709V53.7021H637.694V52.6681H637.634C637.555 52.8338 637.422 53.0111 637.237 53.2C637.051 53.3889 636.804 53.5497 636.496 53.6823C636.188 53.8148 635.812 53.8811 635.367 53.8811ZM635.546 52.8271C636.01 52.8271 636.402 52.736 636.72 52.5537C637.041 52.3714 637.283 52.1361 637.446 51.8477C637.611 51.5594 637.694 51.2561 637.694 50.9379V49.8641C637.644 49.9237 637.535 49.9784 637.366 50.0281C637.2 50.0745 637.008 50.116 636.789 50.1524C636.574 50.1856 636.363 50.2154 636.158 50.2419C635.956 50.2651 635.792 50.285 635.666 50.3016C635.361 50.3414 635.076 50.406 634.811 50.4955C634.549 50.5816 634.337 50.7126 634.174 50.8882C634.015 51.0606 633.936 51.2959 633.936 51.5942C633.936 52.0019 634.086 52.3101 634.388 52.5189C634.693 52.7244 635.079 52.8271 635.546 52.8271ZM642.182 49.1084V53.7021H641.009V46.0658H642.142V47.259H642.242C642.421 46.8712 642.693 46.5596 643.057 46.3243C643.422 46.0857 643.892 45.9664 644.469 45.9664C644.986 45.9664 645.439 46.0724 645.826 46.2845C646.214 46.4933 646.516 46.8115 646.731 47.2391C646.947 47.6633 647.054 48.2003 647.054 48.8499V53.7021H645.881V48.9294C645.881 48.3295 645.725 47.8622 645.414 47.5274C645.102 47.1894 644.675 47.0203 644.131 47.0203C643.757 47.0203 643.422 47.1015 643.127 47.2639C642.835 47.4263 642.605 47.6633 642.436 47.9749C642.267 48.2864 642.182 48.6643 642.182 49.1084ZM652.519 46.0658V47.0601H648.562V46.0658H652.519ZM649.715 44.2362H650.889V51.5146C650.889 51.8461 650.937 52.0947 651.033 52.2604C651.132 52.4228 651.258 52.5322 651.411 52.5885C651.567 52.6415 651.731 52.6681 651.903 52.6681C652.032 52.6681 652.138 52.6614 652.221 52.6482C652.304 52.6316 652.37 52.6183 652.42 52.6084L652.659 53.6624C652.579 53.6922 652.468 53.722 652.326 53.7519C652.183 53.785 652.002 53.8016 651.784 53.8016C651.452 53.8016 651.127 53.7303 650.809 53.5878C650.494 53.4453 650.232 53.2282 650.024 52.9365C649.818 52.6449 649.715 52.277 649.715 51.8328V44.2362ZM657.404 53.8612C656.668 53.8612 656.033 53.6988 655.5 53.374C654.97 53.0459 654.56 52.5885 654.272 52.0019C653.987 51.4119 653.844 50.7258 653.844 49.9436C653.844 49.1614 653.987 48.472 654.272 47.8754C654.56 47.2755 654.961 46.8082 655.475 46.4735C655.992 46.1354 656.595 45.9664 657.285 45.9664C657.682 45.9664 658.075 46.0326 658.463 46.1652C658.851 46.2978 659.204 46.5132 659.522 46.8115C659.84 47.1065 660.094 47.4976 660.283 47.9848C660.471 48.472 660.566 49.0719 660.566 49.7845V50.2817H654.68V49.2675H659.373C659.373 48.8366 659.287 48.4521 659.114 48.1141C658.945 47.776 658.703 47.5092 658.388 47.3137C658.077 47.1181 657.709 47.0203 657.285 47.0203C656.817 47.0203 656.413 47.1363 656.072 47.3683C655.734 47.597 655.473 47.8953 655.291 48.2632C655.109 48.6311 655.018 49.0255 655.018 49.4465V50.1226C655.018 50.6993 655.117 51.1882 655.316 51.5892C655.518 51.9869 655.798 52.2902 656.156 52.499C656.514 52.7045 656.93 52.8073 657.404 52.8073C657.712 52.8073 657.991 52.7642 658.239 52.678C658.491 52.5885 658.708 52.4559 658.89 52.2803C659.073 52.1013 659.214 51.8792 659.313 51.6141L660.447 51.9323C660.327 52.3167 660.127 52.6548 659.845 52.9465C659.563 53.2348 659.215 53.4602 658.801 53.6226C658.387 53.7817 657.921 53.8612 657.404 53.8612ZM665.234 53.8612C664.598 53.8612 664.036 53.7005 663.549 53.379C663.062 53.0542 662.681 52.5968 662.405 52.0068C662.13 51.4136 661.993 50.7126 661.993 49.9039C661.993 49.1018 662.13 48.4057 662.405 47.8158C662.681 47.2258 663.063 46.7701 663.554 46.4486C664.044 46.1271 664.611 45.9664 665.254 45.9664C665.751 45.9664 666.144 46.0492 666.432 46.2149C666.724 46.3773 666.946 46.5629 667.099 46.7718C667.254 46.9772 667.375 47.1463 667.462 47.2789H667.561V43.5203H668.734V53.7021H667.601V52.5289H667.462C667.375 52.6681 667.253 52.8437 667.094 53.0558C666.935 53.2646 666.707 53.4519 666.413 53.6176C666.118 53.78 665.725 53.8612 665.234 53.8612ZM665.393 52.8073C665.864 52.8073 666.262 52.6846 666.587 52.4394C666.911 52.1908 667.158 51.8477 667.327 51.4102C667.496 50.9694 667.581 50.4607 667.581 49.884C667.581 49.3139 667.498 48.8151 667.332 48.3875C667.167 47.9566 666.921 47.6219 666.596 47.3833C666.272 47.1413 665.871 47.0203 665.393 47.0203C664.896 47.0203 664.482 47.1479 664.15 47.4031C663.822 47.655 663.575 47.9981 663.41 48.4323C663.247 48.8631 663.166 49.347 663.166 49.884C663.166 50.4275 663.249 50.9214 663.415 51.3655C663.584 51.8063 663.832 52.1576 664.16 52.4195C664.492 52.678 664.903 52.8073 665.393 52.8073ZM678.305 46.0658V47.0601H674.347V46.0658H678.305ZM675.501 44.2362H676.674V51.5146C676.674 51.8461 676.722 52.0947 676.818 52.2604C676.917 52.4228 677.043 52.5322 677.196 52.5885C677.352 52.6415 677.516 52.6681 677.688 52.6681C677.817 52.6681 677.923 52.6614 678.006 52.6482C678.089 52.6316 678.155 52.6183 678.205 52.6084L678.444 53.6624C678.364 53.6922 678.253 53.722 678.111 53.7519C677.968 53.785 677.788 53.8016 677.569 53.8016C677.237 53.8016 676.913 53.7303 676.594 53.5878C676.279 53.4453 676.018 53.2282 675.809 52.9365C675.603 52.6449 675.501 52.277 675.501 51.8328V44.2362ZM683.09 53.8612C682.4 53.8612 681.795 53.6972 681.275 53.3691C680.758 53.0409 680.354 52.5819 680.062 51.9919C679.774 51.402 679.629 50.7126 679.629 49.9237C679.629 49.1283 679.774 48.4339 680.062 47.8406C680.354 47.2474 680.758 46.7867 681.275 46.4585C681.795 46.1304 682.4 45.9664 683.09 45.9664C683.779 45.9664 684.382 46.1304 684.899 46.4585C685.42 46.7867 685.824 47.2474 686.112 47.8406C686.404 48.4339 686.55 49.1283 686.55 49.9237C686.55 50.7126 686.404 51.402 686.112 51.9919C685.824 52.5819 685.42 53.0409 684.899 53.3691C684.382 53.6972 683.779 53.8612 683.09 53.8612ZM683.09 52.8073C683.613 52.8073 684.044 52.673 684.382 52.4046C684.72 52.1361 684.971 51.7831 685.133 51.3456C685.295 50.9081 685.377 50.4342 685.377 49.9237C685.377 49.4133 685.295 48.9377 685.133 48.4969C684.971 48.0561 684.72 47.6998 684.382 47.428C684.044 47.1562 683.613 47.0203 683.09 47.0203C682.566 47.0203 682.135 47.1562 681.797 47.428C681.459 47.6998 681.209 48.0561 681.046 48.4969C680.884 48.9377 680.803 49.4133 680.803 49.9237C680.803 50.4342 680.884 50.9081 681.046 51.3456C681.209 51.7831 681.459 52.1361 681.797 52.4046C682.135 52.673 682.566 52.8073 683.09 52.8073ZM694.526 53.8811C694.042 53.8811 693.603 53.79 693.208 53.6077C692.814 53.4221 692.501 53.1553 692.269 52.8073C692.037 52.4559 691.92 52.0317 691.92 51.5345C691.92 51.097 692.007 50.7424 692.179 50.4706C692.351 50.1955 692.582 49.9801 692.87 49.8243C693.158 49.6685 693.477 49.5525 693.825 49.4763C694.176 49.3968 694.529 49.3338 694.884 49.2874C695.348 49.2277 695.724 49.183 696.012 49.1531C696.304 49.12 696.516 49.0653 696.648 48.9891C696.784 48.9128 696.852 48.7803 696.852 48.5914V48.5516C696.852 48.061 696.718 47.6799 696.45 47.4081C696.184 47.1363 695.782 47.0004 695.242 47.0004C694.681 47.0004 694.242 47.1231 693.924 47.3683C693.606 47.6136 693.382 47.8754 693.253 48.1539L692.139 47.7561C692.338 47.2921 692.603 46.9308 692.935 46.6723C693.269 46.4105 693.634 46.2282 694.028 46.1254C694.426 46.0194 694.817 45.9664 695.202 45.9664C695.447 45.9664 695.729 45.9962 696.047 46.0558C696.368 46.1122 696.678 46.2298 696.977 46.4088C697.278 46.5878 697.528 46.8579 697.727 47.2192C697.926 47.5805 698.026 48.0644 698.026 48.6709V53.7021H696.852V52.6681H696.793C696.713 52.8338 696.581 53.0111 696.395 53.2C696.209 53.3889 695.962 53.5497 695.654 53.6823C695.346 53.8148 694.97 53.8811 694.526 53.8811ZM694.705 52.8271C695.169 52.8271 695.56 52.736 695.878 52.5537C696.199 52.3714 696.441 52.1361 696.604 51.8477C696.769 51.5594 696.852 51.2561 696.852 50.9379V49.8641C696.803 49.9237 696.693 49.9784 696.524 50.0281C696.358 50.0745 696.166 50.116 695.947 50.1524C695.732 50.1856 695.522 50.2154 695.316 50.2419C695.114 50.2651 694.95 50.285 694.824 50.3016C694.519 50.3414 694.234 50.406 693.969 50.4955C693.707 50.5816 693.495 50.7126 693.332 50.8882C693.173 51.0606 693.094 51.2959 693.094 51.5942C693.094 52.0019 693.245 52.3101 693.546 52.5189C693.851 52.7244 694.237 52.8271 694.705 52.8271ZM703.269 53.8612C702.553 53.8612 701.937 53.6922 701.42 53.3541C700.903 53.0161 700.505 52.5504 700.227 51.9571C699.948 51.3638 699.809 50.686 699.809 49.9237C699.809 49.1482 699.952 48.4637 700.237 47.8705C700.525 47.2739 700.926 46.8082 701.44 46.4735C701.957 46.1354 702.56 45.9664 703.25 45.9664C703.786 45.9664 704.27 46.0658 704.701 46.2646C705.132 46.4635 705.485 46.7419 705.76 47.0999C706.035 47.4578 706.206 47.8754 706.272 48.3527H705.099C705.009 48.0047 704.811 47.6965 704.502 47.428C704.197 47.1562 703.786 47.0203 703.269 47.0203C702.812 47.0203 702.411 47.1396 702.066 47.3783C701.725 47.6136 701.458 47.9467 701.266 48.3776C701.077 48.8051 700.982 49.3073 700.982 49.884C700.982 50.4739 701.075 50.9877 701.261 51.4252C701.45 51.8627 701.715 52.2024 702.056 52.4443C702.401 52.6863 702.805 52.8073 703.269 52.8073C703.574 52.8073 703.851 52.7542 704.1 52.6482C704.348 52.5421 704.559 52.3896 704.731 52.1908C704.903 51.9919 705.026 51.7533 705.099 51.4749H706.272C706.206 51.9256 706.042 52.3316 705.78 52.6929C705.522 53.0509 705.178 53.3359 704.751 53.548C704.327 53.7568 703.833 53.8612 703.269 53.8612ZM709.161 49.1084V53.7021H707.987V43.5203H709.161V47.259H709.26C709.439 46.8646 709.708 46.5513 710.066 46.3193C710.427 46.084 710.907 45.9664 711.507 45.9664C712.028 45.9664 712.483 46.0708 712.875 46.2796C713.266 46.4851 713.569 46.8016 713.784 47.2291C714.003 47.6534 714.112 48.1936 714.112 48.8499V53.7021H712.939V48.9294C712.939 48.3229 712.782 47.8539 712.467 47.5225C712.155 47.1877 711.723 47.0203 711.169 47.0203C710.785 47.0203 710.44 47.1015 710.135 47.2639C709.834 47.4263 709.595 47.6633 709.419 47.9749C709.247 48.2864 709.161 48.6643 709.161 49.1084ZM716.259 53.7021V46.0658H717.432V53.7021H716.259ZM716.856 44.7931C716.627 44.7931 716.43 44.7152 716.264 44.5594C716.101 44.4036 716.02 44.2164 716.02 43.9976C716.02 43.7789 716.101 43.5916 716.264 43.4358C716.43 43.28 716.627 43.2021 716.856 43.2021C717.084 43.2021 717.28 43.28 717.442 43.4358C717.608 43.5916 717.691 43.7789 717.691 43.9976C717.691 44.2164 717.608 44.4036 717.442 44.5594C717.28 44.7152 717.084 44.7931 716.856 44.7931ZM722.783 53.8612C722.047 53.8612 721.412 53.6988 720.879 53.374C720.348 53.0459 719.939 52.5885 719.651 52.0019C719.366 51.4119 719.223 50.7258 719.223 49.9436C719.223 49.1614 719.366 48.472 719.651 47.8754C719.939 47.2755 720.34 46.8082 720.854 46.4735C721.371 46.1354 721.974 45.9664 722.664 45.9664C723.061 45.9664 723.454 46.0326 723.842 46.1652C724.23 46.2978 724.583 46.5132 724.901 46.8115C725.219 47.1065 725.473 47.4976 725.661 47.9848C725.85 48.472 725.945 49.0719 725.945 49.7845V50.2817H720.058V49.2675H724.752C724.752 48.8366 724.665 48.4521 724.493 48.1141C724.324 47.776 724.082 47.5092 723.767 47.3137C723.456 47.1181 723.088 47.0203 722.664 47.0203C722.196 47.0203 721.792 47.1363 721.451 47.3683C721.112 47.597 720.852 47.8953 720.67 48.2632C720.488 48.6311 720.397 49.0255 720.397 49.4465V50.1226C720.397 50.6993 720.496 51.1882 720.695 51.5892C720.897 51.9869 721.177 52.2902 721.535 52.499C721.893 52.7045 722.309 52.8073 722.783 52.8073C723.091 52.8073 723.37 52.7642 723.618 52.678C723.87 52.5885 724.087 52.4559 724.269 52.2803C724.452 52.1013 724.593 51.8792 724.692 51.6141L725.826 51.9323C725.706 52.3167 725.506 52.6548 725.224 52.9465C724.942 53.2348 724.594 53.4602 724.18 53.6226C723.766 53.7817 723.3 53.8612 722.783 53.8612ZM733.742 46.0658L730.918 53.7021H729.724L726.901 46.0658H728.173L730.281 52.151H730.361L732.469 46.0658H733.742ZM738.218 53.8612C737.483 53.8612 736.848 53.6988 736.314 53.374C735.784 53.0459 735.375 52.5885 735.086 52.0019C734.801 51.4119 734.659 50.7258 734.659 49.9436C734.659 49.1614 734.801 48.472 735.086 47.8754C735.375 47.2755 735.776 46.8082 736.289 46.4735C736.807 46.1354 737.41 45.9664 738.099 45.9664C738.497 45.9664 738.89 46.0326 739.277 46.1652C739.665 46.2978 740.018 46.5132 740.336 46.8115C740.655 47.1065 740.908 47.4976 741.097 47.9848C741.286 48.472 741.38 49.0719 741.38 49.7845V50.2817H735.494V49.2675H740.187C740.187 48.8366 740.101 48.4521 739.929 48.1141C739.76 47.776 739.518 47.5092 739.203 47.3137C738.891 47.1181 738.523 47.0203 738.099 47.0203C737.632 47.0203 737.227 47.1363 736.886 47.3683C736.548 47.597 736.288 47.8953 736.106 48.2632C735.923 48.6311 735.832 49.0255 735.832 49.4465V50.1226C735.832 50.6993 735.932 51.1882 736.13 51.5892C736.333 51.9869 736.613 52.2902 736.971 52.499C737.329 52.7045 737.744 52.8073 738.218 52.8073C738.527 52.8073 738.805 52.7642 739.054 52.678C739.306 52.5885 739.523 52.4559 739.705 52.2803C739.887 52.1013 740.028 51.8792 740.128 51.6141L741.261 51.9323C741.142 52.3167 740.941 52.6548 740.659 52.9465C740.378 53.2348 740.03 53.4602 739.615 53.6226C739.201 53.7817 738.735 53.8612 738.218 53.8612Z" fill="#202124"/>
</g>
<path fill-rule="evenodd" clip-rule="evenodd" d="M637.794 436.534C627.586 439.253 616.859 440.702 605.794 440.702C537.311 440.702 481.794 385.185 481.794 316.702C481.794 248.219 537.311 192.702 605.794 192.702C616.859 192.702 627.586 194.151 637.794 196.871C648.003 194.151 658.729 192.702 669.794 192.702C738.278 192.702 793.794 248.219 793.794 316.702C793.794 385.185 738.278 440.702 669.794 440.702C658.729 440.702 648.003 439.253 637.794 436.534Z" fill="#DDDEE1"/>
<path d="M646.18 202.986C645.82 204.608 641.7 205.33 640.718 205.684C634.865 207.797 628.994 209.835 623.115 211.87C616.328 214.22 610.195 217.973 603.406 220.293C598.609 221.933 594.7 224.443 590.179 226.38C585.957 228.19 587.438 228.849 591.561 228.058C607.511 225 623.566 220.617 639.139 216.016C645.785 214.052 652.665 212.942 659.144 210.422C659.873 210.139 663.541 208.34 662.665 209.304C661.303 210.802 659.547 211.701 657.762 212.594C649.479 216.735 641.211 220.906 632.887 224.965C618.082 232.187 603.413 239.455 588.271 245.958C582.118 248.6 576.366 251.877 570.438 254.841C569.843 255.138 565.449 258.478 565.963 258.625C566.862 258.882 568.131 258.055 568.924 257.77C573.262 256.208 577.538 254.441 581.822 252.736C596.364 246.945 611.168 242.005 625.978 236.942C644.394 230.647 662.619 223.759 681.123 217.727M681.123 217.727C682.084 217.413 681.694 217.506 681.123 217.727ZM681.123 217.727C677.216 219.236 681.23 217.981 677.241 219.273C655.863 226.199 635.398 235.764 614.659 244.345C595.002 252.479 575.459 261.007 556.816 271.293C555.744 271.884 551.532 274.527 555.5 273.793C563.426 272.329 571.403 269.847 578.992 267.18C601.345 259.326 623.233 249.931 645.259 241.22C656.753 236.673 668.288 232.375 679.939 228.256C681.494 227.706 689.316 224.925 683.229 226.808C657.896 234.643 634.144 247.742 610.382 259.25C592.191 268.06 574.34 277.539 556.355 286.757C551.85 289.066 547.352 291.389 542.865 293.733C540.944 294.736 539.866 294.375 541.878 295.18M541.878 295.18C542.496 295.428 541.863 295.187 541.878 295.18ZM541.878 295.18C547.819 292.602 553.726 289.942 559.646 287.317C585.265 275.952 611.126 265.237 637.099 254.71C654.555 247.635 672.362 241.124 690.204 235.1C692.588 234.295 691.735 234.392 690.007 234.968C687.518 235.798 684.962 236.688 682.604 237.831C673.308 242.333 664.647 247.969 656.183 253.854C640.317 264.885 624.432 275.463 607.453 284.717C592.938 292.629 578.589 300.848 563.989 308.605C559.895 310.779 555.79 312.972 551.551 314.856C546.532 317.087 552.761 313.086 553.46 312.619C588.907 288.894 627.421 270.262 667.041 254.71C678.731 250.121 714.734 238.938 702.773 242.766C692.402 246.085 682.434 251.081 672.634 255.763C655.803 263.804 639.089 272.086 622.72 281.032C599.497 293.724 576.278 306.606 552.802 318.805C527.71 331.842 604.185 295.182 629.86 283.335C647.917 275.004 666.328 267.595 684.742 260.106C689.161 258.309 693.595 256.565 698.068 254.907C700.936 253.844 704.539 253.043 707.149 251.354C710.92 248.913 698.762 254.609 694.745 256.618C669.416 269.283 644.466 282.83 619.595 296.365C599.892 307.087 580.671 318.64 561.291 329.926C554.373 333.954 547.419 337.918 540.496 341.935C539.199 342.688 547.566 338.408 546.294 339.202C545.737 339.551 555.206 334.996 555.794 334.702C592.17 316.514 610.578 306.592 648.352 291.364C665.552 284.43 682.842 277.738 699.878 270.404C701.371 269.762 702.868 269.125 704.353 268.463C705.482 267.96 708.13 267.888 707.643 266.752C707.362 266.097 699.665 268.565 699.154 268.726C689.851 271.656 681.078 276.905 672.535 281.526C652.836 292.181 633.8 304.071 614.922 316.107C587.401 333.654 530.411 372.964 557.794 355.202C599.802 327.954 617.423 315.392 663.717 295.773C678.347 289.573 693.527 284.377 708.597 279.354C711.174 278.495 724.637 274.42 714.684 278.597C681.888 292.361 650.861 310.508 621.042 329.794C599.469 343.748 592.7 350.024 571.294 364.202C570.016 365.049 558.48 372.074 557.794 370.702C557.513 370.14 569.651 364.299 569.794 364.202C583.019 355.251 585.423 354.012 599.096 345.752C632.699 325.453 667.606 306.502 704.879 293.864C715.231 290.354 714.949 290.443 725.794 288.702C729.379 288.127 729.069 290.748 724.794 292.702C700.269 303.914 689.08 308.054 665.692 321.503C635.296 338.98 603.555 356.604 576.755 379.445C574.914 381.013 573.167 382.677 571.359 384.281C571.009 384.592 570.017 385.254 570.471 385.367C573.221 386.055 579.485 381.403 581.559 380.201C597.181 371.15 611.207 359.468 625.978 349.141C647.723 333.937 669.974 319.369 693.955 307.914C694.641 307.586 718.436 295.497 719.949 298.306C720.91 300.091 682.432 325.545 679.873 327.425C659.765 342.193 640.696 358.157 621.733 374.345C613.634 381.259 591.655 398.313 584.544 406.305C581.14 410.131 599.502 395.87 600.116 395.468C607.655 390.537 614.719 384.835 621.898 379.412C648.688 359.176 676.197 339.085 706.919 325.155C706.953 325.139 727.286 317.882 727.121 318.87C726.914 320.113 723.207 322.234 722.647 322.621C715.459 327.592 707.898 331.997 700.602 336.803C677.535 351.993 655.466 368.97 634.236 386.618C621.619 397.107 584.113 428.974 596.957 418.764C617.866 402.144 640.576 387.659 662.5 372.436C674.738 363.939 687.09 355.567 699.615 347.496C705.932 343.425 719.073 338.606 724.794 333.702C728.125 330.848 711.966 339.961 708.433 342.561C695.264 352.249 683.067 363.006 671.614 374.674C655.569 391.021 639.874 407.85 624.629 424.949C624.42 425.184 621.912 427.876 623.872 426.2C628.231 422.471 632.509 418.647 636.836 414.881C653.76 400.15 671.457 386.112 690.402 374.049C695.608 370.733 700.941 367.64 706.524 365C707.578 364.502 711.26 362.614 708.367 365C700.45 371.53 692.427 377.752 684.94 384.808C673.129 395.939 661.914 407.7 650.359 419.093C647.212 422.195 644.025 425.238 640.784 428.24C638.534 430.324 639.928 429.313 641.376 428.108C650.547 420.48 659.579 412.77 669.179 405.668C676.513 400.243 684.131 394.22 692.277 390.039C693.169 389.582 702.559 385.528 699.286 388.427C686.507 399.746 673.847 411.872 659.802 421.528" stroke="#38B436" stroke-width="3" stroke-linecap="round"/>
<circle cx="605.794" cy="316.702" r="122.5" stroke="#F69900" stroke-width="3"/>
<circle cx="669.794" cy="316.702" r="122.5" stroke="#1BA1DA" stroke-width="3"/>
<path d="M855.964 308.975H858.124V318.407C858.124 319.343 857.83 320.093 857.242 320.657C856.654 321.209 855.784 321.485 854.632 321.485C853.492 321.485 852.628 321.209 852.04 320.657C851.464 320.093 851.176 319.343 851.176 318.407V308.975H853.336V318.299C853.336 319.115 853.774 319.523 854.65 319.523C855.526 319.523 855.964 319.115 855.964 318.299V308.975ZM859.445 313.493C859.445 312.569 859.715 311.879 860.255 311.423C860.795 310.967 861.677 310.739 862.901 310.739C863.693 310.739 864.401 310.835 865.025 311.027V312.953C864.473 312.761 863.855 312.665 863.171 312.665C862.499 312.665 862.061 312.743 861.857 312.899C861.665 313.043 861.569 313.283 861.569 313.619V313.871C861.569 314.111 861.623 314.303 861.731 314.447C861.851 314.579 862.079 314.747 862.415 314.951L863.909 315.833C864.905 316.421 865.403 317.183 865.403 318.119V318.587C865.403 320.459 864.179 321.395 861.731 321.395C860.867 321.395 860.111 321.311 859.463 321.143V319.181C860.051 319.361 860.699 319.451 861.407 319.451C862.115 319.451 862.595 319.373 862.847 319.217C863.111 319.061 863.243 318.827 863.243 318.515V318.263C863.243 318.023 863.171 317.831 863.027 317.687C862.895 317.543 862.607 317.345 862.163 317.093L860.813 316.301C859.901 315.773 859.445 315.011 859.445 314.015V313.493ZM866.608 318.443V313.511C866.608 312.623 866.872 311.927 867.4 311.423C867.94 310.907 868.75 310.649 869.83 310.649C870.91 310.649 871.702 310.907 872.206 311.423C872.722 311.927 872.98 312.623 872.98 313.511V316.967H868.714V318.281C868.714 318.713 868.84 319.025 869.092 319.217C869.344 319.409 869.824 319.505 870.532 319.505C871.24 319.505 871.966 319.391 872.71 319.163V321.089C871.966 321.305 871.138 321.413 870.226 321.413C867.814 321.413 866.608 320.423 866.608 318.443ZM868.714 315.275H870.964V313.529C870.964 312.821 870.586 312.467 869.83 312.467C869.086 312.467 868.714 312.821 868.714 313.529V315.275ZM878.697 310.775H879.057V312.791H878.571C877.947 312.791 877.347 312.971 876.771 313.331V321.305H874.593V310.829H876.645V311.567C876.993 311.339 877.233 311.189 877.365 311.117C877.761 310.889 878.205 310.775 878.697 310.775ZM883.29 318.443V313.511C883.29 312.623 883.554 311.927 884.082 311.423C884.622 310.907 885.432 310.649 886.512 310.649C887.592 310.649 888.384 310.907 888.888 311.423C889.404 311.927 889.662 312.623 889.662 313.511V316.967H885.396V318.281C885.396 318.713 885.522 319.025 885.774 319.217C886.026 319.409 886.506 319.505 887.214 319.505C887.922 319.505 888.648 319.391 889.392 319.163V321.089C888.648 321.305 887.82 321.413 886.908 321.413C884.496 321.413 883.29 320.423 883.29 318.443ZM885.396 315.275H887.646V313.529C887.646 312.821 887.268 312.467 886.512 312.467C885.768 312.467 885.396 312.821 885.396 313.529V315.275ZM894.874 310.829H897.214L894.928 316.031L897.232 321.305H894.874L893.83 318.083L892.768 321.305H890.428L892.678 316.031L890.428 310.829H892.768L893.83 313.943L894.874 310.829ZM902.571 313.547C902.571 313.031 902.295 312.773 901.743 312.773C901.311 312.773 900.891 312.887 900.483 313.115V319.307H901.509C902.217 319.307 902.571 318.983 902.571 318.335V313.547ZM900.357 311.297C901.089 310.949 901.797 310.775 902.481 310.775C903.165 310.775 903.717 310.973 904.137 311.369C904.557 311.753 904.767 312.323 904.767 313.079V318.641C904.767 319.517 904.521 320.183 904.029 320.639C903.537 321.083 902.877 321.305 902.049 321.305H900.483V323.987H898.305V310.829H900.357V311.297ZM906.352 318.443V313.511C906.352 312.623 906.616 311.927 907.144 311.423C907.684 310.907 908.494 310.649 909.574 310.649C910.654 310.649 911.446 310.907 911.95 311.423C912.466 311.927 912.724 312.623 912.724 313.511V316.967H908.458V318.281C908.458 318.713 908.584 319.025 908.836 319.217C909.088 319.409 909.568 319.505 910.276 319.505C910.984 319.505 911.71 319.391 912.454 319.163V321.089C911.71 321.305 910.882 321.413 909.97 321.413C907.558 321.413 906.352 320.423 906.352 318.443ZM908.458 315.275H910.708V313.529C910.708 312.821 910.33 312.467 909.574 312.467C908.83 312.467 908.458 312.821 908.458 313.529V315.275ZM918.441 310.775H918.801V312.791H918.315C917.691 312.791 917.091 312.971 916.515 313.331V321.305H914.337V310.829H916.389V311.567C916.737 311.339 916.977 311.189 917.109 311.117C917.505 310.889 917.949 310.775 918.441 310.775ZM920.936 310.199C920.12 310.199 919.712 309.803 919.712 309.011C919.712 308.219 920.12 307.823 920.936 307.823C921.764 307.823 922.178 308.219 922.178 309.011C922.178 309.803 921.764 310.199 920.936 310.199ZM919.856 311.027H922.034V321.305H919.856V311.027ZM923.79 318.443V313.511C923.79 312.623 924.054 311.927 924.582 311.423C925.122 310.907 925.932 310.649 927.012 310.649C928.092 310.649 928.884 310.907 929.388 311.423C929.904 311.927 930.162 312.623 930.162 313.511V316.967H925.896V318.281C925.896 318.713 926.022 319.025 926.274 319.217C926.526 319.409 927.006 319.505 927.714 319.505C928.422 319.505 929.148 319.391 929.892 319.163V321.089C929.148 321.305 928.32 321.413 927.408 321.413C924.996 321.413 923.79 320.423 923.79 318.443ZM925.896 315.275H928.146V313.529C928.146 312.821 927.768 312.467 927.012 312.467C926.268 312.467 925.896 312.821 925.896 313.529V315.275ZM933.826 311.297C934.522 310.949 935.212 310.775 935.896 310.775C936.58 310.775 937.132 310.973 937.552 311.369C937.972 311.753 938.182 312.323 938.182 313.079V321.305H935.968V313.547C935.968 313.031 935.704 312.773 935.176 312.773C934.768 312.773 934.36 312.887 933.952 313.115V321.305H931.774V310.829H933.826V311.297ZM939.856 313.655C939.856 311.711 940.972 310.739 943.204 310.739C943.972 310.739 944.674 310.823 945.31 310.991V313.007C944.71 312.815 944.128 312.719 943.564 312.719C943 312.719 942.604 312.803 942.376 312.971C942.148 313.139 942.034 313.421 942.034 313.817V318.317C942.034 318.713 942.142 318.995 942.358 319.163C942.586 319.331 942.988 319.415 943.564 319.415C944.14 319.415 944.728 319.319 945.328 319.127V321.125C944.704 321.305 943.996 321.395 943.204 321.395C940.972 321.395 939.856 320.423 939.856 318.479V313.655ZM946.588 318.443V313.511C946.588 312.623 946.852 311.927 947.38 311.423C947.92 310.907 948.73 310.649 949.81 310.649C950.89 310.649 951.682 310.907 952.186 311.423C952.702 311.927 952.96 312.623 952.96 313.511V316.967H948.694V318.281C948.694 318.713 948.82 319.025 949.072 319.217C949.324 319.409 949.804 319.505 950.512 319.505C951.22 319.505 951.946 319.391 952.69 319.163V321.089C951.946 321.305 951.118 321.413 950.206 321.413C947.794 321.413 946.588 320.423 946.588 318.443ZM948.694 315.275H950.944V313.529C950.944 312.821 950.566 312.467 949.81 312.467C949.066 312.467 948.694 312.821 948.694 313.529V315.275Z" fill="#214DA3"/>
<rect x="833.794" y="297.805" width="137" height="37" stroke="#214DA3" stroke-width="3"/>
<path d="M326.208 311.711C326.208 310.811 326.508 310.115 327.108 309.623C327.708 309.131 328.566 308.885 329.682 308.885C330.81 308.885 331.686 308.999 332.31 309.227V311.297C331.614 311.021 330.792 310.883 329.844 310.883C328.896 310.883 328.422 311.243 328.422 311.963V312.449C328.422 312.809 328.488 313.091 328.62 313.295C328.752 313.487 329.01 313.685 329.394 313.889L331.464 315.059C332.436 315.587 332.922 316.391 332.922 317.471V318.533C332.922 319.445 332.592 320.153 331.932 320.657C331.272 321.149 330.33 321.395 329.106 321.395C327.882 321.395 326.964 321.263 326.352 320.999V318.911C327.12 319.235 327.99 319.397 328.962 319.397C330.15 319.397 330.744 319.025 330.744 318.281V317.813C330.744 317.501 330.678 317.261 330.546 317.093C330.426 316.913 330.198 316.733 329.862 316.553L327.882 315.473C326.766 314.861 326.208 313.979 326.208 312.827V311.711ZM334.145 318.443V313.511C334.145 312.623 334.409 311.927 334.937 311.423C335.477 310.907 336.287 310.649 337.367 310.649C338.447 310.649 339.239 310.907 339.743 311.423C340.259 311.927 340.517 312.623 340.517 313.511V316.967H336.251V318.281C336.251 318.713 336.377 319.025 336.629 319.217C336.881 319.409 337.361 319.505 338.069 319.505C338.777 319.505 339.503 319.391 340.247 319.163V321.089C339.503 321.305 338.675 321.413 337.763 321.413C335.351 321.413 334.145 320.423 334.145 318.443ZM336.251 315.275H338.501V313.529C338.501 312.821 338.123 312.467 337.367 312.467C336.623 312.467 336.251 312.821 336.251 313.529V315.275ZM341.95 313.655C341.95 311.711 343.066 310.739 345.298 310.739C346.066 310.739 346.768 310.823 347.404 310.991V313.007C346.804 312.815 346.222 312.719 345.658 312.719C345.094 312.719 344.698 312.803 344.47 312.971C344.242 313.139 344.128 313.421 344.128 313.817V318.317C344.128 318.713 344.236 318.995 344.452 319.163C344.68 319.331 345.082 319.415 345.658 319.415C346.234 319.415 346.822 319.319 347.422 319.127V321.125C346.798 321.305 346.09 321.395 345.298 321.395C343.066 321.395 341.95 320.423 341.95 318.479V313.655ZM353.056 310.829H355.216V321.305H353.164V320.819C352.576 321.155 351.898 321.323 351.13 321.323C350.374 321.323 349.792 321.113 349.384 320.693C348.976 320.273 348.772 319.667 348.772 318.875V310.829H350.968V318.497C350.968 319.073 351.256 319.361 351.832 319.361C352.252 319.361 352.66 319.247 353.056 319.019V310.829ZM361.263 310.775H361.623V312.791H361.137C360.513 312.791 359.913 312.971 359.337 313.331V321.305H357.159V310.829H359.211V311.567C359.559 311.339 359.799 311.189 359.931 311.117C360.327 310.889 360.771 310.775 361.263 310.775ZM363.759 310.199C362.943 310.199 362.535 309.803 362.535 309.011C362.535 308.219 362.943 307.823 363.759 307.823C364.587 307.823 365.001 308.219 365.001 309.011C365.001 309.803 364.587 310.199 363.759 310.199ZM362.679 311.027H364.857V321.305H362.679V311.027ZM369.096 308.975V310.829H370.968V312.665H369.096V318.623C369.096 319.187 369.396 319.469 369.996 319.469C370.296 319.469 370.662 319.397 371.094 319.253V321.179C370.59 321.347 370.092 321.431 369.6 321.431C367.824 321.431 366.936 320.561 366.936 318.821V312.665H365.91V310.829H367.026L367.674 308.975H369.096ZM376.667 310.829H378.773L376.145 323.987H374.057L374.579 321.305H373.751L371.591 310.829H373.733L374.525 314.789C374.837 316.385 375.065 317.999 375.209 319.631C375.341 318.191 375.569 316.589 375.893 314.825L376.667 310.829ZM384.917 318.281V318.803C384.917 319.415 385.235 319.721 385.871 319.721C386.363 319.721 386.795 319.589 387.167 319.325V316.697L385.889 317.057C385.493 317.165 385.229 317.303 385.097 317.471C384.977 317.639 384.917 317.909 384.917 318.281ZM383.315 311.081C383.999 310.853 384.905 310.739 386.033 310.739C387.161 310.739 387.983 310.991 388.499 311.495C389.015 311.987 389.273 312.731 389.273 313.727V321.305H387.221V320.549C386.753 321.089 386.093 321.359 385.241 321.359C384.401 321.359 383.783 321.149 383.387 320.729C382.991 320.309 382.793 319.667 382.793 318.803V318.191C382.793 317.459 382.967 316.883 383.315 316.463C383.663 316.043 384.227 315.725 385.007 315.509L387.185 314.915V313.709C387.173 313.337 387.065 313.067 386.861 312.899C386.657 312.731 386.189 312.647 385.457 312.647C384.725 312.647 384.011 312.773 383.315 313.025V311.081ZM390.58 313.493C390.58 312.569 390.85 311.879 391.39 311.423C391.93 310.967 392.812 310.739 394.036 310.739C394.828 310.739 395.536 310.835 396.16 311.027V312.953C395.608 312.761 394.99 312.665 394.306 312.665C393.634 312.665 393.196 312.743 392.992 312.899C392.8 313.043 392.704 313.283 392.704 313.619V313.871C392.704 314.111 392.758 314.303 392.866 314.447C392.986 314.579 393.214 314.747 393.55 314.951L395.044 315.833C396.04 316.421 396.538 317.183 396.538 318.119V318.587C396.538 320.459 395.314 321.395 392.866 321.395C392.002 321.395 391.246 321.311 390.598 321.143V319.181C391.186 319.361 391.834 319.451 392.542 319.451C393.25 319.451 393.73 319.373 393.982 319.217C394.246 319.061 394.378 318.827 394.378 318.515V318.263C394.378 318.023 394.306 317.831 394.162 317.687C394.03 317.543 393.742 317.345 393.298 317.093L391.948 316.301C391.036 315.773 390.58 315.011 390.58 314.015V313.493ZM402.189 313.547C402.189 313.031 401.913 312.773 401.361 312.773C400.929 312.773 400.509 312.887 400.101 313.115V319.307H401.127C401.835 319.307 402.189 318.983 402.189 318.335V313.547ZM399.975 311.297C400.707 310.949 401.415 310.775 402.099 310.775C402.783 310.775 403.335 310.973 403.755 311.369C404.175 311.753 404.385 312.323 404.385 313.079V318.641C404.385 319.517 404.139 320.183 403.647 320.639C403.155 321.083 402.495 321.305 401.667 321.305H400.101V323.987H397.923V310.829H399.975V311.297ZM405.969 318.443V313.511C405.969 312.623 406.233 311.927 406.761 311.423C407.301 310.907 408.111 310.649 409.191 310.649C410.271 310.649 411.063 310.907 411.567 311.423C412.083 311.927 412.341 312.623 412.341 313.511V316.967H408.075V318.281C408.075 318.713 408.201 319.025 408.453 319.217C408.705 319.409 409.185 319.505 409.893 319.505C410.601 319.505 411.327 319.391 412.071 319.163V321.089C411.327 321.305 410.499 321.413 409.587 321.413C407.175 321.413 405.969 320.423 405.969 318.443ZM408.075 315.275H410.325V313.529C410.325 312.821 409.947 312.467 409.191 312.467C408.447 312.467 408.075 312.821 408.075 313.529V315.275ZM413.774 313.655C413.774 311.711 414.89 310.739 417.122 310.739C417.89 310.739 418.592 310.823 419.228 310.991V313.007C418.628 312.815 418.046 312.719 417.482 312.719C416.918 312.719 416.522 312.803 416.294 312.971C416.066 313.139 415.952 313.421 415.952 313.817V318.317C415.952 318.713 416.06 318.995 416.276 319.163C416.504 319.331 416.906 319.415 417.482 319.415C418.058 319.415 418.646 319.319 419.246 319.127V321.125C418.622 321.305 417.914 321.395 417.122 321.395C414.89 321.395 413.774 320.423 413.774 318.479V313.655ZM422.99 308.975V310.829H424.862V312.665H422.99V318.623C422.99 319.187 423.29 319.469 423.89 319.469C424.19 319.469 424.556 319.397 424.988 319.253V321.179C424.484 321.347 423.986 321.431 423.494 321.431C421.718 321.431 420.83 320.561 420.83 318.821V312.665H419.804V310.829H420.92L421.568 308.975H422.99Z" fill="#9B3224"/>
<rect x="309.294" y="297.805" width="133" height="37" stroke="#9B3224" stroke-width="3"/>
<line x1="447.794" y1="315.702" x2="520.794" y2="315.702" stroke="#9B3224" stroke-width="2"/>
<line x1="754.794" y1="315.702" x2="827.794" y2="315.702" stroke="#1F57C4" stroke-width="2"/>
<path d="M518.962 126.476C519.389 125.934 519.296 125.148 518.754 124.721L509.92 117.755C509.378 117.327 508.592 117.42 508.165 117.962C507.737 118.504 507.83 119.29 508.372 119.718L516.225 125.91L510.033 133.762C509.605 134.304 509.698 135.09 510.24 135.518C510.783 135.945 511.569 135.852 511.996 135.31L518.962 126.476ZM626.198 320.971C545.799 306.783 493.807 260.889 474.498 217.259C464.839 195.433 463.402 174.296 470.471 157.956C477.511 141.684 493.105 129.902 518.127 126.944L517.834 124.461C492.106 127.502 475.637 139.72 468.177 156.964C460.746 174.14 462.371 196.034 472.212 218.271C491.904 262.766 544.662 309.121 625.763 323.433L626.198 320.971Z" fill="#1A6019"/>
<path d="M545.028 107.702H543.619C543.536 107.297 543.39 106.941 543.182 106.634C542.977 106.327 542.727 106.07 542.432 105.861C542.14 105.649 541.816 105.49 541.46 105.384C541.104 105.278 540.733 105.225 540.346 105.225C539.642 105.225 539.003 105.403 538.432 105.759C537.863 106.115 537.411 106.64 537.074 107.333C536.74 108.026 536.574 108.876 536.574 109.884C536.574 110.892 536.74 111.742 537.074 112.435C537.411 113.128 537.863 113.653 538.432 114.009C539.003 114.365 539.642 114.543 540.346 114.543C540.733 114.543 541.104 114.49 541.46 114.384C541.816 114.278 542.14 114.121 542.432 113.912C542.727 113.7 542.977 113.441 543.182 113.134C543.39 112.823 543.536 112.467 543.619 112.066H545.028C544.922 112.66 544.729 113.193 544.449 113.662C544.168 114.132 543.82 114.532 543.403 114.861C542.986 115.187 542.519 115.435 542 115.606C541.485 115.776 540.933 115.861 540.346 115.861C539.354 115.861 538.471 115.619 537.699 115.134C536.926 114.649 536.318 113.96 535.875 113.066C535.432 112.172 535.21 111.111 535.21 109.884C535.21 108.657 535.432 107.596 535.875 106.702C536.318 105.808 536.926 105.119 537.699 104.634C538.471 104.149 539.354 103.907 540.346 103.907C540.933 103.907 541.485 103.992 542 104.162C542.519 104.333 542.986 104.583 543.403 104.912C543.82 105.238 544.168 105.636 544.449 106.106C544.729 106.571 544.922 107.104 545.028 107.702ZM547.123 115.702V106.975H548.419V108.293H548.51C548.669 107.861 548.957 107.511 549.373 107.242C549.79 106.973 550.26 106.839 550.782 106.839C550.881 106.839 551.004 106.84 551.152 106.844C551.299 106.848 551.411 106.854 551.487 106.861V108.225C551.441 108.214 551.337 108.196 551.174 108.174C551.015 108.147 550.847 108.134 550.669 108.134C550.244 108.134 549.866 108.223 549.532 108.401C549.203 108.575 548.941 108.818 548.748 109.128C548.559 109.435 548.464 109.785 548.464 110.179V115.702H547.123ZM556.47 115.884C555.629 115.884 554.904 115.698 554.294 115.327C553.688 114.952 553.22 114.429 552.89 113.759C552.565 113.085 552.402 112.301 552.402 111.407C552.402 110.513 552.565 109.725 552.89 109.043C553.22 108.357 553.678 107.823 554.265 107.441C554.856 107.054 555.546 106.861 556.333 106.861C556.788 106.861 557.237 106.937 557.68 107.089C558.123 107.24 558.527 107.486 558.89 107.827C559.254 108.164 559.544 108.611 559.76 109.168C559.976 109.725 560.083 110.41 560.083 111.225V111.793H553.356V110.634H558.72C558.72 110.142 558.621 109.702 558.424 109.316C558.231 108.929 557.955 108.624 557.595 108.401C557.239 108.178 556.818 108.066 556.333 108.066C555.799 108.066 555.337 108.198 554.947 108.464C554.561 108.725 554.263 109.066 554.055 109.486C553.847 109.907 553.743 110.357 553.743 110.839V111.611C553.743 112.27 553.856 112.829 554.083 113.287C554.315 113.742 554.635 114.089 555.044 114.327C555.453 114.562 555.928 114.679 556.47 114.679C556.822 114.679 557.14 114.63 557.424 114.532C557.712 114.429 557.96 114.278 558.169 114.077C558.377 113.873 558.538 113.619 558.652 113.316L559.947 113.679C559.811 114.119 559.582 114.505 559.26 114.839C558.938 115.168 558.54 115.426 558.066 115.611C557.593 115.793 557.061 115.884 556.47 115.884ZM564.691 115.907C564.138 115.907 563.637 115.803 563.186 115.594C562.735 115.382 562.377 115.077 562.112 114.679C561.847 114.278 561.714 113.793 561.714 113.225C561.714 112.725 561.813 112.32 562.01 112.009C562.207 111.695 562.47 111.448 562.799 111.27C563.129 111.092 563.493 110.96 563.89 110.873C564.292 110.782 564.695 110.71 565.101 110.657C565.631 110.589 566.061 110.537 566.39 110.503C566.724 110.465 566.966 110.403 567.118 110.316C567.273 110.229 567.351 110.077 567.351 109.861V109.816C567.351 109.255 567.197 108.82 566.89 108.509C566.587 108.198 566.127 108.043 565.51 108.043C564.869 108.043 564.368 108.183 564.004 108.464C563.64 108.744 563.385 109.043 563.237 109.361L561.964 108.907C562.191 108.376 562.494 107.964 562.873 107.668C563.256 107.369 563.673 107.16 564.123 107.043C564.578 106.922 565.025 106.861 565.464 106.861C565.744 106.861 566.066 106.895 566.43 106.964C566.798 107.028 567.152 107.162 567.493 107.367C567.837 107.571 568.123 107.88 568.351 108.293C568.578 108.706 568.691 109.259 568.691 109.952V115.702H567.351V114.52H567.282C567.191 114.71 567.04 114.912 566.828 115.128C566.616 115.344 566.333 115.528 565.981 115.679C565.629 115.831 565.199 115.907 564.691 115.907ZM564.896 114.702C565.426 114.702 565.873 114.598 566.237 114.39C566.604 114.181 566.881 113.912 567.066 113.583C567.256 113.253 567.351 112.907 567.351 112.543V111.316C567.294 111.384 567.169 111.446 566.976 111.503C566.786 111.556 566.566 111.604 566.316 111.645C566.07 111.683 565.83 111.717 565.595 111.748C565.364 111.774 565.176 111.797 565.032 111.816C564.684 111.861 564.358 111.935 564.055 112.037C563.756 112.136 563.513 112.285 563.328 112.486C563.146 112.683 563.055 112.952 563.055 113.293C563.055 113.759 563.227 114.111 563.572 114.35C563.921 114.585 564.362 114.702 564.896 114.702ZM574.934 106.975V108.111H570.412V106.975H574.934ZM571.73 104.884H573.071V113.202C573.071 113.581 573.126 113.865 573.235 114.054C573.349 114.24 573.493 114.365 573.667 114.429C573.845 114.49 574.033 114.52 574.23 114.52C574.378 114.52 574.499 114.513 574.593 114.498C574.688 114.479 574.764 114.464 574.821 114.452L575.093 115.657C575.003 115.691 574.876 115.725 574.713 115.759C574.55 115.797 574.343 115.816 574.093 115.816C573.715 115.816 573.343 115.734 572.98 115.571C572.62 115.409 572.321 115.16 572.082 114.827C571.847 114.494 571.73 114.073 571.73 113.566V104.884ZM580.517 115.884C579.676 115.884 578.95 115.698 578.341 115.327C577.735 114.952 577.267 114.429 576.937 113.759C576.611 113.085 576.449 112.301 576.449 111.407C576.449 110.513 576.611 109.725 576.937 109.043C577.267 108.357 577.725 107.823 578.312 107.441C578.903 107.054 579.592 106.861 580.38 106.861C580.835 106.861 581.284 106.937 581.727 107.089C582.17 107.24 582.574 107.486 582.937 107.827C583.301 108.164 583.591 108.611 583.807 109.168C584.022 109.725 584.13 110.41 584.13 111.225V111.793H577.403V110.634H582.767C582.767 110.142 582.668 109.702 582.471 109.316C582.278 108.929 582.002 108.624 581.642 108.401C581.286 108.178 580.865 108.066 580.38 108.066C579.846 108.066 579.384 108.198 578.994 108.464C578.608 108.725 578.31 109.066 578.102 109.486C577.894 109.907 577.789 110.357 577.789 110.839V111.611C577.789 112.27 577.903 112.829 578.13 113.287C578.361 113.742 578.682 114.089 579.091 114.327C579.5 114.562 579.975 114.679 580.517 114.679C580.869 114.679 581.187 114.63 581.471 114.532C581.759 114.429 582.007 114.278 582.216 114.077C582.424 113.873 582.585 113.619 582.699 113.316L583.994 113.679C583.858 114.119 583.628 114.505 583.307 114.839C582.985 115.168 582.587 115.426 582.113 115.611C581.64 115.793 581.108 115.884 580.517 115.884ZM594.466 106.975V108.111H589.943V106.975H594.466ZM591.261 104.884H592.602V113.202C592.602 113.581 592.657 113.865 592.767 114.054C592.88 114.24 593.024 114.365 593.199 114.429C593.377 114.49 593.564 114.52 593.761 114.52C593.909 114.52 594.03 114.513 594.125 114.498C594.219 114.479 594.295 114.464 594.352 114.452L594.625 115.657C594.534 115.691 594.407 115.725 594.244 115.759C594.081 115.797 593.875 115.816 593.625 115.816C593.246 115.816 592.875 115.734 592.511 115.571C592.151 115.409 591.852 115.16 591.613 114.827C591.378 114.494 591.261 114.073 591.261 113.566V104.884ZM598.011 110.452V115.702H596.67V104.066H598.011V108.339H598.125C598.329 107.888 598.636 107.53 599.045 107.265C599.458 106.996 600.007 106.861 600.693 106.861C601.288 106.861 601.808 106.981 602.255 107.219C602.702 107.454 603.049 107.816 603.295 108.304C603.545 108.789 603.67 109.407 603.67 110.157V115.702H602.329V110.248C602.329 109.554 602.149 109.018 601.789 108.64C601.433 108.257 600.939 108.066 600.307 108.066C599.867 108.066 599.473 108.159 599.125 108.344C598.78 108.53 598.507 108.801 598.307 109.157C598.11 109.513 598.011 109.945 598.011 110.452ZM609.782 115.884C608.941 115.884 608.216 115.698 607.606 115.327C607 114.952 606.532 114.429 606.203 113.759C605.877 113.085 605.714 112.301 605.714 111.407C605.714 110.513 605.877 109.725 606.203 109.043C606.532 108.357 606.991 107.823 607.578 107.441C608.169 107.054 608.858 106.861 609.646 106.861C610.101 106.861 610.549 106.937 610.993 107.089C611.436 107.24 611.839 107.486 612.203 107.827C612.566 108.164 612.856 108.611 613.072 109.168C613.288 109.725 613.396 110.41 613.396 111.225V111.793H606.669V110.634H612.032C612.032 110.142 611.934 109.702 611.737 109.316C611.544 108.929 611.267 108.624 610.907 108.401C610.551 108.178 610.131 108.066 609.646 108.066C609.112 108.066 608.65 108.198 608.26 108.464C607.873 108.725 607.576 109.066 607.368 109.486C607.159 109.907 607.055 110.357 607.055 110.839V111.611C607.055 112.27 607.169 112.829 607.396 113.287C607.627 113.742 607.947 114.089 608.356 114.327C608.765 114.562 609.241 114.679 609.782 114.679C610.135 114.679 610.453 114.63 610.737 114.532C611.025 114.429 611.273 114.278 611.481 114.077C611.69 113.873 611.851 113.619 611.964 113.316L613.26 113.679C613.123 114.119 612.894 114.505 612.572 114.839C612.25 115.168 611.852 115.426 611.379 115.611C610.905 115.793 610.373 115.884 609.782 115.884ZM620.118 115.702V104.066H621.458V108.361H621.572C621.671 108.21 621.807 108.017 621.981 107.782C622.159 107.543 622.413 107.331 622.743 107.145C623.076 106.956 623.527 106.861 624.095 106.861C624.83 106.861 625.477 107.045 626.038 107.412C626.599 107.78 627.036 108.301 627.351 108.975C627.665 109.649 627.822 110.445 627.822 111.361C627.822 112.285 627.665 113.087 627.351 113.765C627.036 114.439 626.601 114.962 626.044 115.333C625.487 115.7 624.845 115.884 624.118 115.884C623.557 115.884 623.108 115.791 622.771 115.606C622.434 115.416 622.174 115.202 621.993 114.964C621.811 114.721 621.671 114.52 621.572 114.361H621.413V115.702H620.118ZM621.436 111.339C621.436 111.998 621.532 112.579 621.726 113.083C621.919 113.583 622.201 113.975 622.572 114.259C622.943 114.539 623.398 114.679 623.936 114.679C624.496 114.679 624.964 114.532 625.339 114.236C625.718 113.937 626.002 113.535 626.191 113.032C626.385 112.524 626.481 111.96 626.481 111.339C626.481 110.725 626.387 110.172 626.197 109.679C626.012 109.183 625.729 108.791 625.351 108.503C624.976 108.212 624.504 108.066 623.936 108.066C623.39 108.066 622.932 108.204 622.561 108.481C622.19 108.753 621.909 109.136 621.72 109.628C621.53 110.117 621.436 110.687 621.436 111.339ZM632.441 115.907C631.888 115.907 631.387 115.803 630.936 115.594C630.485 115.382 630.127 115.077 629.862 114.679C629.597 114.278 629.464 113.793 629.464 113.225C629.464 112.725 629.563 112.32 629.76 112.009C629.957 111.695 630.22 111.448 630.549 111.27C630.879 111.092 631.243 110.96 631.64 110.873C632.042 110.782 632.445 110.71 632.851 110.657C633.381 110.589 633.811 110.537 634.14 110.503C634.474 110.465 634.716 110.403 634.868 110.316C635.023 110.229 635.101 110.077 635.101 109.861V109.816C635.101 109.255 634.947 108.82 634.64 108.509C634.337 108.198 633.877 108.043 633.26 108.043C632.619 108.043 632.118 108.183 631.754 108.464C631.39 108.744 631.135 109.043 630.987 109.361L629.714 108.907C629.941 108.376 630.244 107.964 630.623 107.668C631.006 107.369 631.423 107.16 631.873 107.043C632.328 106.922 632.775 106.861 633.214 106.861C633.494 106.861 633.816 106.895 634.18 106.964C634.548 107.028 634.902 107.162 635.243 107.367C635.587 107.571 635.873 107.88 636.101 108.293C636.328 108.706 636.441 109.259 636.441 109.952V115.702H635.101V114.52H635.032C634.941 114.71 634.79 114.912 634.578 115.128C634.366 115.344 634.083 115.528 633.731 115.679C633.379 115.831 632.949 115.907 632.441 115.907ZM632.646 114.702C633.176 114.702 633.623 114.598 633.987 114.39C634.354 114.181 634.631 113.912 634.816 113.583C635.006 113.253 635.101 112.907 635.101 112.543V111.316C635.044 111.384 634.919 111.446 634.726 111.503C634.536 111.556 634.316 111.604 634.066 111.645C633.82 111.683 633.58 111.717 633.345 111.748C633.114 111.774 632.926 111.797 632.782 111.816C632.434 111.861 632.108 111.935 631.805 112.037C631.506 112.136 631.263 112.285 631.078 112.486C630.896 112.683 630.805 112.952 630.805 113.293C630.805 113.759 630.977 114.111 631.322 114.35C631.671 114.585 632.112 114.702 632.646 114.702ZM640.23 104.066V115.702H638.889V104.066H640.23ZM645.254 115.907C644.701 115.907 644.199 115.803 643.748 115.594C643.298 115.382 642.94 115.077 642.674 114.679C642.409 114.278 642.277 113.793 642.277 113.225C642.277 112.725 642.375 112.32 642.572 112.009C642.769 111.695 643.032 111.448 643.362 111.27C643.691 111.092 644.055 110.96 644.453 110.873C644.854 110.782 645.258 110.71 645.663 110.657C646.193 110.589 646.623 110.537 646.953 110.503C647.286 110.465 647.529 110.403 647.68 110.316C647.835 110.229 647.913 110.077 647.913 109.861V109.816C647.913 109.255 647.76 108.82 647.453 108.509C647.15 108.198 646.69 108.043 646.072 108.043C645.432 108.043 644.93 108.183 644.566 108.464C644.203 108.744 643.947 109.043 643.799 109.361L642.527 108.907C642.754 108.376 643.057 107.964 643.436 107.668C643.818 107.369 644.235 107.16 644.686 107.043C645.14 106.922 645.587 106.861 646.027 106.861C646.307 106.861 646.629 106.895 646.993 106.964C647.36 107.028 647.714 107.162 648.055 107.367C648.4 107.571 648.686 107.88 648.913 108.293C649.14 108.706 649.254 109.259 649.254 109.952V115.702H647.913V114.52H647.845C647.754 114.71 647.602 114.912 647.39 115.128C647.178 115.344 646.896 115.528 646.544 115.679C646.191 115.831 645.762 115.907 645.254 115.907ZM645.458 114.702C645.989 114.702 646.436 114.598 646.799 114.39C647.167 114.181 647.443 113.912 647.629 113.583C647.818 113.253 647.913 112.907 647.913 112.543V111.316C647.856 111.384 647.731 111.446 647.538 111.503C647.349 111.556 647.129 111.604 646.879 111.645C646.633 111.683 646.392 111.717 646.157 111.748C645.926 111.774 645.739 111.797 645.595 111.816C645.246 111.861 644.921 111.935 644.618 112.037C644.318 112.136 644.076 112.285 643.89 112.486C643.708 112.683 643.618 112.952 643.618 113.293C643.618 113.759 643.79 114.111 644.135 114.35C644.483 114.585 644.924 114.702 645.458 114.702ZM653.042 110.452V115.702H651.701V106.975H652.997V108.339H653.11C653.315 107.895 653.626 107.539 654.042 107.27C654.459 106.998 654.997 106.861 655.656 106.861C656.247 106.861 656.764 106.982 657.207 107.225C657.65 107.464 657.995 107.827 658.241 108.316C658.487 108.801 658.61 109.414 658.61 110.157V115.702H657.27V110.248C657.27 109.562 657.092 109.028 656.735 108.645C656.379 108.259 655.891 108.066 655.27 108.066C654.842 108.066 654.459 108.159 654.122 108.344C653.789 108.53 653.525 108.801 653.332 109.157C653.139 109.513 653.042 109.945 653.042 110.452ZM664.606 115.884C663.788 115.884 663.083 115.691 662.493 115.304C661.902 114.918 661.447 114.386 661.129 113.708C660.811 113.03 660.652 112.255 660.652 111.384C660.652 110.498 660.815 109.715 661.14 109.037C661.47 108.356 661.928 107.823 662.515 107.441C663.106 107.054 663.796 106.861 664.583 106.861C665.197 106.861 665.75 106.975 666.243 107.202C666.735 107.429 667.138 107.748 667.453 108.157C667.767 108.566 667.962 109.043 668.038 109.589H666.697C666.595 109.191 666.368 108.839 666.015 108.532C665.667 108.221 665.197 108.066 664.606 108.066C664.083 108.066 663.625 108.202 663.231 108.475C662.841 108.744 662.536 109.124 662.316 109.617C662.101 110.106 661.993 110.679 661.993 111.339C661.993 112.013 662.099 112.6 662.311 113.1C662.527 113.6 662.83 113.988 663.22 114.265C663.614 114.541 664.076 114.679 664.606 114.679C664.955 114.679 665.271 114.619 665.555 114.498C665.839 114.376 666.08 114.202 666.277 113.975C666.474 113.748 666.614 113.475 666.697 113.157H668.038C667.962 113.672 667.775 114.136 667.476 114.549C667.18 114.958 666.788 115.284 666.299 115.526C665.815 115.765 665.25 115.884 664.606 115.884ZM673.657 115.884C672.816 115.884 672.091 115.698 671.481 115.327C670.875 114.952 670.407 114.429 670.078 113.759C669.752 113.085 669.589 112.301 669.589 111.407C669.589 110.513 669.752 109.725 670.078 109.043C670.407 108.357 670.866 107.823 671.453 107.441C672.044 107.054 672.733 106.861 673.521 106.861C673.976 106.861 674.424 106.937 674.868 107.089C675.311 107.24 675.714 107.486 676.078 107.827C676.441 108.164 676.731 108.611 676.947 109.168C677.163 109.725 677.271 110.41 677.271 111.225V111.793H670.544V110.634H675.907C675.907 110.142 675.809 109.702 675.612 109.316C675.419 108.929 675.142 108.624 674.782 108.401C674.426 108.178 674.006 108.066 673.521 108.066C672.987 108.066 672.525 108.198 672.135 108.464C671.748 108.725 671.451 109.066 671.243 109.486C671.034 109.907 670.93 110.357 670.93 110.839V111.611C670.93 112.27 671.044 112.829 671.271 113.287C671.502 113.742 671.822 114.089 672.231 114.327C672.64 114.562 673.116 114.679 673.657 114.679C674.01 114.679 674.328 114.63 674.612 114.532C674.9 114.429 675.148 114.278 675.356 114.077C675.565 113.873 675.726 113.619 675.839 113.316L677.135 113.679C676.998 114.119 676.769 114.505 676.447 114.839C676.125 115.168 675.727 115.426 675.254 115.611C674.78 115.793 674.248 115.884 673.657 115.884ZM683.993 115.702V104.066H685.333V108.361H685.447C685.546 108.21 685.682 108.017 685.856 107.782C686.034 107.543 686.288 107.331 686.618 107.145C686.951 106.956 687.402 106.861 687.97 106.861C688.705 106.861 689.352 107.045 689.913 107.412C690.474 107.78 690.911 108.301 691.226 108.975C691.54 109.649 691.697 110.445 691.697 111.361C691.697 112.285 691.54 113.087 691.226 113.765C690.911 114.439 690.476 114.962 689.919 115.333C689.362 115.7 688.72 115.884 687.993 115.884C687.432 115.884 686.983 115.791 686.646 115.606C686.309 115.416 686.049 115.202 685.868 114.964C685.686 114.721 685.546 114.52 685.447 114.361H685.288V115.702H683.993ZM685.311 111.339C685.311 111.998 685.407 112.579 685.601 113.083C685.794 113.583 686.076 113.975 686.447 114.259C686.818 114.539 687.273 114.679 687.811 114.679C688.371 114.679 688.839 114.532 689.214 114.236C689.593 113.937 689.877 113.535 690.066 113.032C690.26 112.524 690.356 111.96 690.356 111.339C690.356 110.725 690.262 110.172 690.072 109.679C689.887 109.183 689.604 108.791 689.226 108.503C688.851 108.212 688.379 108.066 687.811 108.066C687.265 108.066 686.807 108.204 686.436 108.481C686.065 108.753 685.784 109.136 685.595 109.628C685.405 110.117 685.311 110.687 685.311 111.339ZM697.407 115.884C696.566 115.884 695.841 115.698 695.231 115.327C694.625 114.952 694.157 114.429 693.828 113.759C693.502 113.085 693.339 112.301 693.339 111.407C693.339 110.513 693.502 109.725 693.828 109.043C694.157 108.357 694.616 107.823 695.203 107.441C695.794 107.054 696.483 106.861 697.271 106.861C697.726 106.861 698.174 106.937 698.618 107.089C699.061 107.24 699.464 107.486 699.828 107.827C700.191 108.164 700.481 108.611 700.697 109.168C700.913 109.725 701.021 110.41 701.021 111.225V111.793H694.294V110.634H699.657C699.657 110.142 699.559 109.702 699.362 109.316C699.169 108.929 698.892 108.624 698.532 108.401C698.176 108.178 697.756 108.066 697.271 108.066C696.737 108.066 696.275 108.198 695.885 108.464C695.498 108.725 695.201 109.066 694.993 109.486C694.784 109.907 694.68 110.357 694.68 110.839V111.611C694.68 112.27 694.794 112.829 695.021 113.287C695.252 113.742 695.572 114.089 695.981 114.327C696.39 114.562 696.866 114.679 697.407 114.679C697.76 114.679 698.078 114.63 698.362 114.532C698.65 114.429 698.898 114.278 699.106 114.077C699.315 113.873 699.476 113.619 699.589 113.316L700.885 113.679C700.748 114.119 700.519 114.505 700.197 114.839C699.875 115.168 699.477 115.426 699.004 115.611C698.53 115.793 697.998 115.884 697.407 115.884ZM706.856 106.975V108.111H702.333V106.975H706.856ZM703.652 104.884H704.993V113.202C704.993 113.581 705.048 113.865 705.157 114.054C705.271 114.24 705.415 114.365 705.589 114.429C705.767 114.49 705.955 114.52 706.152 114.52C706.299 114.52 706.421 114.513 706.515 114.498C706.61 114.479 706.686 114.464 706.743 114.452L707.015 115.657C706.924 115.691 706.798 115.725 706.635 115.759C706.472 115.797 706.265 115.816 706.015 115.816C705.637 115.816 705.265 115.734 704.902 115.571C704.542 115.409 704.243 115.16 704.004 114.827C703.769 114.494 703.652 114.073 703.652 113.566V104.884ZM710.851 115.702L708.191 106.975H709.601L711.487 113.657H711.578L713.441 106.975H714.873L716.714 113.634H716.805L718.691 106.975H720.101L717.441 115.702H716.123L714.214 108.998H714.078L712.169 115.702H710.851ZM725.235 115.884C724.395 115.884 723.669 115.698 723.059 115.327C722.453 114.952 721.985 114.429 721.656 113.759C721.33 113.085 721.167 112.301 721.167 111.407C721.167 110.513 721.33 109.725 721.656 109.043C721.985 108.357 722.444 107.823 723.031 107.441C723.622 107.054 724.311 106.861 725.099 106.861C725.554 106.861 726.003 106.937 726.446 107.089C726.889 107.24 727.292 107.486 727.656 107.827C728.02 108.164 728.309 108.611 728.525 109.168C728.741 109.725 728.849 110.41 728.849 111.225V111.793H722.122V110.634H727.485C727.485 110.142 727.387 109.702 727.19 109.316C726.997 108.929 726.72 108.624 726.36 108.401C726.004 108.178 725.584 108.066 725.099 108.066C724.565 108.066 724.103 108.198 723.713 108.464C723.326 108.725 723.029 109.066 722.821 109.486C722.612 109.907 722.508 110.357 722.508 110.839V111.611C722.508 112.27 722.622 112.829 722.849 113.287C723.08 113.742 723.4 114.089 723.809 114.327C724.218 114.562 724.694 114.679 725.235 114.679C725.588 114.679 725.906 114.63 726.19 114.532C726.478 114.429 726.726 114.278 726.934 114.077C727.143 113.873 727.304 113.619 727.417 113.316L728.713 113.679C728.576 114.119 728.347 114.505 728.025 114.839C727.703 115.168 727.306 115.426 726.832 115.611C726.359 115.793 725.826 115.884 725.235 115.884ZM734.548 115.884C733.707 115.884 732.982 115.698 732.372 115.327C731.766 114.952 731.298 114.429 730.968 113.759C730.643 113.085 730.48 112.301 730.48 111.407C730.48 110.513 730.643 109.725 730.968 109.043C731.298 108.357 731.756 107.823 732.343 107.441C732.934 107.054 733.624 106.861 734.412 106.861C734.866 106.861 735.315 106.937 735.758 107.089C736.201 107.24 736.605 107.486 736.968 107.827C737.332 108.164 737.622 108.611 737.838 109.168C738.054 109.725 738.162 110.41 738.162 111.225V111.793H731.434V110.634H736.798C736.798 110.142 736.7 109.702 736.503 109.316C736.309 108.929 736.033 108.624 735.673 108.401C735.317 108.178 734.896 108.066 734.412 108.066C733.878 108.066 733.415 108.198 733.025 108.464C732.639 108.725 732.342 109.066 732.133 109.486C731.925 109.907 731.821 110.357 731.821 110.839V111.611C731.821 112.27 731.934 112.829 732.162 113.287C732.393 113.742 732.713 114.089 733.122 114.327C733.531 114.562 734.006 114.679 734.548 114.679C734.9 114.679 735.218 114.63 735.503 114.532C735.79 114.429 736.039 114.278 736.247 114.077C736.455 113.873 736.616 113.619 736.73 113.316L738.025 113.679C737.889 114.119 737.66 114.505 737.338 114.839C737.016 115.168 736.618 115.426 736.145 115.611C735.671 115.793 735.139 115.884 734.548 115.884ZM741.542 110.452V115.702H740.201V106.975H741.497V108.339H741.61C741.815 107.895 742.126 107.539 742.542 107.27C742.959 106.998 743.497 106.861 744.156 106.861C744.747 106.861 745.264 106.982 745.707 107.225C746.15 107.464 746.495 107.827 746.741 108.316C746.987 108.801 747.11 109.414 747.11 110.157V115.702H745.77V110.248C745.77 109.562 745.592 109.028 745.235 108.645C744.879 108.259 744.391 108.066 743.77 108.066C743.342 108.066 742.959 108.159 742.622 108.344C742.289 108.53 742.025 108.801 741.832 109.157C741.639 109.513 741.542 109.945 741.542 110.452ZM539.422 132.929L538.218 133.27C538.142 133.07 538.03 132.874 537.883 132.685C537.739 132.492 537.542 132.333 537.292 132.208C537.042 132.083 536.722 132.02 536.331 132.02C535.797 132.02 535.352 132.143 534.996 132.39C534.644 132.632 534.468 132.941 534.468 133.316C534.468 133.649 534.589 133.912 534.831 134.106C535.074 134.299 535.453 134.46 535.968 134.589L537.263 134.907C538.043 135.096 538.625 135.386 539.008 135.776C539.39 136.162 539.581 136.66 539.581 137.27C539.581 137.77 539.437 138.217 539.15 138.611C538.865 139.005 538.468 139.316 537.956 139.543C537.445 139.77 536.85 139.884 536.172 139.884C535.282 139.884 534.545 139.691 533.962 139.304C533.379 138.918 533.009 138.354 532.854 137.611L534.127 137.293C534.248 137.763 534.477 138.115 534.814 138.35C535.155 138.585 535.6 138.702 536.15 138.702C536.775 138.702 537.271 138.57 537.638 138.304C538.009 138.035 538.195 137.714 538.195 137.339C538.195 137.035 538.089 136.782 537.877 136.577C537.665 136.369 537.339 136.214 536.9 136.111L535.445 135.77C534.646 135.581 534.059 135.287 533.684 134.89C533.312 134.488 533.127 133.986 533.127 133.384C533.127 132.892 533.265 132.456 533.542 132.077C533.822 131.698 534.203 131.401 534.684 131.185C535.168 130.969 535.718 130.861 536.331 130.861C537.195 130.861 537.873 131.051 538.365 131.429C538.862 131.808 539.214 132.308 539.422 132.929ZM545.259 139.884C544.418 139.884 543.693 139.698 543.083 139.327C542.477 138.952 542.009 138.429 541.679 137.759C541.354 137.085 541.191 136.301 541.191 135.407C541.191 134.513 541.354 133.725 541.679 133.043C542.009 132.357 542.467 131.823 543.054 131.441C543.645 131.054 544.335 130.861 545.123 130.861C545.577 130.861 546.026 130.937 546.469 131.089C546.912 131.24 547.316 131.486 547.679 131.827C548.043 132.164 548.333 132.611 548.549 133.168C548.765 133.725 548.873 134.41 548.873 135.225V135.793H542.145V134.634H547.509C547.509 134.142 547.41 133.702 547.213 133.316C547.02 132.929 546.744 132.624 546.384 132.401C546.028 132.178 545.607 132.066 545.123 132.066C544.588 132.066 544.126 132.198 543.736 132.464C543.35 132.725 543.052 133.066 542.844 133.486C542.636 133.907 542.532 134.357 542.532 134.839V135.611C542.532 136.27 542.645 136.829 542.873 137.287C543.104 137.742 543.424 138.089 543.833 138.327C544.242 138.562 544.717 138.679 545.259 138.679C545.611 138.679 545.929 138.63 546.213 138.532C546.501 138.429 546.749 138.278 546.958 138.077C547.166 137.873 547.327 137.619 547.441 137.316L548.736 137.679C548.6 138.119 548.371 138.505 548.049 138.839C547.727 139.168 547.329 139.426 546.856 139.611C546.382 139.793 545.85 139.884 545.259 139.884ZM554.458 139.884C553.64 139.884 552.935 139.691 552.344 139.304C551.753 138.918 551.299 138.386 550.981 137.708C550.662 137.03 550.503 136.255 550.503 135.384C550.503 134.498 550.666 133.715 550.992 133.037C551.321 132.356 551.78 131.823 552.367 131.441C552.958 131.054 553.647 130.861 554.435 130.861C555.049 130.861 555.602 130.975 556.094 131.202C556.587 131.429 556.99 131.748 557.304 132.157C557.619 132.566 557.814 133.043 557.89 133.589H556.549C556.446 133.191 556.219 132.839 555.867 132.532C555.518 132.221 555.049 132.066 554.458 132.066C553.935 132.066 553.477 132.202 553.083 132.475C552.693 132.744 552.388 133.124 552.168 133.617C551.952 134.106 551.844 134.679 551.844 135.339C551.844 136.013 551.95 136.6 552.162 137.1C552.378 137.6 552.681 137.988 553.071 138.265C553.465 138.541 553.927 138.679 554.458 138.679C554.806 138.679 555.123 138.619 555.407 138.498C555.691 138.376 555.931 138.202 556.128 137.975C556.325 137.748 556.465 137.475 556.549 137.157H557.89C557.814 137.672 557.626 138.136 557.327 138.549C557.032 138.958 556.64 139.284 556.151 139.526C555.666 139.765 555.102 139.884 554.458 139.884ZM565.35 136.134V130.975H566.691V139.702H565.35V138.225H565.259C565.054 138.668 564.736 139.045 564.304 139.356C563.873 139.662 563.327 139.816 562.668 139.816C562.123 139.816 561.638 139.696 561.213 139.458C560.789 139.215 560.456 138.852 560.213 138.367C559.971 137.878 559.85 137.263 559.85 136.52V130.975H561.191V136.429C561.191 137.066 561.369 137.573 561.725 137.952C562.085 138.331 562.543 138.52 563.1 138.52C563.433 138.52 563.772 138.435 564.117 138.265C564.465 138.094 564.757 137.833 564.992 137.481C565.231 137.128 565.35 136.679 565.35 136.134ZM569.147 139.702V130.975H570.442V132.293H570.533C570.692 131.861 570.98 131.511 571.397 131.242C571.813 130.973 572.283 130.839 572.806 130.839C572.904 130.839 573.027 130.84 573.175 130.844C573.323 130.848 573.435 130.854 573.51 130.861V132.225C573.465 132.214 573.361 132.196 573.198 132.174C573.039 132.147 572.87 132.134 572.692 132.134C572.268 132.134 571.889 132.223 571.556 132.401C571.226 132.575 570.965 132.818 570.772 133.128C570.582 133.435 570.488 133.785 570.488 134.179V139.702H569.147ZM575.1 139.702V130.975H576.441V139.702H575.1ZM575.782 129.52C575.52 129.52 575.295 129.431 575.106 129.253C574.92 129.075 574.827 128.861 574.827 128.611C574.827 128.361 574.92 128.147 575.106 127.969C575.295 127.791 575.52 127.702 575.782 127.702C576.043 127.702 576.266 127.791 576.452 127.969C576.641 128.147 576.736 128.361 576.736 128.611C576.736 128.861 576.641 129.075 576.452 129.253C576.266 129.431 576.043 129.52 575.782 129.52ZM582.692 130.975V132.111H578.169V130.975H582.692ZM579.488 128.884H580.829V137.202C580.829 137.581 580.883 137.865 580.993 138.054C581.107 138.24 581.251 138.365 581.425 138.429C581.603 138.49 581.791 138.52 581.988 138.52C582.135 138.52 582.257 138.513 582.351 138.498C582.446 138.479 582.522 138.464 582.579 138.452L582.851 139.657C582.76 139.691 582.633 139.725 582.471 139.759C582.308 139.797 582.101 139.816 581.851 139.816C581.472 139.816 581.101 139.734 580.738 139.571C580.378 139.409 580.079 139.16 579.84 138.827C579.605 138.494 579.488 138.073 579.488 137.566V128.884ZM585.573 142.975C585.346 142.975 585.143 142.956 584.965 142.918C584.787 142.884 584.664 142.85 584.596 142.816L584.936 141.634C585.262 141.717 585.55 141.748 585.8 141.725C586.05 141.702 586.272 141.59 586.465 141.39C586.662 141.193 586.842 140.873 587.005 140.429L587.255 139.748L584.027 130.975H585.482L587.891 137.929H587.982L590.391 130.975H591.846L588.141 140.975C587.974 141.426 587.768 141.799 587.522 142.094C587.275 142.393 586.99 142.615 586.664 142.759C586.342 142.903 585.978 142.975 585.573 142.975ZM600.684 139.907C600.131 139.907 599.629 139.803 599.178 139.594C598.727 139.382 598.369 139.077 598.104 138.679C597.839 138.278 597.706 137.793 597.706 137.225C597.706 136.725 597.805 136.32 598.002 136.009C598.199 135.695 598.462 135.448 598.792 135.27C599.121 135.092 599.485 134.96 599.883 134.873C600.284 134.782 600.687 134.71 601.093 134.657C601.623 134.589 602.053 134.537 602.383 134.503C602.716 134.465 602.958 134.403 603.11 134.316C603.265 134.229 603.343 134.077 603.343 133.861V133.816C603.343 133.255 603.189 132.82 602.883 132.509C602.579 132.198 602.119 132.043 601.502 132.043C600.862 132.043 600.36 132.183 599.996 132.464C599.633 132.744 599.377 133.043 599.229 133.361L597.956 132.907C598.184 132.376 598.487 131.964 598.865 131.668C599.248 131.369 599.665 131.16 600.115 131.043C600.57 130.922 601.017 130.861 601.456 130.861C601.737 130.861 602.059 130.895 602.422 130.964C602.79 131.028 603.144 131.162 603.485 131.367C603.829 131.571 604.115 131.88 604.343 132.293C604.57 132.706 604.684 133.259 604.684 133.952V139.702H603.343V138.52H603.275C603.184 138.71 603.032 138.912 602.82 139.128C602.608 139.344 602.326 139.528 601.973 139.679C601.621 139.831 601.191 139.907 600.684 139.907ZM600.888 138.702C601.418 138.702 601.865 138.598 602.229 138.39C602.597 138.181 602.873 137.912 603.059 137.583C603.248 137.253 603.343 136.907 603.343 136.543V135.316C603.286 135.384 603.161 135.446 602.968 135.503C602.778 135.556 602.559 135.604 602.309 135.645C602.062 135.683 601.822 135.717 601.587 135.748C601.356 135.774 601.168 135.797 601.025 135.816C600.676 135.861 600.35 135.935 600.047 136.037C599.748 136.136 599.506 136.285 599.32 136.486C599.138 136.683 599.047 136.952 599.047 137.293C599.047 137.759 599.22 138.111 599.564 138.35C599.913 138.585 600.354 138.702 600.888 138.702ZM608.472 134.452V139.702H607.131V130.975H608.427V132.339H608.54C608.745 131.895 609.055 131.539 609.472 131.27C609.889 130.998 610.427 130.861 611.086 130.861C611.677 130.861 612.194 130.982 612.637 131.225C613.08 131.464 613.425 131.827 613.671 132.316C613.917 132.801 614.04 133.414 614.04 134.157V139.702H612.699V134.248C612.699 133.562 612.521 133.028 612.165 132.645C611.809 132.259 611.32 132.066 610.699 132.066C610.271 132.066 609.889 132.159 609.552 132.344C609.218 132.53 608.955 132.801 608.762 133.157C608.569 133.513 608.472 133.945 608.472 134.452ZM619.786 139.884C619.059 139.884 618.417 139.7 617.86 139.333C617.303 138.962 616.867 138.439 616.553 137.765C616.239 137.087 616.081 136.285 616.081 135.361C616.081 134.445 616.239 133.649 616.553 132.975C616.867 132.301 617.305 131.78 617.865 131.412C618.426 131.045 619.074 130.861 619.809 130.861C620.377 130.861 620.826 130.956 621.155 131.145C621.489 131.331 621.742 131.543 621.917 131.782C622.095 132.017 622.233 132.21 622.331 132.361H622.445V128.066H623.786V139.702H622.49V138.361H622.331C622.233 138.52 622.093 138.721 621.911 138.964C621.729 139.202 621.47 139.416 621.133 139.606C620.795 139.791 620.347 139.884 619.786 139.884ZM619.968 138.679C620.506 138.679 620.96 138.539 621.331 138.259C621.703 137.975 621.985 137.583 622.178 137.083C622.371 136.579 622.468 135.998 622.468 135.339C622.468 134.687 622.373 134.117 622.184 133.628C621.994 133.136 621.714 132.753 621.343 132.481C620.972 132.204 620.513 132.066 619.968 132.066C619.4 132.066 618.926 132.212 618.547 132.503C618.172 132.791 617.89 133.183 617.701 133.679C617.515 134.172 617.422 134.725 617.422 135.339C617.422 135.96 617.517 136.524 617.706 137.032C617.9 137.535 618.184 137.937 618.559 138.236C618.937 138.532 619.407 138.679 619.968 138.679ZM636.428 136.134V130.975H637.769V139.702H636.428V138.225H636.337C636.133 138.668 635.814 139.045 635.383 139.356C634.951 139.662 634.405 139.816 633.746 139.816C633.201 139.816 632.716 139.696 632.292 139.458C631.867 139.215 631.534 138.852 631.292 138.367C631.049 137.878 630.928 137.263 630.928 136.52V130.975H632.269V136.429C632.269 137.066 632.447 137.573 632.803 137.952C633.163 138.331 633.621 138.52 634.178 138.52C634.511 138.52 634.85 138.435 635.195 138.265C635.543 138.094 635.835 137.833 636.07 137.481C636.309 137.128 636.428 136.679 636.428 136.134ZM646.407 132.929L645.202 133.27C645.126 133.07 645.015 132.874 644.867 132.685C644.723 132.492 644.526 132.333 644.276 132.208C644.026 132.083 643.706 132.02 643.316 132.02C642.782 132.02 642.337 132.143 641.981 132.39C641.628 132.632 641.452 132.941 641.452 133.316C641.452 133.649 641.573 133.912 641.816 134.106C642.058 134.299 642.437 134.46 642.952 134.589L644.248 134.907C645.028 135.096 645.609 135.386 645.992 135.776C646.374 136.162 646.566 136.66 646.566 137.27C646.566 137.77 646.422 138.217 646.134 138.611C645.85 139.005 645.452 139.316 644.941 139.543C644.429 139.77 643.835 139.884 643.157 139.884C642.266 139.884 641.53 139.691 640.946 139.304C640.363 138.918 639.994 138.354 639.838 137.611L641.111 137.293C641.232 137.763 641.462 138.115 641.799 138.35C642.14 138.585 642.585 138.702 643.134 138.702C643.759 138.702 644.255 138.57 644.623 138.304C644.994 138.035 645.179 137.714 645.179 137.339C645.179 137.035 645.073 136.782 644.861 136.577C644.649 136.369 644.323 136.214 643.884 136.111L642.429 135.77C641.63 135.581 641.043 135.287 640.668 134.89C640.297 134.488 640.111 133.986 640.111 133.384C640.111 132.892 640.249 132.456 640.526 132.077C640.806 131.698 641.187 131.401 641.668 131.185C642.153 130.969 642.702 130.861 643.316 130.861C644.179 130.861 644.857 131.051 645.35 131.429C645.846 131.808 646.198 132.308 646.407 132.929ZM652.243 139.884C651.402 139.884 650.677 139.698 650.067 139.327C649.461 138.952 648.993 138.429 648.664 137.759C648.338 137.085 648.175 136.301 648.175 135.407C648.175 134.513 648.338 133.725 648.664 133.043C648.993 132.357 649.452 131.823 650.039 131.441C650.63 131.054 651.319 130.861 652.107 130.861C652.561 130.861 653.01 130.937 653.454 131.089C653.897 131.24 654.3 131.486 654.664 131.827C655.027 132.164 655.317 132.611 655.533 133.168C655.749 133.725 655.857 134.41 655.857 135.225V135.793H649.13V134.634H654.493C654.493 134.142 654.395 133.702 654.198 133.316C654.005 132.929 653.728 132.624 653.368 132.401C653.012 132.178 652.592 132.066 652.107 132.066C651.573 132.066 651.111 132.198 650.721 132.464C650.334 132.725 650.037 133.066 649.829 133.486C649.62 133.907 649.516 134.357 649.516 134.839V135.611C649.516 136.27 649.63 136.829 649.857 137.287C650.088 137.742 650.408 138.089 650.817 138.327C651.226 138.562 651.702 138.679 652.243 138.679C652.596 138.679 652.914 138.63 653.198 138.532C653.486 138.429 653.734 138.278 653.942 138.077C654.15 137.873 654.311 137.619 654.425 137.316L655.721 137.679C655.584 138.119 655.355 138.505 655.033 138.839C654.711 139.168 654.313 139.426 653.84 139.611C653.366 139.793 652.834 139.884 652.243 139.884ZM657.897 139.702V130.975H659.192V132.293H659.283C659.442 131.861 659.73 131.511 660.147 131.242C660.563 130.973 661.033 130.839 661.556 130.839C661.654 130.839 661.777 130.84 661.925 130.844C662.073 130.848 662.185 130.854 662.26 130.861V132.225C662.215 132.214 662.111 132.196 661.948 132.174C661.789 132.147 661.62 132.134 661.442 132.134C661.018 132.134 660.639 132.223 660.306 132.401C659.976 132.575 659.715 132.818 659.522 133.128C659.332 133.435 659.238 133.785 659.238 134.179V139.702H657.897ZM672.009 139.884C671.168 139.884 670.443 139.698 669.833 139.327C669.227 138.952 668.759 138.429 668.429 137.759C668.104 137.085 667.941 136.301 667.941 135.407C667.941 134.513 668.104 133.725 668.429 133.043C668.759 132.357 669.217 131.823 669.804 131.441C670.395 131.054 671.085 130.861 671.873 130.861C672.327 130.861 672.776 130.937 673.219 131.089C673.662 131.24 674.066 131.486 674.429 131.827C674.793 132.164 675.083 132.611 675.299 133.168C675.515 133.725 675.623 134.41 675.623 135.225V135.793H668.895V134.634H674.259C674.259 134.142 674.16 133.702 673.963 133.316C673.77 132.929 673.494 132.624 673.134 132.401C672.778 132.178 672.357 132.066 671.873 132.066C671.338 132.066 670.876 132.198 670.486 132.464C670.1 132.725 669.802 133.066 669.594 133.486C669.386 133.907 669.282 134.357 669.282 134.839V135.611C669.282 136.27 669.395 136.829 669.623 137.287C669.854 137.742 670.174 138.089 670.583 138.327C670.992 138.562 671.467 138.679 672.009 138.679C672.361 138.679 672.679 138.63 672.963 138.532C673.251 138.429 673.499 138.278 673.708 138.077C673.916 137.873 674.077 137.619 674.191 137.316L675.486 137.679C675.35 138.119 675.121 138.505 674.799 138.839C674.477 139.168 674.079 139.426 673.606 139.611C673.132 139.793 672.6 139.884 672.009 139.884ZM678.428 130.975L680.519 134.543L682.61 130.975H684.155L681.337 135.339L684.155 139.702H682.61L680.519 136.316L678.428 139.702H676.883L679.655 135.339L676.883 130.975H678.428ZM686.069 142.975V130.975H687.364V132.361H687.523C687.622 132.21 687.758 132.017 687.932 131.782C688.11 131.543 688.364 131.331 688.694 131.145C689.027 130.956 689.478 130.861 690.046 130.861C690.781 130.861 691.428 131.045 691.989 131.412C692.55 131.78 692.987 132.301 693.302 132.975C693.616 133.649 693.773 134.445 693.773 135.361C693.773 136.285 693.616 137.087 693.302 137.765C692.987 138.439 692.552 138.962 691.995 139.333C691.438 139.7 690.796 139.884 690.069 139.884C689.508 139.884 689.059 139.791 688.722 139.606C688.385 139.416 688.125 139.202 687.944 138.964C687.762 138.721 687.622 138.52 687.523 138.361H687.409V142.975H686.069ZM687.387 135.339C687.387 135.998 687.483 136.579 687.677 137.083C687.87 137.583 688.152 137.975 688.523 138.259C688.894 138.539 689.349 138.679 689.887 138.679C690.447 138.679 690.915 138.532 691.29 138.236C691.669 137.937 691.953 137.535 692.142 137.032C692.336 136.524 692.432 135.96 692.432 135.339C692.432 134.725 692.338 134.172 692.148 133.679C691.963 133.183 691.68 132.791 691.302 132.503C690.927 132.212 690.455 132.066 689.887 132.066C689.341 132.066 688.883 132.204 688.512 132.481C688.141 132.753 687.86 133.136 687.671 133.628C687.481 134.117 687.387 134.687 687.387 135.339ZM699.478 139.884C698.637 139.884 697.911 139.698 697.302 139.327C696.695 138.952 696.228 138.429 695.898 137.759C695.572 137.085 695.409 136.301 695.409 135.407C695.409 134.513 695.572 133.725 695.898 133.043C696.228 132.357 696.686 131.823 697.273 131.441C697.864 131.054 698.553 130.861 699.341 130.861C699.796 130.861 700.245 130.937 700.688 131.089C701.131 131.24 701.534 131.486 701.898 131.827C702.262 132.164 702.552 132.611 702.767 133.168C702.983 133.725 703.091 134.41 703.091 135.225V135.793H696.364V134.634H701.728C701.728 134.142 701.629 133.702 701.432 133.316C701.239 132.929 700.963 132.624 700.603 132.401C700.247 132.178 699.826 132.066 699.341 132.066C698.807 132.066 698.345 132.198 697.955 132.464C697.569 132.725 697.271 133.066 697.063 133.486C696.855 133.907 696.75 134.357 696.75 134.839V135.611C696.75 136.27 696.864 136.829 697.091 137.287C697.322 137.742 697.642 138.089 698.052 138.327C698.461 138.562 698.936 138.679 699.478 138.679C699.83 138.679 700.148 138.63 700.432 138.532C700.72 138.429 700.968 138.278 701.177 138.077C701.385 137.873 701.546 137.619 701.659 137.316L702.955 137.679C702.819 138.119 702.589 138.505 702.267 138.839C701.945 139.168 701.548 139.426 701.074 139.611C700.601 139.793 700.069 139.884 699.478 139.884ZM705.131 139.702V130.975H706.427V132.293H706.517C706.677 131.861 706.964 131.511 707.381 131.242C707.798 130.973 708.267 130.839 708.79 130.839C708.889 130.839 709.012 130.84 709.159 130.844C709.307 130.848 709.419 130.854 709.495 130.861V132.225C709.449 132.214 709.345 132.196 709.182 132.174C709.023 132.147 708.855 132.134 708.677 132.134C708.252 132.134 707.874 132.223 707.54 132.401C707.211 132.575 706.949 132.818 706.756 133.128C706.567 133.435 706.472 133.785 706.472 134.179V139.702H705.131ZM711.084 139.702V130.975H712.425V139.702H711.084ZM711.766 129.52C711.505 129.52 711.279 129.431 711.09 129.253C710.904 129.075 710.811 128.861 710.811 128.611C710.811 128.361 710.904 128.147 711.09 127.969C711.279 127.791 711.505 127.702 711.766 127.702C712.027 127.702 712.251 127.791 712.436 127.969C712.626 128.147 712.721 128.361 712.721 128.611C712.721 128.861 712.626 129.075 712.436 129.253C712.251 129.431 712.027 129.52 711.766 129.52ZM718.54 139.884C717.699 139.884 716.974 139.698 716.364 139.327C715.758 138.952 715.29 138.429 714.961 137.759C714.635 137.085 714.472 136.301 714.472 135.407C714.472 134.513 714.635 133.725 714.961 133.043C715.29 132.357 715.749 131.823 716.336 131.441C716.927 131.054 717.616 130.861 718.404 130.861C718.858 130.861 719.307 130.937 719.75 131.089C720.194 131.24 720.597 131.486 720.961 131.827C721.324 132.164 721.614 132.611 721.83 133.168C722.046 133.725 722.154 134.41 722.154 135.225V135.793H715.427V134.634H720.79C720.79 134.142 720.692 133.702 720.495 133.316C720.302 132.929 720.025 132.624 719.665 132.401C719.309 132.178 718.889 132.066 718.404 132.066C717.87 132.066 717.408 132.198 717.017 132.464C716.631 132.725 716.334 133.066 716.125 133.486C715.917 133.907 715.813 134.357 715.813 134.839V135.611C715.813 136.27 715.927 136.829 716.154 137.287C716.385 137.742 716.705 138.089 717.114 138.327C717.523 138.562 717.999 138.679 718.54 138.679C718.892 138.679 719.211 138.63 719.495 138.532C719.783 138.429 720.031 138.278 720.239 138.077C720.447 137.873 720.608 137.619 720.722 137.316L722.017 137.679C721.881 138.119 721.652 138.505 721.33 138.839C721.008 139.168 720.61 139.426 720.137 139.611C719.663 139.793 719.131 139.884 718.54 139.884ZM725.534 134.452V139.702H724.194V130.975H725.489V132.339H725.603C725.807 131.895 726.118 131.539 726.534 131.27C726.951 130.998 727.489 130.861 728.148 130.861C728.739 130.861 729.256 130.982 729.699 131.225C730.142 131.464 730.487 131.827 730.733 132.316C730.98 132.801 731.103 133.414 731.103 134.157V139.702H729.762V134.248C729.762 133.562 729.584 133.028 729.228 132.645C728.872 132.259 728.383 132.066 727.762 132.066C727.334 132.066 726.951 132.159 726.614 132.344C726.281 132.53 726.017 132.801 725.824 133.157C725.631 133.513 725.534 133.945 725.534 134.452ZM737.098 139.884C736.28 139.884 735.576 139.691 734.985 139.304C734.394 138.918 733.939 138.386 733.621 137.708C733.303 137.03 733.144 136.255 733.144 135.384C733.144 134.498 733.307 133.715 733.633 133.037C733.962 132.356 734.42 131.823 735.008 131.441C735.598 131.054 736.288 130.861 737.076 130.861C737.689 130.861 738.242 130.975 738.735 131.202C739.227 131.429 739.631 131.748 739.945 132.157C740.259 132.566 740.454 133.043 740.53 133.589H739.189C739.087 133.191 738.86 132.839 738.508 132.532C738.159 132.221 737.689 132.066 737.098 132.066C736.576 132.066 736.117 132.202 735.723 132.475C735.333 132.744 735.028 133.124 734.809 133.617C734.593 134.106 734.485 134.679 734.485 135.339C734.485 136.013 734.591 136.6 734.803 137.1C735.019 137.6 735.322 137.988 735.712 138.265C736.106 138.541 736.568 138.679 737.098 138.679C737.447 138.679 737.763 138.619 738.047 138.498C738.331 138.376 738.572 138.202 738.769 137.975C738.966 137.748 739.106 137.475 739.189 137.157H740.53C740.454 137.672 740.267 138.136 739.968 138.549C739.672 138.958 739.28 139.284 738.792 139.526C738.307 139.765 737.742 139.884 737.098 139.884ZM746.15 139.884C745.309 139.884 744.583 139.698 743.973 139.327C743.367 138.952 742.9 138.429 742.57 137.759C742.244 137.085 742.081 136.301 742.081 135.407C742.081 134.513 742.244 133.725 742.57 133.043C742.9 132.357 743.358 131.823 743.945 131.441C744.536 131.054 745.225 130.861 746.013 130.861C746.468 130.861 746.917 130.937 747.36 131.089C747.803 131.24 748.206 131.486 748.57 131.827C748.934 132.164 749.223 132.611 749.439 133.168C749.655 133.725 749.763 134.41 749.763 135.225V135.793H743.036V134.634H748.4C748.4 134.142 748.301 133.702 748.104 133.316C747.911 132.929 747.634 132.624 747.275 132.401C746.918 132.178 746.498 132.066 746.013 132.066C745.479 132.066 745.017 132.198 744.627 132.464C744.24 132.725 743.943 133.066 743.735 133.486C743.526 133.907 743.422 134.357 743.422 134.839V135.611C743.422 136.27 743.536 136.829 743.763 137.287C743.994 137.742 744.314 138.089 744.723 138.327C745.133 138.562 745.608 138.679 746.15 138.679C746.502 138.679 746.82 138.63 747.104 138.532C747.392 138.429 747.64 138.278 747.848 138.077C748.057 137.873 748.218 137.619 748.331 137.316L749.627 137.679C749.49 138.119 749.261 138.505 748.939 138.839C748.617 139.168 748.22 139.426 747.746 139.611C747.273 139.793 746.74 139.884 746.15 139.884Z" fill="#2A2C30"/>
<rect x="0.544434" y="1.20215" width="1279" height="487" rx="7.5" stroke="#BBBCC2"/>
<defs>
<filter id="filter0_d_519_7024" x="521.544" y="32.7021" width="237" height="39" filterUnits="userSpaceOnUse" color-interpolation-filters="sRGB">
<feFlood flood-opacity="0" result="BackgroundImageFix"/>
<feColorMatrix in="SourceAlpha" type="matrix" values="0 0 0 0 0 0 0 0 0 0 0 0 0 0 0 0 0 0 127 0" result="hardAlpha"/>
<feOffset dy="4"/>
<feGaussianBlur stdDeviation="3"/>
<feComposite in2="hardAlpha" operator="out"/>
<feColorMatrix type="matrix" values="0 0 0 0 0.764514 0 0 0 0 0.779945 0 0 0 0 0.841667 0 0 0 0.55 0"/>
<feBlend mode="normal" in2="BackgroundImageFix" result="effect1_dropShadow_519_7024"/>
<feBlend mode="normal" in="SourceGraphic" in2="effect1_dropShadow_519_7024" result="shape"/>
</filter>
</defs>
</svg>
