<svg width="61" height="61" viewBox="0 0 61 61" fill="none" xmlns="http://www.w3.org/2000/svg">
<rect width="60.9189" height="60.9189" rx="30.4595" fill="#333333"/>
<g clip-path="url(#clip0_425_235)">
<path d="M2.99512 30.4596C2.99512 15.2917 15.2907 2.99609 30.4586 2.99609C45.6264 2.99609 57.922 15.2917 57.922 30.4596C57.922 45.6274 45.6264 57.923 30.4586 57.923C15.2907 57.923 2.99512 45.6274 2.99512 30.4596Z" fill="#333333"/>
<path d="M24.9663 46.9378C26.4231 46.9378 27.8202 46.3591 28.8502 45.329C29.8803 44.2989 30.459 42.9018 30.459 41.4451V35.9524H24.9663C23.5096 35.9524 22.1125 36.5311 21.0824 37.5612C20.0523 38.5912 19.4736 39.9883 19.4736 41.4451C19.4736 42.9018 20.0523 44.2989 21.0824 45.329C22.1125 46.3591 23.5096 46.9378 24.9663 46.9378Z" fill="#0ACF83"/>
<path d="M19.4736 30.4592C19.4736 29.0025 20.0523 27.6054 21.0824 26.5753C22.1125 25.5452 23.5096 24.9666 24.9663 24.9666H30.459V35.9519H24.9663C24.245 35.9519 23.5308 35.8099 22.8644 35.5338C22.198 35.2578 21.5924 34.8532 21.0824 34.3432C20.5724 33.8331 20.1678 33.2276 19.8917 32.5612C19.6157 31.8948 19.4736 31.1806 19.4736 30.4592Z" fill="#A259FF"/>
<path d="M19.4736 19.4741C19.4736 18.0174 20.0523 16.6203 21.0824 15.5902C22.1125 14.5601 23.5096 13.9814 24.9663 13.9814H30.459V24.9668H24.9663C23.5096 24.9668 22.1125 24.3881 21.0824 23.3581C20.0523 22.328 19.4736 20.9309 19.4736 19.4741Z" fill="#F24E1E"/>
<path d="M30.459 13.9814H35.9517C37.4084 13.9814 38.8055 14.5601 39.8356 15.5902C40.8657 16.6203 41.4444 18.0174 41.4444 19.4741C41.4444 20.9309 40.8657 22.328 39.8356 23.3581C38.8055 24.3881 37.4084 24.9668 35.9517 24.9668H30.459V13.9814Z" fill="#FF7262"/>
<path d="M41.4444 30.4592C41.4444 31.916 40.8657 33.3131 39.8356 34.3432C38.8055 35.3732 37.4084 35.9519 35.9517 35.9519C34.4949 35.9519 33.0978 35.3732 32.0678 34.3432C31.0377 33.3131 30.459 31.916 30.459 30.4592C30.459 29.0025 31.0377 27.6054 32.0678 26.5753C33.0978 25.5452 34.4949 24.9666 35.9517 24.9666C37.4084 24.9666 38.8055 25.5452 39.8356 26.5753C40.8657 27.6054 41.4444 29.0025 41.4444 30.4592Z" fill="#1ABCFE"/>
</g>
<defs>
<clipPath id="clip0_425_235">
<rect width="54.9269" height="54.9269" fill="white" transform="translate(2.99512 2.99609)"/>
</clipPath>
</defs>
</svg>
