<svg width="62" height="62" viewBox="0 0 62 62" fill="none" xmlns="http://www.w3.org/2000/svg">
<rect x="0.513672" y="0.918945" width="60.9189" height="60.9189" rx="30.4595" fill="#333333"/>
<path fill-rule="evenodd" clip-rule="evenodd" d="M31.0017 14.0911C21.0933 14.0911 13.0576 22.1245 13.0576 32.0352C13.0576 39.3807 17.4762 45.6945 23.8004 48.469C23.7496 47.2175 23.7915 45.711 24.1107 44.348C24.4561 42.8916 26.4187 34.5719 26.4187 34.5719C26.4187 34.5719 25.8467 33.4258 25.8467 31.7316C25.8467 29.073 27.3899 27.0873 29.3083 27.0873C30.9382 27.0873 31.7277 28.3134 31.7277 29.7818C31.7277 31.4214 30.681 33.8759 30.1427 36.1479C29.6941 38.0537 31.0967 39.6043 32.9747 39.6043C36.3743 39.6043 38.6643 35.238 38.6643 30.0644C38.6643 26.1333 36.0154 23.1898 31.1984 23.1898C25.7563 23.1898 22.365 27.2473 22.365 31.7802C22.365 33.3458 22.8255 34.4471 23.547 35.3001C23.8804 35.6941 23.9246 35.8504 23.8042 36.3019C23.7197 36.6294 23.5216 37.4271 23.4393 37.7411C23.3197 38.195 22.9519 38.3595 22.5422 38.1905C20.0338 37.167 18.8668 34.4224 18.8668 31.3346C18.8668 26.2387 23.1657 20.1238 31.6903 20.1238C38.5417 20.1238 43.0507 25.0851 43.0507 30.4038C43.0507 37.4436 39.1383 42.7025 33.3673 42.7025C31.4324 42.7025 29.6096 41.6558 28.9846 40.467C28.9846 40.467 27.9424 44.6015 27.7226 45.3985C27.3428 46.7816 26.5981 48.1648 25.917 49.2414C27.5312 49.7183 29.2365 49.9778 31.0017 49.9778C40.9109 49.9778 48.9443 41.9444 48.9443 32.0352C48.9443 22.1245 40.9109 14.0911 31.0017 14.0911Z" fill="#CC2127"/>
</svg>
