<svg width="62" height="61" viewBox="0 0 62 61" fill="none" xmlns="http://www.w3.org/2000/svg">
<rect x="0.594727" width="60.9189" height="60.9189" rx="30.4595" fill="#333333"/>
<path fill-rule="evenodd" clip-rule="evenodd" d="M14.4062 13.9138H47.7022V47.0053H14.4062V13.9138Z" fill="#D573F7"/>
<path fill-rule="evenodd" clip-rule="evenodd" d="M17.1973 16.6873H44.9123V44.2323H17.1973V16.6873Z" fill="#252653"/>
<path fill-rule="evenodd" clip-rule="evenodd" d="M22.0566 22.8295V38.0833L25.0923 38.0876V33.277C26.1272 33.277 27.2051 33.2727 28.0721 33.0812C29.2124 32.8273 30.017 32.311 30.7313 31.5601C31.48 30.7748 32.0609 29.6927 32.0609 28.0769C32.0609 24.342 29.6255 22.5713 25.8045 22.7004L22.0566 22.8295ZM25.0923 30.8652L25.0966 25.1638C26.366 25.138 27.4719 25.1531 28.199 25.7985C28.7692 26.3041 28.98 26.8549 28.9585 28.1415C28.9176 30.6328 27.2481 30.8652 25.0923 30.8652ZM33.5712 29.5012L33.5777 38.2103L36.6091 38.2253L36.6177 30.7383L36.6091 30.4069C37.7042 29.4474 38.4163 29.1311 39.9223 29.1655C40.0428 29.1698 40.0815 29.1698 40.0815 29.0171V26.8162C40.0901 26.4267 40.0041 26.3235 39.5587 26.3385C38.3647 26.3773 38.0204 26.4741 37.19 27.1754C37.0136 27.3261 36.4908 27.9521 36.4908 27.9521C36.4908 27.1905 36.3208 26.6763 36.1099 26.5214C35.9636 26.416 35.9271 26.4246 35.7162 26.4246H35.3161L33.6358 26.4009C33.4507 26.431 33.44 26.4741 33.4443 26.6871C33.4658 27.638 33.5712 28.3071 33.5712 29.5012Z" fill="#D573F7"/>
</svg>
