<svg width="62" height="61" viewBox="0 0 62 61" fill="none" xmlns="http://www.w3.org/2000/svg">
<rect x="0.837891" width="60.9189" height="60.9189" rx="30.4595" fill="#333333"/>
<g clip-path="url(#clip0_425_249)">
<path d="M19.2807 12.4333H43.445C47.2002 12.4333 50.2728 15.5059 50.2728 19.2611V42.6064C50.2728 46.3616 47.2002 49.4341 43.445 49.4341H19.151C15.3957 49.4341 12.3232 46.3616 12.3232 42.6063V19.3908C12.3232 15.5563 15.4462 12.4333 19.2807 12.4333Z" fill="#00C8FF"/>
<path d="M19.5967 14.0146H43.1285C46.2008 14.0146 48.6913 16.5052 48.6913 19.5774V42.2901C48.6913 45.3624 46.2007 47.8529 43.1285 47.8529H19.4671C16.3948 47.8529 13.9043 45.3624 13.9043 42.2901V19.7071C13.9043 16.5447 16.4342 14.0146 19.5967 14.0146Z" fill="#001D26"/>
<path d="M37.608 28.781C36.3615 28.781 35.9876 29.4042 35.9876 29.9028C35.9876 30.4014 36.2992 30.8376 37.9351 31.7101C40.3657 32.8786 41.1758 34.016 41.1758 35.6987C41.1758 38.1916 39.3062 39.5627 36.6886 39.5627C35.5678 39.6124 34.4527 39.3765 33.448 38.8771C33.3233 38.8148 33.3233 38.7524 33.3233 38.6279V36.322C33.3233 36.1973 33.3856 36.135 33.5102 36.1973C34.4321 36.8136 35.5175 37.1392 36.6263 37.1321C37.8727 37.1321 38.3713 36.6335 38.3713 35.9636C38.3713 35.4027 37.9818 34.9041 36.4237 34.094C34.2425 33.0345 33.3077 31.975 33.3077 30.1678C33.3077 28.1735 34.8657 26.4908 37.5922 26.4908C38.5465 26.4523 39.4992 26.6005 40.3967 26.9271C40.5138 26.9702 40.5737 27.1001 40.5306 27.2172C40.5279 27.2245 40.5248 27.2317 40.5214 27.2387V29.3576C40.5214 29.4823 40.4591 29.5446 40.2721 29.4823C39.4593 29.0371 38.5502 28.7965 37.6234 28.7812H37.608V28.781ZM31.8432 27.5346C31.8432 31.5231 28.9764 33.2058 25.4241 33.2058H24.2556V39.1886C24.2696 39.2779 24.2086 39.3616 24.1193 39.3756C24.1025 39.3782 24.0854 39.3782 24.0686 39.3756H21.6069C21.5177 39.3896 21.4339 39.3286 21.42 39.2393C21.4173 39.2224 21.4173 39.2054 21.42 39.1886L21.4823 22.3618C21.4823 22.2371 21.7316 22.1749 21.8718 22.1749C22.8689 22.1125 24.3647 22.1125 25.8604 22.1125C30.1449 22.1126 31.8432 24.4808 31.8432 27.5346ZM29.0076 27.5346C29.0076 25.5403 27.7612 24.5432 25.7046 24.5432C25.2051 24.5254 24.705 24.5463 24.2088 24.6055V30.6507H25.4552C27.2782 30.6507 29.0076 30.0275 29.0076 27.5346Z" fill="white"/>
<path opacity="0.15" d="M37.608 28.781C36.3615 28.781 35.9876 29.4042 35.9876 29.9028C35.9876 30.4014 36.2992 30.8376 37.9351 31.7101C40.3657 32.8786 41.1758 34.016 41.1758 35.6987C41.1758 38.1916 39.3062 39.5627 36.6886 39.5627C35.5678 39.6124 34.4527 39.3765 33.448 38.8771C33.3233 38.8148 33.3233 38.7524 33.3233 38.6279V36.322C33.3233 36.1973 33.3856 36.135 33.5102 36.1973C34.4321 36.8136 35.5175 37.1392 36.6263 37.1321C37.8727 37.1321 38.3713 36.6335 38.3713 35.9636C38.3713 35.4027 37.9818 34.9041 36.4237 34.094C34.2425 33.0345 33.3077 31.975 33.3077 30.1678C33.3077 28.1735 34.8657 26.4908 37.5922 26.4908C38.5465 26.4523 39.4992 26.6005 40.3967 26.9271C40.5138 26.9702 40.5737 27.1001 40.5306 27.2172C40.5279 27.2245 40.5248 27.2317 40.5214 27.2387V29.3576C40.5214 29.4823 40.4591 29.5446 40.2721 29.4823C39.4593 29.0371 38.5502 28.7965 37.6234 28.7812H37.608V28.781ZM31.8432 27.5346C31.8432 31.5231 28.9764 33.2058 25.4241 33.2058H24.2556V39.1886C24.2696 39.2779 24.2086 39.3616 24.1193 39.3756C24.1025 39.3782 24.0854 39.3782 24.0686 39.3756H21.6069C21.5177 39.3896 21.4339 39.3286 21.42 39.2393C21.4173 39.2224 21.4173 39.2054 21.42 39.1886L21.4823 22.3618C21.4823 22.2371 21.7316 22.1749 21.8718 22.1749C22.8689 22.1125 24.3647 22.1125 25.8604 22.1125C30.1449 22.1126 31.8432 24.4808 31.8432 27.5346ZM29.0076 27.5346C29.0076 25.5403 27.7612 24.5432 25.7046 24.5432C25.2051 24.5254 24.705 24.5463 24.2088 24.6055V30.6507H25.4552C27.2782 30.6507 29.0076 30.0275 29.0076 27.5346Z" fill="#00C8FF"/>
</g>
<defs>
<clipPath id="clip0_425_249">
<rect width="37.9495" height="37.9495" fill="white" transform="translate(12.3223 11.4849)"/>
</clipPath>
</defs>
</svg>
