<svg width="62" height="62" viewBox="0 0 62 62" fill="none" xmlns="http://www.w3.org/2000/svg">
<rect x="0.675781" y="0.918945" width="60.9189" height="60.9189" rx="30.4595" fill="#333333"/>
<path d="M42.204 29.7975V26.6351H29.5541V20.3102H26.3917V26.6351H20.0668V29.7975H26.3917V42.4474H29.5541V29.7975H42.204ZM42.204 17.1477C42.9946 17.1477 43.7852 17.464 44.4019 18.1123C45.0502 18.7289 45.3664 19.5195 45.3664 20.3102V42.4474C45.3664 43.238 45.0502 44.0286 44.4019 44.6453C43.7852 45.2936 42.9946 45.6098 42.204 45.6098H20.0668C19.2761 45.6098 18.4855 45.2936 17.8688 44.6453C17.2205 44.0286 16.9043 43.238 16.9043 42.4474V20.3102C16.9043 19.5195 17.2205 18.7289 17.8688 18.1123C18.4855 17.464 19.2761 17.1477 20.0668 17.1477H42.204Z" fill="#2F9F49"/>
</svg>
