<svg width="62" height="61" viewBox="0 0 62 61" fill="none" xmlns="http://www.w3.org/2000/svg">
<rect x="0.675781" width="60.9189" height="60.9189" rx="30.4595" fill="#333333"/>
<path fill-rule="evenodd" clip-rule="evenodd" d="M14.4873 13.9136H47.7832V47.0051H14.4873V13.9136Z" fill="#BC85F3"/>
<path fill-rule="evenodd" clip-rule="evenodd" d="M17.2773 16.6868H44.9924V44.2318H17.2773V16.6868Z" fill="#252653"/>
<path fill-rule="evenodd" clip-rule="evenodd" d="M27.8738 34.2577L29.0334 38.0916H32.2907L27.6651 22.6614C27.6565 22.6334 27.6349 22.614 27.5898 22.614L23.7623 22.6033C23.6139 22.6033 23.6096 22.6807 23.6225 22.827C23.6698 23.3584 23.644 23.6553 23.5343 24.0706L19.4336 38.0937L22.5231 38.0894L23.4848 34.2555L27.8738 34.2577ZM27.3187 31.478H24.1474L25.6857 25.2668L27.3187 31.478ZM36.0902 33.012L42.069 33.0206C42.4456 32.5387 42.5144 31.6329 42.5036 31.0391C42.4628 28.6295 40.8664 26.3231 37.9834 26.3081C33.1427 26.2801 32.2261 32.401 33.8742 35.9315C34.3927 37.0417 35.434 37.7474 36.656 38.083C37.2132 38.2357 37.8049 38.3132 38.403 38.3153C39.5863 38.3196 40.7889 38.0335 41.7549 37.4827C41.77 37.4741 41.7958 37.4741 41.798 37.4569V37.3881L41.7958 35.3937C41.7958 35.3033 41.727 35.2517 41.6237 35.2839C40.4017 35.6518 36.2623 36.8265 36.0708 33.1239C36.0686 33.0959 36.0622 33.012 36.0902 33.012ZM39.0871 31.0133H36.0428C36.0579 29.3954 36.8001 28.4767 37.9469 28.4724C38.9882 28.4681 39.6508 29.191 39.6831 30.9746V31.0133H39.0871Z" fill="#BC85F3"/>
</svg>
