<svg width="62" height="62" viewBox="0 0 62 62" fill="none" xmlns="http://www.w3.org/2000/svg">
<rect x="0.837891" y="0.918945" width="60.9189" height="60.9189" rx="30.4595" fill="#333333"/>
<g clip-path="url(#clip0_425_293)">
<path d="M13.5466 32.4459C23.2838 42.2527 18.0784 37.0046 31.3307 50.3533C46.8473 34.7276 45.4147 36.1476 43.9836 37.5643C42.8483 38.6886 41.7162 39.8144 49.0404 32.438C49.6271 31.8529 49.6271 30.9042 49.0404 30.3176C43.6943 24.9287 36.6151 17.7262 31.3307 12.4038C19.1931 24.6267 13.5466 30.3191 13.5466 30.3191C12.9663 30.9042 12.9663 31.8529 13.5466 32.4459ZM31.3275 25.7684L36.9029 31.3786L31.3291 36.9888L25.7537 31.3786L31.3275 25.7684Z" fill="#2580F8"/>
<path d="M31.2961 25.8015L25.7539 31.3785L31.2961 36.9555V25.8015Z" fill="#DEDEDE"/>
<path d="M31.2966 12.4385C19.1828 24.6377 13.5473 30.319 13.5473 30.319C12.9686 30.9041 12.9686 31.8528 13.5473 32.4458C23.2766 42.2447 18.087 37.0139 31.2966 50.3184V36.9554L25.7544 31.3784L31.2966 25.8014V12.4385Z" fill="#206FD8"/>
</g>
<defs>
<clipPath id="clip0_425_293">
<rect width="37.9495" height="37.9495" fill="white" transform="translate(12.3223 12.4038)"/>
</clipPath>
</defs>
</svg>
