<svg width="62" height="61" viewBox="0 0 62 61" fill="none" xmlns="http://www.w3.org/2000/svg">
<rect x="0.756836" width="60.9189" height="60.9189" rx="30.4595" fill="#333333"/>
<path d="M42.7793 13.2637H19.6538C16.2153 13.2637 13.4277 16.0512 13.4277 19.4898V41.4293C13.4277 44.8679 16.2153 47.6554 19.6538 47.6554H42.7793C46.2179 47.6554 49.0054 44.8679 49.0054 41.4293V19.4898C49.0054 16.0512 46.2179 13.2637 42.7793 13.2637Z" fill="#330000"/>
<path d="M31.3338 34.6103H26.0283L24.6585 38.5653C24.6427 38.6958 24.5602 38.761 24.411 38.761H21.9205C21.7545 38.761 21.6967 38.6795 21.7471 38.5164L26.553 24.2423C26.6888 23.8077 26.7558 23.3546 26.7517 22.8993C26.749 22.8792 26.751 22.8587 26.7575 22.8395C26.764 22.8203 26.7748 22.8029 26.7892 22.7885C26.8035 22.7742 26.821 22.7633 26.8402 22.7568C26.8594 22.7503 26.8798 22.7484 26.8999 22.751H30.3865C30.4873 22.751 30.5452 22.7925 30.5615 22.8726L35.9396 38.5416C35.99 38.6898 35.9485 38.761 35.8151 38.761H33.0267C32.9751 38.7641 32.9238 38.7516 32.8794 38.7252C32.835 38.6987 32.7995 38.6596 32.7777 38.6127L31.3338 34.6103ZM26.6212 31.9419H30.7542C30.6549 31.724 28.7959 25.7262 28.6625 25.2207H28.6388L26.6212 31.9419ZM38.9118 25.7158C38.6781 25.7258 38.4447 25.6889 38.2255 25.6071C38.0063 25.5254 37.8056 25.4006 37.6355 25.24C37.469 25.0707 37.3395 24.8686 37.2553 24.6466C37.1711 24.4246 37.1339 24.1874 37.1463 23.9503C37.1353 23.7102 37.1742 23.4703 37.2607 23.246C37.3472 23.0217 37.4794 22.8178 37.6488 22.6473C37.8204 22.484 38.0229 22.3566 38.2443 22.2726C38.4658 22.1886 38.7018 22.1497 38.9385 22.1581C39.1757 22.1457 39.4128 22.1828 39.6348 22.2671C39.8568 22.3513 40.0589 22.4808 40.2282 22.6473C40.3903 22.8219 40.5158 23.027 40.5976 23.2508C40.6793 23.4746 40.7155 23.7124 40.7041 23.9503C40.7164 24.1874 40.6793 24.4246 40.5951 24.6466C40.5109 24.8686 40.3814 25.0707 40.2149 25.24C40.0403 25.4021 39.8351 25.5276 39.6113 25.6093C39.3876 25.691 39.1498 25.7273 38.9118 25.7158ZM37.4428 38.5386V27.1004C37.4388 27.0734 37.4412 27.0458 37.4497 27.0199C37.4583 26.994 37.4728 26.9704 37.4921 26.9511C37.5114 26.9318 37.535 26.9173 37.5609 26.9087C37.5868 26.9002 37.6144 26.8978 37.6414 26.9018H40.2089C40.2359 26.8981 40.2633 26.9007 40.2891 26.9094C40.3149 26.9181 40.3383 26.9326 40.3575 26.9518C40.3768 26.971 40.3913 26.9945 40.4 27.0202C40.4087 27.046 40.4113 27.0735 40.4076 27.1004V38.5623C40.4116 38.5894 40.4092 38.6169 40.4006 38.6428C40.3921 38.6688 40.3775 38.6923 40.3582 38.7116C40.3389 38.7309 40.3154 38.7455 40.2894 38.754C40.2635 38.7626 40.236 38.765 40.2089 38.761H37.6651C37.635 38.7652 37.6042 38.7623 37.5753 38.7526C37.5464 38.7429 37.5202 38.7267 37.4987 38.7051C37.4771 38.6836 37.4609 38.6573 37.4512 38.6284C37.4415 38.5995 37.4386 38.5688 37.4428 38.5386Z" fill="#FF9A00"/>
</svg>
