<svg width="62" height="62" viewBox="0 0 62 62" fill="none" xmlns="http://www.w3.org/2000/svg">
<rect x="0.918945" y="0.918945" width="60.9189" height="60.9189" rx="30.4595" fill="#333333"/>
<g clip-path="url(#clip0_425_285)">
<path d="M25.0511 36.8796L24.7505 42.8428L19.2104 47.052L13.4023 36.8133L25.5223 15.7048L31.1968 19.5999L31.3839 25.9136L31.3303 25.9445L25.0511 36.8796Z" fill="#28B446"/>
<path d="M25.5215 15.7048L28.9704 30.053L31.3831 25.9136L31.196 17.6024L25.5215 15.7048Z" fill="#219B38"/>
<path d="M37.2328 15.7048L49.3537 36.8133L42.8175 40.1191L37.6414 36.8451V36.8133L31.3831 25.9136L25.5215 15.7048H37.2328Z" fill="#FFD837"/>
<path d="M49.3541 36.8135L43.5497 46.9859L19.21 47.0522L25.0506 36.8798L37.6418 36.8452L49.3541 36.8135Z" fill="#518EF8"/>
<path d="M19.21 47.052L29.3943 36.8677L25.0506 36.8796L19.21 47.052Z" fill="#3A5BBC"/>
<path d="M49.3537 36.8132L36.0654 34.0684L37.6414 36.8449L49.3537 36.8132Z" fill="#FBBB00"/>
</g>
<defs>
<clipPath id="clip0_425_285">
<rect width="35.9522" height="35.9522" fill="white" transform="translate(13.4023 13.4023)"/>
</clipPath>
</defs>
</svg>
