<svg width="61" height="62" viewBox="0 0 61 62" fill="none" xmlns="http://www.w3.org/2000/svg">
<rect y="0.918945" width="60.9189" height="60.9189" rx="30.4595" fill="#333333"/>
<path d="M32.5752 31.3933L35.6833 34.9454L39.8866 37.639L40.6266 31.4229L39.8866 25.3547L35.6241 27.7228L32.5752 31.3933Z" fill="#00832D"/>
<path d="M14.46 37.0471V42.3457C14.46 43.5593 15.4368 44.5361 16.6504 44.5361H21.9489L23.0442 40.54L21.9785 37.0471L18.3377 35.9519L14.46 37.0471Z" fill="#0066DA"/>
<path d="M21.9785 18.2209L14.46 25.7099L18.3081 26.8052L21.9489 25.7099L23.0146 22.2762L21.9785 18.2209Z" fill="#E94235"/>
<path d="M21.9785 25.71H14.46V37.047H21.9489V25.71H21.9785Z" fill="#2684FC"/>
<path d="M44.6527 21.3882L39.8573 25.3251V37.639L44.6527 41.5759C45.3631 42.1383 46.4287 41.6351 46.4287 40.7175V22.2466C46.4583 21.329 45.3927 20.7962 44.6527 21.3882ZM32.5756 31.3933V37.047H21.9785V44.536H37.6965C38.9101 44.536 39.8869 43.5592 39.8869 42.3455V37.639L32.5756 31.3933Z" fill="#00AC47"/>
<path d="M37.6965 18.2209H21.9785V25.7099H32.5756V31.3637L39.8869 25.2955V20.4114C39.8869 19.1978 38.9101 18.2209 37.6965 18.2209Z" fill="#FFBA00"/>
</svg>
