<svg width="62" height="61" viewBox="0 0 62 61" fill="none" xmlns="http://www.w3.org/2000/svg">
<rect x="0.513672" width="60.9189" height="60.9189" rx="30.4595" fill="#333333"/>
<path fill-rule="evenodd" clip-rule="evenodd" d="M14.3252 13.9141H47.619V47.0056H14.3252V13.9141Z" fill="#99C4CD"/>
<path fill-rule="evenodd" clip-rule="evenodd" d="M17.1152 16.6873H44.8281V44.2323H17.1152V16.6873Z" fill="#252653"/>
<path fill-rule="evenodd" clip-rule="evenodd" d="M33.064 29.5206L33.0705 38.2275L36.0997 38.2426L36.1105 30.7555L36.0997 30.4242C37.197 29.4647 37.9091 29.1484 39.413 29.185C39.5356 29.1871 39.5722 29.1871 39.5722 29.0365V26.8356C39.5829 26.4462 39.4969 26.3408 39.0515 26.3558C37.8575 26.3945 37.5111 26.4914 36.6828 27.1927C36.5042 27.3433 35.9835 27.9694 35.9835 27.9694C35.9835 27.2099 35.8114 26.6936 35.6006 26.5408C35.4564 26.4354 35.4199 26.4419 35.209 26.4419H34.8067L33.1286 26.4182C32.9435 26.4505 32.9306 26.4935 32.9371 26.7043C32.9586 27.6553 33.064 28.3265 33.064 29.5206ZM22.3691 22.9909V23.0404C22.3756 24.9896 22.41 35.8287 22.4165 37.8833V37.9672C22.4143 38.2663 22.6381 38.2125 22.7327 38.2103L30.6544 38.1888C30.9728 38.1824 31.0481 38.0834 31.0911 37.8876L31.4978 35.8416C31.5279 35.6974 31.5279 35.5189 31.2503 35.5318H25.4651V22.9673C25.4586 22.8403 25.4844 22.6682 25.2048 22.6768L22.6273 22.7371H22.5692C22.3304 22.75 22.3756 22.8511 22.3691 22.9909Z" fill="#99C4CD"/>
</svg>
