<svg width="62" height="61" viewBox="0 0 62 61" fill="none" xmlns="http://www.w3.org/2000/svg">
<rect x="0.918945" width="60.9189" height="60.9189" rx="30.4595" fill="#333333"/>
<path fill-rule="evenodd" clip-rule="evenodd" d="M14.3281 14.429H47.624V47.5205H14.3281V14.429Z" fill="#FF2BC2"/>
<path fill-rule="evenodd" clip-rule="evenodd" d="M17.1191 17.2021H44.8342V44.7472H17.1191V17.2021Z" fill="#2E001E"/>
<path fill-rule="evenodd" clip-rule="evenodd" d="M20.7666 23.551C20.8763 23.7899 21.0399 24.0825 21.1001 24.2051C21.2679 24.5407 21.4314 24.8527 21.5971 25.184L24.2972 30.5583C24.3768 30.7154 24.5252 30.8918 24.4499 31.0618L20.6612 38.295C20.5708 38.4735 20.3708 38.6822 20.7343 38.6822H22.9805C23.2989 38.6822 23.3032 38.5144 23.5054 38.0841L26.0764 32.6969C26.2528 32.8518 28.3527 37.4107 28.8604 38.452C28.9486 38.6327 28.9701 38.6822 29.2283 38.6822C29.5919 38.6822 31.5906 38.7253 31.7821 38.6435C31.8229 38.4327 31.4594 37.8518 31.3518 37.6474L30.3535 35.7326C29.5639 34.2137 28.6603 32.3699 27.86 30.9262C27.6965 30.6315 27.7588 30.6465 28.1267 29.9645C28.3053 29.6332 28.4538 29.3299 28.6323 28.9985C28.7958 28.6909 28.9615 28.3746 29.125 28.054L30.6267 25.1646C30.7666 24.9 31.4314 23.7189 31.5433 23.3251C31.5798 23.1939 31.3625 23.2025 31.2076 23.2025L29.224 23.2047H29.1917C28.9744 23.2047 28.9421 23.2477 28.8647 23.4047L26.9155 27.5635C26.8208 27.7743 26.3023 28.9899 26.2077 29.0652C26.0033 28.5596 25.7537 28.0712 25.5321 27.5678L24.1078 24.5687C23.9787 24.3234 23.8798 24.0738 23.7571 23.8307C23.6904 23.6973 23.6324 23.5855 23.5743 23.4542C23.4925 23.2714 23.5033 23.2047 23.2602 23.2047L20.9861 23.2068C20.6483 23.209 20.6139 23.2197 20.7666 23.551Z" fill="#FF3BC1"/>
<path fill-rule="evenodd" clip-rule="evenodd" d="M34.9034 33.1379C34.9034 32.1998 35.0003 31.3091 35.5252 30.5217C35.6349 30.3539 35.82 30.1065 35.9447 29.9924C36.5859 29.4137 37.6595 28.9791 38.804 29.3513L38.8083 36.4769C36.5687 37.1223 34.9034 35.7411 34.9034 33.1379ZM38.8083 27.0837L37.8961 27.0665C36.147 27.0665 34.684 27.9098 33.8901 28.7446C33.0726 29.6052 32.3066 31.1499 32.3066 32.856C32.3066 34.7235 32.6509 36.0832 33.6599 37.2665C34.3742 38.1077 35.764 38.8758 37.44 38.8758C38.3157 38.8758 38.9525 38.8285 39.8088 38.5982C40.2261 38.4842 41.1728 38.1766 41.4224 37.9636C41.4525 37.8044 41.3879 37.3439 41.3793 37.1396C41.3492 36.2919 41.3686 35.1602 41.3707 34.2953L41.3729 23.4843C41.375 23.2691 41.3858 23.2046 41.1599 23.2046H39.0192C38.7223 23.2046 38.8083 23.3875 38.8083 24.0135V27.0837Z" fill="#FE31C0"/>
</svg>
