<svg width="62" height="62" viewBox="0 0 62 62" fill="none" xmlns="http://www.w3.org/2000/svg">
<rect x="0.756836" y="0.918945" width="60.9189" height="60.9189" rx="30.4595" fill="#333333"/>
<g clip-path="url(#clip0_425_298)">
<path d="M34.1501 13.9016H20.621C19.9924 13.9172 19.394 14.1735 18.9496 14.6176C18.5053 15.0617 18.2492 15.6594 18.2344 16.2868V46.473C18.2492 47.101 18.5057 47.6991 18.9507 48.1432C19.3956 48.5874 19.9947 48.8434 20.6238 48.8582H41.3111C41.9401 48.8434 42.5393 48.5874 42.9842 48.1432C43.4291 47.6991 43.6856 47.101 43.7005 46.473V23.4368L38.1306 19.4617L34.1501 13.9016Z" fill="#4285F4"/>
<path d="M24.5996 39.3217H37.3327V37.7334H24.5996V39.3217ZM24.5996 42.4997H34.1485V40.9113H24.5996V42.4997ZM24.5996 31.378V32.9664H37.3327V31.3777L24.5996 31.378ZM24.5996 36.144H37.3327V34.5557H24.5996V36.144Z" fill="#F1F1F1"/>
<path d="M34.1504 13.9016V21.0513C34.1656 21.6784 34.422 22.2755 34.8663 22.7191C35.3106 23.1626 35.9088 23.4185 36.537 23.4337H43.6992L34.1504 13.9016Z" fill="#A1C2FA"/>
</g>
<defs>
<clipPath id="clip0_425_298">
<rect width="25.4661" height="34.9535" fill="white" transform="translate(18.2344 13.9016)"/>
</clipPath>
</defs>
</svg>
