<svg width="62" height="62" viewBox="0 0 62 62" fill="none" xmlns="http://www.w3.org/2000/svg">
<rect x="0.594727" y="0.918945" width="60.9189" height="60.9189" rx="30.4595" fill="#333333"/>
<g clip-path="url(#clip0_425_306)">
<path d="M29.4908 21.9858C30.2071 22.9701 30.5653 24.1441 30.5653 25.5174C30.5653 26.9287 30.2071 28.0672 29.4813 28.9258C29.0734 29.4025 28.478 29.8437 27.6906 30.2398C28.886 30.6715 29.7873 31.3522 30.4016 32.2819C31.0088 33.2117 31.3148 34.3431 31.3148 35.6713C31.3148 37.0422 30.9661 38.2732 30.2688 39.3595C29.8276 40.0782 29.2726 40.6878 28.6085 41.1787C27.8236 41.7598 26.9182 42.157 25.9591 42.3409C24.9392 42.5497 23.8363 42.6516 22.6457 42.6516H12.0791V19.519H23.4118C26.2722 19.5617 28.2954 20.3824 29.4908 21.9858ZM16.754 23.5369V28.6412H22.4559C23.4711 28.6412 24.2988 28.449 24.9369 28.0672C25.5702 27.6853 25.8903 27.007 25.8903 26.0369C25.8903 24.9553 25.4705 24.2461 24.6309 23.8975C23.9051 23.6579 22.9801 23.5369 21.8582 23.5369H16.754ZM16.754 32.4693V38.6385H22.4488C23.4663 38.6385 24.2609 38.5033 24.8254 38.2305C25.8548 37.7229 26.3671 36.7647 26.3671 35.3416C26.3671 34.1343 25.8714 33.3089 24.8752 32.8583C24.3154 32.6093 23.5327 32.4764 22.5271 32.4693H16.754ZM45.4913 25.8946C46.7033 26.4282 47.6995 27.2726 48.4845 28.4253C49.2008 29.4428 49.661 30.6216 49.8697 31.9617C49.993 32.7444 50.0405 33.8806 50.0215 35.3582H37.3867C37.4626 37.0731 38.0603 38.278 39.2035 38.9658C39.8961 39.3951 40.7262 39.6109 41.7058 39.6109C42.7352 39.6109 43.5748 39.35 44.22 38.8282C44.5757 38.5436 44.8864 38.1523 45.1545 37.6518H49.7843C49.661 38.6646 49.0988 39.6963 48.105 40.7447C46.5515 42.405 44.3765 43.2375 41.5801 43.2375C39.2699 43.2375 37.2349 42.5378 35.4726 41.1337C33.7032 39.7319 32.8232 37.4478 32.8232 34.2861C32.8232 31.3213 33.6202 29.0467 35.2117 27.4647C36.8079 25.8874 38.8715 25.0929 41.4117 25.0929C42.9249 25.0905 44.284 25.3585 45.4913 25.8946ZM38.7102 29.7583C38.0698 30.4106 37.6666 31.2929 37.5005 32.4053H45.3158C45.2327 31.217 44.8272 30.318 44.1085 29.699C43.3803 29.0847 42.4861 28.7787 41.4164 28.7787C40.2566 28.7811 39.3506 29.1084 38.7102 29.7583ZM36.3288 23.4777H46.3783V20.5982H36.3288V23.4777Z" fill="#1976D2"/>
</g>
<defs>
<clipPath id="clip0_425_306">
<rect width="37.9495" height="37.9495" fill="white" transform="translate(12.0791 12.4038)"/>
</clipPath>
</defs>
</svg>
