<svg width="62" height="61" viewBox="0 0 62 61" fill="none" xmlns="http://www.w3.org/2000/svg">
<rect x="0.805664" width="60.5933" height="60.5933" rx="30.2967" fill="#333333"/>
<path d="M31.3043 33.4815C30.7369 33.7422 30.1153 34.0819 28.8708 34.7649C28.399 35.0303 27.9059 35.2957 27.4471 35.5458C27.4152 35.5139 27.3822 35.4738 27.3503 35.4408C24.8886 32.8103 20.3354 30.9525 20.5288 27.4196C20.6008 26.1327 21.0431 22.7544 29.2731 18.6518C36.0462 15.3136 41.4357 16.2384 42.3664 18.2897C43.7041 21.2138 39.4776 26.6553 32.4827 27.4444C31.7085 27.6014 30.909 27.5825 30.1431 27.3889C29.3773 27.1953 28.6647 26.8321 28.0581 26.3262C27.6877 25.9239 27.6323 25.9003 27.4954 25.9805C27.2701 26.0985 27.4152 26.463 27.4954 26.6718C27.7623 27.1549 28.1232 27.5796 28.557 27.9207C28.9908 28.2619 29.4886 28.5127 30.0209 28.6582C32.7736 29.2532 35.6436 28.9689 38.2261 27.8455C42.4655 26.2047 45.7754 21.6432 44.8058 17.819C43.8327 13.9417 37.3969 12.663 31.3078 14.8264C27.4946 16.1114 23.9715 18.1343 20.9393 20.7798C17.5846 23.9174 17.0538 26.6446 17.2708 27.7865C18.0517 31.8407 23.6406 34.4794 25.8818 36.434C25.7638 36.4989 25.6647 36.552 25.5762 36.6027C24.458 37.1583 20.195 39.3865 19.1322 41.7433C17.9255 44.4139 19.3256 46.3283 20.2504 46.5855C21.6441 46.9193 23.1072 46.8096 24.4355 46.2716C25.7638 45.7336 26.8909 44.7942 27.6594 43.5846C28.312 42.5816 28.7128 41.4358 28.8276 40.2447C28.9424 39.0535 28.7678 37.8523 28.3188 36.7431C28.5837 36.5317 28.8663 36.3435 29.1634 36.1804C29.7343 35.843 30.2781 35.5104 30.7605 35.2532C32.4124 34.4795 34.2151 34.0811 36.0392 34.0866C39.8681 34.5372 40.6242 36.9259 40.4791 37.9321C40.4112 38.2891 40.2677 38.6274 40.0581 38.9242C39.8485 39.2211 39.5778 39.4696 39.2641 39.6531C38.9987 39.8218 38.9103 39.8784 38.9338 39.9987C38.9657 40.1756 39.0943 40.1674 39.3196 40.1355C39.8948 39.9537 40.4017 39.6021 40.7735 39.127C41.1452 38.6518 41.3646 38.0753 41.4027 37.4732C41.5207 35.114 39.2712 32.526 35.2889 32.5496C34.0965 32.5517 32.916 32.7869 31.8139 33.242C31.6369 33.3152 31.4651 33.3938 31.2984 33.478L31.3043 33.4815ZM25.6128 42.7283C24.3412 44.1119 22.5718 44.6345 21.8075 44.1921C20.9818 43.7203 21.3085 41.6737 22.8691 40.2098C23.7934 39.3771 24.7924 38.6312 25.8534 37.9816C26.0386 37.8637 26.3123 37.708 26.6414 37.5098L26.7299 37.4614L26.9233 37.3435C27.2017 38.2766 27.227 39.267 26.9967 40.2132C26.7664 41.1594 26.2888 42.0273 25.6128 42.7283Z" fill="#CD6799"/>
</svg>
