<svg width="61" height="62" viewBox="0 0 61 62" fill="none" xmlns="http://www.w3.org/2000/svg">
<rect x="0.212891" y="0.593262" width="60.5933" height="60.5933" rx="30.2967" fill="#333333"/>
<g clip-path="url(#clip0_425_1080)">
<path d="M39.3004 40.1802C39.5319 38.2537 39.4626 37.9709 40.8975 38.2832L41.2617 38.315C42.3652 38.3652 43.8087 38.1375 44.6569 37.7435C46.4826 36.8963 47.5648 35.4823 45.7651 35.8535C41.659 36.7008 41.3767 35.3103 41.3767 35.3103C45.7126 28.8772 47.525 20.7106 45.9603 18.7115C41.6932 13.2592 34.3069 15.8375 34.1833 15.9041L34.1438 15.9115C33.3326 15.7431 32.4246 15.6425 31.4045 15.626C29.5464 15.5954 28.1365 16.1132 27.0669 16.9242C27.0669 16.9242 13.8901 11.4954 14.5032 23.7513C14.6335 26.3585 18.2401 43.4792 22.542 38.3079C24.1144 36.4171 25.6337 34.8181 25.6337 34.8181C26.3881 35.3192 27.2916 35.5751 28.2388 35.4831L28.3123 35.4206C28.2893 35.6554 28.2993 35.8851 28.3415 36.157C27.2335 37.3952 27.5591 37.6126 25.3435 38.0685C23.1017 38.5303 24.4187 39.3528 25.2784 39.5677C26.3208 39.8284 28.7322 40.1976 30.3618 37.9169L30.2969 38.177C30.7316 38.525 30.7024 40.6768 30.7637 42.2141C30.8254 43.7517 30.9283 45.1864 31.2418 46.0324C31.5552 46.8782 31.925 49.0569 34.8368 48.4329C37.2703 47.9127 39.1308 47.1622 39.3004 40.1802Z" fill="black"/>
<path d="M33.8892 49.9541C32.6014 49.9541 31.7627 49.456 31.2535 48.9751C30.4847 48.2496 30.1797 47.3151 29.9975 46.7569L29.9188 46.5239C29.5519 45.5336 29.4275 44.1078 29.3537 42.2718C29.3425 41.9961 29.3349 41.7121 29.3263 41.411C29.3201 41.1907 29.3125 40.9144 29.3012 40.6254C28.8373 40.8466 28.3448 41.0022 27.838 41.0878C26.93 41.2429 25.9539 41.1928 24.9362 40.9383C24.2181 40.7587 23.472 40.3865 23.0468 39.8118C21.8074 40.8973 20.6251 40.7501 19.9811 40.5351C18.8448 40.1562 17.828 39.0913 16.8723 37.2804C16.1914 35.9902 15.5329 34.3093 14.9148 32.284C13.8384 28.757 13.1545 25.0422 13.0938 23.8225C12.9027 20.0051 13.9304 17.2749 16.1477 15.7087C19.6455 13.2381 24.945 14.6911 26.8772 15.3507C28.1753 14.5684 29.7026 14.1877 31.4283 14.2151C32.3552 14.2301 33.2378 14.3115 34.0576 14.4578C34.9128 14.1888 36.602 13.8028 38.5356 13.827C42.0983 13.8695 45.0505 15.2578 47.0726 17.842C48.5158 19.6857 47.8021 23.5574 47.2486 25.7013C46.4695 28.7169 45.1044 31.9242 43.4276 34.7163C43.883 34.7195 44.5426 34.6649 45.4804 34.4712C47.3306 34.0893 47.8717 35.0813 48.0186 35.5254C48.6069 37.3072 46.0496 38.6537 45.2519 39.0241C44.2298 39.4986 42.5633 39.7876 41.1985 39.7251L41.139 39.7212L40.7804 39.6897L40.745 39.9887L40.7108 40.2809C40.6191 43.8194 40.1136 46.0603 39.0735 47.541C37.9833 49.0933 36.4681 49.5283 35.1334 49.8143C34.6781 49.9116 34.2643 49.9541 33.8892 49.9541ZM31.1791 37.0757C32.0105 37.741 32.0833 38.9928 32.1485 41.3322C32.1567 41.6242 32.1644 41.9005 32.1747 42.1585C32.206 42.94 32.2794 44.7698 32.566 45.5431C32.6064 45.6525 32.6427 45.7633 32.681 45.881C33.0004 46.8589 33.1605 47.3493 34.5415 47.0541C35.7008 46.8055 36.2968 46.5826 36.7633 45.9185C37.4413 44.953 37.8205 43.0108 37.8901 40.1459L39.3006 40.1801L37.8998 40.012L37.9411 39.6622C38.0753 38.5092 38.172 37.6764 38.9426 37.1256C39.561 36.6838 40.2655 36.7266 40.8267 36.8277C40.21 36.3618 40.0396 35.8153 39.9942 35.5912L39.8765 35.0117L40.2071 34.5213C42.1112 31.6962 43.6813 28.2241 44.5152 24.995C45.3722 21.6771 45.1109 19.9151 44.8496 19.5819C41.3908 15.1623 35.3929 16.9871 34.7666 17.1941L34.6607 17.2513L34.1299 17.3501L33.858 17.2938C33.1084 17.1381 32.2756 17.052 31.3829 17.0375C29.9804 17.014 28.8489 17.3454 27.9211 18.0493L27.2774 18.5374L26.5304 18.2298C24.9344 17.5772 20.2468 16.2652 17.7732 18.0172C16.4001 18.9898 15.7747 20.8954 15.9139 23.6813C15.9599 24.601 16.5848 28.0829 17.6157 31.4597C19.0403 36.1264 20.3349 37.6767 20.8755 37.8569C20.9699 37.8887 21.2146 37.6985 21.4582 37.406C22.4738 36.1885 23.5255 35.0015 24.6118 33.8466L25.4287 32.987L26.4163 33.6431C26.8144 33.9076 27.2535 34.0578 27.7044 34.0861L30.0597 32.0772L29.7185 35.5594C29.7109 35.6375 29.707 35.744 29.7377 35.9415L29.8403 36.6015L29.395 37.0993L29.3437 37.1571L30.6377 37.7543L31.1791 37.0757Z" fill="black"/>
<path d="M45.765 35.8537C41.6585 36.701 41.3763 35.3105 41.3763 35.3105C45.7122 28.8771 47.5246 20.7102 45.9605 18.7117C41.6933 13.2597 34.3065 15.838 34.1832 15.9049L34.1434 15.912C33.3322 15.7436 32.4242 15.6433 31.4035 15.6268C29.5454 15.5964 28.1361 16.114 27.0665 16.9249C27.0665 16.9249 13.8894 11.4965 14.5022 23.7521C14.6325 26.3595 18.2391 43.4803 22.541 38.309C24.1134 36.4181 25.6324 34.8192 25.6324 34.8192C26.3871 35.3203 27.2903 35.5762 28.2372 35.4842L28.311 35.4217C28.288 35.6564 28.2986 35.8862 28.3405 36.1581C27.2322 37.3963 27.5578 37.6137 25.3423 38.0696C23.1005 38.5314 24.4175 39.3538 25.2774 39.5688C26.3195 39.8295 28.7312 40.1987 30.3605 37.918L30.2953 38.1781C30.7297 38.5261 31.0346 40.4405 30.9836 42.176C30.9323 43.9115 30.8981 45.1031 31.2405 46.0338C31.5825 46.9645 31.9234 49.0583 34.8358 48.4343C37.2693 47.9129 38.5303 46.5614 38.706 44.3072C38.8305 42.7044 39.1121 42.9415 39.1301 41.5086L39.3563 40.8304C39.617 38.6579 39.3976 37.9572 40.8971 38.2831L41.2613 38.3149C42.3648 38.3651 43.8089 38.1374 44.6567 37.7434C46.4822 36.8968 47.5647 35.4824 45.765 35.8537Z" fill="#336791"/>
<path d="M34.0362 49.0846C31.6086 49.0846 30.8395 47.1622 30.5249 46.376C30.0642 45.2239 29.9649 40.7526 30.0675 37.0859C30.069 37.0241 30.0827 36.9631 30.1079 36.9066C30.1331 36.8501 30.1692 36.7992 30.2141 36.7567C30.2591 36.7142 30.312 36.681 30.3698 36.6591C30.4277 36.6371 30.4893 36.6269 30.5511 36.6288C30.6129 36.6305 30.6737 36.6443 30.7301 36.6695C30.7865 36.6947 30.8374 36.7308 30.8798 36.7757C30.9223 36.8206 30.9555 36.8734 30.9775 36.9312C30.9995 36.9889 31.01 37.0504 31.0082 37.1122C30.8899 41.3413 31.0577 45.1737 31.3986 46.0266C31.9306 47.3562 32.7375 48.5193 35.0185 48.0307C37.1839 47.5662 37.9949 46.7452 38.3561 44.6512C38.6333 43.0443 39.1815 38.4728 39.2491 37.5707C39.2536 37.5091 39.2702 37.4489 39.298 37.3937C39.3258 37.3385 39.3642 37.2893 39.4111 37.249C39.4579 37.2087 39.5123 37.178 39.571 37.1587C39.6297 37.1394 39.6917 37.1319 39.7533 37.1366C39.8777 37.1461 39.9933 37.2044 40.0747 37.299C40.156 37.3935 40.1966 37.5165 40.1874 37.6409C40.1169 38.5801 39.5714 43.1428 39.2836 44.8113C38.8571 47.2846 37.7545 48.4064 35.2158 48.9507C34.7843 49.043 34.3924 49.0843 34.0362 49.0846ZM20.8732 39.6948C20.661 39.6941 20.4503 39.6593 20.2492 39.5916C18.6724 39.0655 17.1705 36.4976 15.7851 31.9583C14.7305 28.503 14.0623 24.8964 14.0036 23.7242C13.8299 20.2491 14.7246 17.7906 16.6636 16.4172C20.4993 13.6995 26.9519 16.2875 27.2247 16.399C27.3402 16.4462 27.4323 16.5373 27.4806 16.6524C27.529 16.7675 27.5296 16.8971 27.4824 17.0126C27.4352 17.1282 27.344 17.2203 27.229 17.2686C27.1139 17.3169 26.9843 17.3176 26.8687 17.2704C26.8065 17.245 20.619 14.7661 17.2056 17.1863C15.5477 18.3618 14.7866 20.5458 14.9432 23.6773C14.9924 24.6649 15.6167 28.1848 16.6848 31.6834C17.9216 35.7359 19.3291 38.2929 20.5468 38.699C20.7379 38.7627 21.3194 38.9564 22.1507 37.9567C23.1202 36.7924 24.1259 35.6589 25.1666 34.5578C25.2537 34.4709 25.3713 34.4216 25.4943 34.4204C25.6173 34.4191 25.7358 34.4661 25.8246 34.5512C25.9134 34.6363 25.9654 34.7528 25.9694 34.8757C25.9734 34.9986 25.9291 35.1182 25.846 35.2089C25.8319 35.2236 24.4167 36.7031 22.8744 38.5586C22.1439 39.4371 21.4438 39.6948 20.8732 39.6948ZM41.3475 35.73C41.2622 35.7299 41.1786 35.7066 41.1055 35.6626C41.0324 35.6186 40.9726 35.5556 40.9326 35.4802C40.8925 35.4049 40.8737 35.3201 40.8781 35.2349C40.8826 35.1497 40.9101 35.0673 40.9577 34.9966C45.3407 28.4926 46.8792 20.634 45.5616 18.9501C43.9031 16.831 41.5613 15.7242 38.6009 15.6602C36.4089 15.6131 34.6667 16.1728 34.3818 16.2704L34.3101 16.2996C34.0238 16.3895 33.8041 16.2326 33.7212 16.0492C33.674 15.9441 33.6668 15.8254 33.7011 15.7154C33.7354 15.6054 33.8087 15.5117 33.9073 15.452C33.9209 15.4441 33.9639 15.4258 34.0338 15.4001C34.5177 15.2229 36.2865 14.6921 38.4773 14.7172C41.753 14.752 44.459 16.015 46.3021 18.3703C47.1741 19.4847 47.1762 22.0521 46.3077 25.4145C45.4224 28.8427 43.7565 32.5268 41.7377 35.5227C41.6474 35.6574 41.4988 35.73 41.3475 35.73ZM41.5717 38.7409C40.8232 38.7409 40.1523 38.6353 39.7507 38.3947C39.3378 38.1472 39.2591 37.8111 39.2488 37.6326C39.1361 35.6539 40.2278 35.3095 40.7846 35.1523C40.707 35.0349 40.5967 34.8969 40.4826 34.7545C40.1579 34.3487 39.7132 33.7931 39.3706 32.9621C39.3169 32.8323 39.1488 32.5306 38.9542 32.1812C37.8987 30.2886 35.7026 26.3502 37.1134 24.3334C37.7663 23.4001 39.0665 23.0326 40.9822 23.2376C40.4186 21.5207 37.7351 16.1501 31.3674 16.0457C29.4523 16.0138 27.8817 16.6027 26.7015 17.7944C24.0593 20.4629 24.1548 25.2912 24.1563 25.3396C24.1579 25.4014 24.1474 25.4629 24.1252 25.5206C24.1031 25.5782 24.0698 25.631 24.0273 25.6758C23.9848 25.7207 23.9338 25.7567 23.8774 25.7818C23.8209 25.807 23.7601 25.8207 23.6983 25.8224C23.6365 25.824 23.5751 25.8134 23.5174 25.7913C23.4597 25.7692 23.4069 25.7359 23.3621 25.6933C23.3173 25.6508 23.2813 25.5999 23.2561 25.5434C23.231 25.487 23.2172 25.4262 23.2156 25.3644C23.2097 25.15 23.1112 20.0831 26.033 17.1321C27.4004 15.7511 29.2005 15.0693 31.383 15.105C35.4567 15.1719 38.0789 17.243 39.5611 18.9684C41.1768 20.8489 41.9689 22.9232 42.0341 23.6157C42.0827 24.1305 41.7132 24.2335 41.6386 24.2488L41.4687 24.2526C39.5888 23.9515 38.3827 24.1606 37.884 24.8731C36.8109 26.4068 38.8884 30.1323 39.7754 31.7232C40.0019 32.129 40.1653 32.4224 40.2402 32.6035C40.5316 33.3101 40.9117 33.7848 41.2169 34.1664C41.4855 34.502 41.7182 34.7931 41.8014 35.1346C41.84 35.2024 42.3882 36.0134 45.6412 35.3419C46.4566 35.1738 46.9455 35.3174 47.0951 35.7695C47.3891 36.6586 45.7394 37.6957 44.8261 38.1198C44.0078 38.5002 42.7017 38.7409 41.5717 38.7409ZM40.1868 37.5551C40.29 37.6592 40.8064 37.8388 41.8757 37.7928C42.8264 37.7521 43.8291 37.5454 44.4307 37.2661C45.2001 36.9087 45.7138 36.5091 45.9798 36.2363L45.8323 36.2634C43.7524 36.6928 42.2812 36.6356 41.4596 36.0933C41.4044 36.0568 41.3512 36.0173 41.3004 35.975C41.2113 36.0101 41.129 36.0331 41.0703 36.0496C40.6044 36.1803 40.1225 36.3156 40.1868 37.5551ZM26.7508 40.1841C26.2341 40.1841 25.6903 40.1136 25.135 39.9747C24.5597 39.8308 23.5898 39.3976 23.6045 38.686C23.6213 37.8877 24.7823 37.6483 25.2194 37.5583C26.7983 37.2331 26.9012 37.1027 27.3945 36.4761C27.5384 36.2935 27.7174 36.0662 27.9616 35.7937C28.324 35.3879 28.7201 35.1824 29.1388 35.1824C29.4305 35.1824 29.6697 35.2811 29.8277 35.3469C30.3314 35.5557 30.7516 36.0606 30.9244 36.6642C31.0804 37.2089 31.0058 37.7332 30.7151 38.1405C29.7605 39.4772 28.3895 40.1841 26.7508 40.1841ZM24.621 38.7264C24.7629 38.8361 25.0472 38.9827 25.3636 39.0617C25.8446 39.182 26.3111 39.2431 26.7511 39.2431C28.0917 39.2431 29.168 38.6881 29.9498 37.5934C30.1129 37.3652 30.0639 37.0753 30.0203 36.9228C29.9289 36.6035 29.7018 36.313 29.4679 36.216C29.3411 36.1635 29.2359 36.1234 29.1391 36.1234C29.0872 36.1234 28.9292 36.1234 28.6632 36.4209C28.4796 36.6273 28.3032 36.84 28.1341 37.0585C27.5196 37.8388 27.2379 38.1036 25.4096 38.4802C24.9634 38.5716 24.7346 38.6648 24.621 38.7264ZM28.2391 36.556C28.1268 36.5558 28.0182 36.5154 27.9331 36.4422C27.8479 36.369 27.7917 36.2677 27.7747 36.1567C27.763 36.0786 27.7551 35.9999 27.7511 35.9211C26.5526 35.8987 25.3963 35.3844 24.5184 34.4684C23.4084 33.3104 22.9033 31.7058 23.1327 30.0665C23.3819 28.2862 23.2887 26.7147 23.2386 25.8704C23.2247 25.6357 23.2147 25.4661 23.2153 25.3488C23.2162 25.1998 23.2191 24.805 24.5391 24.1358C25.0085 23.8979 25.9498 23.4827 26.9781 23.3762C28.6818 23.2001 29.8047 23.9589 30.1409 25.513C31.0483 29.7088 30.2129 31.5646 29.6027 32.9199C29.4892 33.1723 29.3818 33.4106 29.296 33.6415L29.2202 33.845C28.8979 34.7093 28.6192 35.456 28.7048 36.0137C28.7141 36.0747 28.7114 36.1371 28.6967 36.1971C28.682 36.2571 28.6556 36.3136 28.6191 36.3634C28.5825 36.4133 28.5365 36.4554 28.4836 36.4874C28.4308 36.5194 28.3722 36.5407 28.3111 36.5501L28.2391 36.556ZM24.1592 25.4791L24.1775 25.815C24.2294 26.692 24.3261 28.324 24.0643 30.1971C23.8753 31.5492 24.2881 32.8689 25.1976 33.8173C25.9162 34.5669 26.862 34.9806 27.8339 34.9806H27.854C27.9628 34.5221 28.1436 34.0379 28.3382 33.5162L28.4134 33.3139C28.5104 33.0532 28.624 32.8008 28.7443 32.5336C29.3314 31.229 30.0625 29.605 29.2205 25.7121C29.0539 24.9409 28.6496 24.4947 27.9852 24.3476C26.6204 24.0462 24.5865 25.0727 24.1592 25.4791ZM26.9991 25.2795C26.9755 25.4458 27.3037 25.8899 27.7319 25.9492C28.1592 26.009 28.5249 25.6616 28.5482 25.4953C28.5715 25.329 28.2435 25.1456 27.8154 25.086C27.3875 25.0264 27.0218 25.1131 26.9991 25.2795ZM27.8301 26.1128L27.7101 26.1046C27.4447 26.0677 27.1763 25.9005 26.9926 25.6569C26.928 25.5714 26.8227 25.4057 26.8437 25.2576C26.8735 25.0406 27.1383 24.9105 27.5514 24.9105C27.6437 24.9105 27.7399 24.9173 27.8366 24.9309C28.0625 24.9621 28.2721 25.0273 28.427 25.1137C28.6953 25.2635 28.7151 25.4307 28.703 25.5171C28.67 25.7569 28.2887 26.1128 27.8301 26.1128ZM27.1551 25.3072C27.1684 25.4098 27.4226 25.7483 27.7534 25.794L27.8304 25.7994C28.1359 25.7994 28.3642 25.559 28.391 25.4803C28.3627 25.4266 28.1663 25.2933 27.7938 25.2414C27.7136 25.2299 27.6327 25.2241 27.5517 25.224C27.3123 25.224 27.1852 25.278 27.1551 25.3072ZM40.014 24.94C40.0373 25.1063 39.7094 25.5505 39.2815 25.61C38.8539 25.6696 38.4879 25.3225 38.4643 25.1562C38.4419 24.9899 38.7698 24.8061 39.1974 24.7469C39.625 24.687 39.9904 24.774 40.014 24.94ZM39.1827 25.695C38.771 25.695 38.4157 25.3747 38.3865 25.1668C38.3526 24.9173 38.7634 24.7277 39.1862 24.669C39.2794 24.656 39.3717 24.6496 39.4605 24.6496C39.8256 24.6496 40.0674 24.7566 40.0916 24.9294C40.1072 25.0412 40.0214 25.2137 39.8736 25.3694C39.776 25.4717 39.5711 25.649 39.2918 25.6876L39.1827 25.695ZM39.4608 24.8064C39.3794 24.8064 39.2945 24.8126 39.2084 24.8244C38.7834 24.8837 38.5298 25.0542 38.5422 25.1456C38.5563 25.2461 38.8277 25.5384 39.183 25.5384L39.2706 25.5322C39.5027 25.5 39.6769 25.3485 39.7601 25.2612C39.8907 25.124 39.9426 24.9949 39.9365 24.9509C39.9282 24.8925 39.7713 24.8064 39.4608 24.8064ZM40.6301 34.4917C40.5448 34.4918 40.4611 34.4686 40.388 34.4248C40.3149 34.3809 40.2551 34.318 40.215 34.2428C40.1749 34.1676 40.156 34.0829 40.1603 33.9977C40.1647 33.9126 40.1921 33.8302 40.2396 33.7595C41.2417 32.2629 41.0582 30.7368 40.881 29.2608C40.8052 28.6321 40.7274 27.9819 40.7474 27.3579C40.7681 26.7159 40.8498 26.1863 40.9285 25.674C41.022 25.0671 41.1104 24.4939 41.0739 23.8132C41.0705 23.7515 41.0794 23.6898 41.0999 23.6315C41.1205 23.5733 41.1523 23.5196 41.1935 23.4736C41.2348 23.4276 41.2847 23.3902 41.3404 23.3636C41.3962 23.3369 41.4566 23.3214 41.5183 23.3181C41.58 23.3148 41.6417 23.3236 41.7 23.3442C41.7583 23.3647 41.8119 23.3965 41.8579 23.4378C41.9039 23.479 41.9413 23.5289 41.9679 23.5847C41.9946 23.6404 42.0101 23.7008 42.0134 23.7625C42.0553 24.5404 41.9553 25.1892 41.8586 25.817C41.784 26.3016 41.7067 26.8026 41.6881 27.388C41.6701 27.9406 41.7406 28.5274 41.8152 29.1485C42.004 30.7179 42.2178 32.4967 41.0217 34.2829C40.9786 34.3472 40.9203 34.4 40.852 34.4364C40.7837 34.4728 40.7075 34.4918 40.6301 34.4917Z" fill="white"/>
</g>
<defs>
<clipPath id="clip0_425_1080">
<rect width="37.7467" height="37.7467" fill="white" transform="translate(11.6367 13.0166)"/>
</clipPath>
</defs>
</svg>
