<svg width="62" height="61" viewBox="0 0 62 61" fill="none" xmlns="http://www.w3.org/2000/svg">
<rect x="0.619141" width="60.5933" height="60.5933" rx="30.2967" fill="#333333"/>
<path d="M19.005 45.0858L16.3545 15.3591H45.4784L42.8243 45.0811L30.8988 48.3875L19.005 45.0858Z" fill="#E44F26"/>
<path d="M30.916 45.8606L40.5532 43.1888L42.8204 17.79H30.916V45.8606Z" fill="#F1662A"/>
<path d="M30.9162 28.8145H26.0917L25.759 25.0812H30.9162V21.4351H21.7744L21.8617 22.4141L22.757 32.4606H30.9162V28.8145ZM30.9162 38.283L30.8997 38.2878L26.8395 37.1919L26.58 34.2843H22.9198L23.4305 40.0076L30.8997 42.0813L30.9162 42.0766V38.283Z" fill="#EBEBEB"/>
<path d="M30.9033 28.8145V32.4606H35.3928L34.9705 37.1896L30.9033 38.2866V42.0801L38.3783 40.0076L38.4326 39.3919L39.289 29.7936L39.3786 28.8145H30.9033ZM30.9033 21.4351V25.0812H39.7101L39.7832 24.2625L39.9495 22.4141L40.0368 21.4351H30.9033Z" fill="white"/>
</svg>
