<svg width="62" height="62" viewBox="0 0 62 62" fill="none" xmlns="http://www.w3.org/2000/svg">
<rect x="0.585938" y="0.593262" width="60.5933" height="60.5933" rx="30.2967" fill="#333333"/>
<g clip-path="url(#clip0_425_1097)">
<path d="M31.0117 48.011L38.0037 26.5112H24.0195L31.0117 48.011Z" fill="#E24329"/>
<path d="M31.0118 48.011L24.0197 26.5112H14.2207L31.0118 48.011Z" fill="#FC6D26"/>
<path d="M14.22 26.5115L12.0953 33.0452C12.0008 33.3357 12.0008 33.6486 12.0952 33.939C12.1897 34.2295 12.3737 34.4826 12.621 34.6622L31.0111 48.0114L14.2199 26.5116L14.22 26.5115Z" fill="#FCA326"/>
<path d="M14.2207 26.5115H24.0197L19.8086 13.5622C19.5919 12.8959 18.6484 12.896 18.4319 13.5622L14.2207 26.5115Z" fill="#E24329"/>
<path d="M31.0109 48.011L38.0029 26.5112H47.802L31.0109 48.011Z" fill="#FC6D26"/>
<path d="M47.8018 26.5112L49.9266 33.045C50.021 33.3354 50.021 33.6483 49.9266 33.9388C49.8321 34.2293 49.648 34.4824 49.4007 34.6619L31.0107 48.0112L47.8018 26.5114V26.5112Z" fill="#FCA326"/>
<path d="M47.803 26.5115H38.0039L42.2151 13.5622C42.4318 12.8959 43.3753 12.896 43.5918 13.5622L47.803 26.5115Z" fill="#E24329"/>
</g>
<defs>
<clipPath id="clip0_425_1097">
<rect width="38" height="35" fill="white" transform="translate(12 13)"/>
</clipPath>
</defs>
</svg>
