<svg width="62" height="61" viewBox="0 0 62 61" fill="none" xmlns="http://www.w3.org/2000/svg">
<rect x="0.585938" width="60.5933" height="60.5933" rx="30.2967" fill="#333333"/>
<g clip-path="url(#clip0_425_1063)">
<path d="M44.373 23.6453C43.922 23.4905 43.4671 23.3472 43.0088 23.2153C43.0858 22.9008 43.1567 22.59 43.2196 22.2847C44.2523 17.2716 43.5772 13.2328 41.2711 11.9031C39.0602 10.6283 35.4443 11.9576 31.7924 15.1357C31.4325 15.4495 31.0806 15.7723 30.737 16.1039C30.507 15.8834 30.2729 15.6672 30.0349 15.4554C26.2076 12.0572 22.3713 10.625 20.0678 11.9586C17.8588 13.2373 17.2047 17.034 18.1344 21.7851C18.2269 22.2557 18.3314 22.7238 18.4477 23.189C17.9046 23.3433 17.3807 23.5075 16.8792 23.6824C12.392 25.2469 9.52637 27.6986 9.52637 30.2417C9.52637 32.8682 12.6027 35.5027 17.2764 37.1002C17.6553 37.2291 18.0373 37.3486 18.4222 37.4586C18.2972 37.9597 18.1862 38.4641 18.0894 38.9714C17.203 43.6401 17.8952 47.347 20.0982 48.6177C22.3736 49.9299 26.1927 48.5813 29.9112 45.3306C30.2128 45.0663 30.5076 44.7945 30.7956 44.5156C31.1677 44.8746 31.5497 45.2231 31.9413 45.5609C35.5434 48.6604 39.1009 49.912 41.3018 48.6379C43.575 47.3219 44.3139 43.3396 43.3547 38.4946C43.2791 38.1151 43.1944 37.7374 43.1005 37.3619C43.3687 37.2824 43.632 37.2006 43.8886 37.1155C48.7473 35.5059 51.9086 32.9033 51.9086 30.2417C51.9086 27.6893 48.9504 25.221 44.373 23.6453ZM43.3192 35.3971C43.0875 35.4737 42.8497 35.5477 42.6073 35.6198C42.0709 33.9217 41.3471 32.1161 40.4613 30.2505C41.3066 28.4293 42.0026 26.6468 42.5239 24.9598C42.9575 25.0853 43.3782 25.2176 43.7838 25.3571C47.7058 26.7074 50.0981 28.7035 50.0981 30.2417C50.0981 31.88 47.5144 34.0069 43.3192 35.3971ZM41.5786 38.8463C42.0027 40.9886 42.0632 42.9256 41.7822 44.4399C41.5299 45.8006 41.0223 46.7077 40.3945 47.0711C39.059 47.8442 36.2027 46.8393 33.1222 44.1884C32.758 43.8744 32.4026 43.5504 32.0565 43.2166C33.2508 41.9105 34.4443 40.3922 35.6091 38.7059C37.6581 38.5241 39.5937 38.2268 41.3491 37.821C41.4337 38.1609 41.5102 38.5027 41.5786 38.8463ZM23.9754 46.9375C22.6705 47.3982 21.6311 47.4114 21.0028 47.0492C19.666 46.2782 19.1102 43.3017 19.8683 39.3092C19.9584 38.8374 20.0616 38.3682 20.1777 37.9021C21.9137 38.2862 23.8353 38.5623 25.8891 38.7289C27.0618 40.379 28.2898 41.8956 29.5273 43.2237C29.2643 43.4782 28.9951 43.7262 28.7199 43.9674C27.0754 45.4048 25.4276 46.4246 23.9754 46.9375ZM17.8621 35.387C15.7955 34.6806 14.0887 33.7626 12.9189 32.7608C11.8677 31.8607 11.337 30.9668 11.337 30.2417C11.337 28.6984 13.6378 26.7299 17.4752 25.3921C17.9409 25.2298 18.4283 25.0767 18.9341 24.933C19.4645 26.6581 20.1602 28.4618 20.9997 30.2857C20.1492 32.1366 19.4436 33.9692 18.9081 35.7146C18.5568 35.614 18.208 35.5047 17.8621 35.387ZM19.9113 21.4373C19.1148 17.3668 19.6438 14.2962 20.975 13.5255C22.3928 12.7047 25.5281 13.875 28.8328 16.8093C29.0483 17.0011 29.2603 17.1968 29.4687 17.3962C28.2373 18.7185 27.0206 20.2239 25.8583 21.8642C23.865 22.049 21.9569 22.3457 20.2027 22.7432C20.0946 22.3104 19.9975 21.8749 19.9113 21.4373ZM38.1931 25.9516C37.7788 25.2359 37.3491 24.5292 36.9043 23.832C38.2565 24.0031 39.5522 24.23 40.7689 24.5075C40.4036 25.6783 39.9484 26.9023 39.4125 28.1572C39.0207 27.414 38.6142 26.6786 38.1931 25.9516ZM30.7378 18.6902C31.5729 19.595 32.4093 20.605 33.2319 21.701C31.5631 21.6222 29.8916 21.6219 28.2227 21.7C29.0462 20.6141 29.8897 19.6054 30.7378 18.6902ZM23.2347 25.9641C22.8189 26.6852 22.4199 27.4159 22.0382 28.1557C21.5111 26.9052 21.06 25.6757 20.6916 24.4883C21.9008 24.2178 23.1903 23.9966 24.534 23.8287C24.0842 24.5302 23.651 25.2423 23.2347 25.9641ZM24.5726 36.7834C23.1844 36.6285 21.8755 36.4187 20.6666 36.1555C21.0408 34.9469 21.5018 33.6912 22.0404 32.4139C22.4236 33.1542 22.8242 33.8854 23.2418 34.6069C23.6713 35.3486 24.116 36.075 24.5726 36.7834ZM30.7878 41.9206C29.9296 40.9948 29.0737 39.9706 28.2378 38.8689C29.0493 38.9007 29.8766 38.917 30.7175 38.917C31.5813 38.917 32.4353 38.8976 33.2758 38.8602C32.4505 39.9816 31.6173 41.0074 30.7878 41.9206ZM39.4295 32.3487C39.996 33.64 40.4735 34.8892 40.8526 36.077C39.6239 36.3575 38.2971 36.5833 36.8992 36.751C37.3471 36.0409 37.7809 35.3219 38.2003 34.5945C38.6266 33.8551 39.0365 33.1063 39.4295 32.3487ZM36.632 33.6899C35.99 34.8051 35.3119 35.8992 34.5988 36.9704C33.307 37.0618 32.0124 37.1073 30.7175 37.1066C29.3985 37.1066 28.1156 37.0655 26.8802 36.9854C26.1485 35.9167 25.4575 34.8207 24.8086 33.6998C24.1628 32.5848 23.5598 31.4457 23.0004 30.2849C23.5584 29.1238 24.1597 27.9842 24.8033 26.8683L24.8032 26.8685C25.4465 25.7523 26.132 24.661 26.8582 23.5969C28.1186 23.5016 29.4111 23.4519 30.7173 23.4519C32.0295 23.4519 33.3238 23.5021 34.5839 23.5981C35.3027 24.6606 35.9839 25.7482 36.626 26.8587C37.2717 27.9721 37.8811 29.1062 38.4531 30.2592C37.8869 31.424 37.2795 32.5683 36.632 33.6899ZM40.3669 13.4716C41.786 14.2901 42.338 17.5908 41.4463 21.9192C41.3894 22.1953 41.3255 22.4766 41.2559 22.7619C39.4974 22.3559 37.588 22.0541 35.589 21.8666C34.4244 20.2082 33.2177 18.7005 32.0063 17.3952C32.3238 17.0892 32.6488 16.7911 32.9811 16.5012C36.1101 13.7783 39.0345 12.7032 40.3669 13.4716ZM30.7175 26.4571C32.8076 26.4571 34.5021 28.1515 34.5021 30.2417C34.5021 32.3318 32.8076 34.0263 30.7175 34.0263C28.6273 34.0263 26.9329 32.3318 26.9329 30.2417C26.9329 28.1515 28.6273 26.4571 30.7175 26.4571Z" fill="#00D8FF"/>
</g>
<defs>
<clipPath id="clip0_425_1063">
<rect width="42.3822" height="37.7467" fill="white" transform="translate(9.52637 11.4233)"/>
</clipPath>
</defs>
</svg>
