<svg width="61" height="61" viewBox="0 0 61 61" fill="none" xmlns="http://www.w3.org/2000/svg">
<rect x="0.212891" width="60.5933" height="60.5933" rx="30.2967" fill="#333333"/>
<path d="M18.5986 45.0858L15.9492 15.3591H45.0708L42.4179 45.0811L30.4923 48.3875L18.5986 45.0858Z" fill="#1572B6"/>
<path d="M30.5098 45.8606L40.147 43.1888L42.4141 17.79H30.5098V45.8606Z" fill="#33A9DC"/>
<path d="M30.5098 28.5599H35.3343L35.6669 24.8265H30.5098V21.1804H39.6515L39.5642 22.1583L38.6689 32.206H30.5098V28.5599Z" fill="white"/>
<path d="M30.5325 38.0283L30.516 38.033L26.4559 36.936L26.1964 34.0283H22.5361L23.0469 39.7528L30.5148 41.8265L30.5325 41.8218V38.0283Z" fill="#EBEBEB"/>
<path d="M35.0244 32.0513L34.5856 36.9336L30.5195 38.0306V41.8241L37.9934 39.7528L38.0488 39.137L38.6822 32.0513H35.0244Z" fill="white"/>
<path d="M30.5232 21.1804V24.8265H21.7164L21.6433 24.0067L21.4769 22.1583L21.3896 21.1804H30.5232ZM30.5102 28.5599V32.206H26.5008L26.4276 31.3862L26.2625 29.5378L26.1752 28.5599H30.5102Z" fill="#EBEBEB"/>
</svg>
