<svg width="61" height="61" viewBox="0 0 61 61" fill="none" xmlns="http://www.w3.org/2000/svg">
<rect x="0.399414" width="60.5933" height="60.5933" rx="30.2967" fill="#333333"/>
<path d="M14.1826 13.7827H47.2109V46.811H14.1826V13.7827Z" fill="#F5DE19"/>
<path d="M36.3688 39.5861C36.6502 40.1577 37.0875 40.6381 37.6301 40.9721C38.1727 41.306 38.7986 41.4798 39.4357 41.4734C40.7215 41.4734 41.5437 40.8305 41.5437 39.9399C41.5437 38.8783 40.6991 38.4985 39.2836 37.8792L38.5074 37.5466C36.2662 36.5923 34.7799 35.3974 34.7799 32.8707C34.7799 30.5434 36.5493 28.7705 39.3249 28.7705C40.2234 28.7056 41.1211 28.9067 41.906 29.3487C42.691 29.7906 43.3284 30.4539 43.7389 31.2558L41.3125 32.807C41.1544 32.4094 40.8792 32.0692 40.5234 31.8316C40.1676 31.5939 39.748 31.4701 39.3201 31.4764C39.1335 31.4577 38.945 31.4781 38.7666 31.5363C38.5883 31.5945 38.4241 31.6892 38.2843 31.8144C38.1446 31.9396 38.0325 32.0925 37.9552 32.2634C37.8778 32.4343 37.8369 32.6194 37.835 32.807C37.835 33.7377 38.4119 34.1152 39.7436 34.6943L40.5198 35.027C43.1573 36.1582 44.6483 37.3106 44.6483 39.9022C44.6483 42.6966 42.4531 44.2277 39.5053 44.2277C38.3568 44.3009 37.2116 44.0401 36.2079 43.4769C35.2043 42.9136 34.3851 42.072 33.8492 41.0535L36.3688 39.5861ZM25.4046 39.855C25.8918 40.7196 26.3353 41.451 27.4016 41.451C28.4208 41.451 29.0648 41.0523 29.0648 39.5011V28.9474H32.1683V39.5424C32.1683 42.7556 30.281 44.2183 27.5337 44.2183C26.5627 44.2714 25.5982 44.0294 24.7673 43.5241C23.9363 43.0188 23.2776 42.2739 22.8779 41.3873L25.4046 39.855Z" fill="black"/>
</svg>
