<svg width="61" height="62" viewBox="0 0 61 62" fill="none" xmlns="http://www.w3.org/2000/svg">
<rect x="0.399414" y="0.593262" width="60.5933" height="60.5933" rx="30.2967" fill="#333333"/>
<g clip-path="url(#clip0_425_1091)">
<path d="M51.6366 27.1094C50.6412 26.4221 48.36 26.1644 46.5767 26.508C46.3695 24.7898 45.4155 23.2865 43.7565 21.9549L42.8027 21.2677L42.1389 22.2556C41.3096 23.5443 40.8948 25.3484 41.0192 27.0666C41.0606 27.6678 41.268 28.7417 41.8901 29.6867C41.3096 30.0303 40.1068 30.4598 38.5308 30.4598H8.54509L8.46221 30.8035C8.17178 32.5215 8.17178 37.8907 11.5727 42.0142C14.1441 45.1498 17.9597 46.7391 22.978 46.7391C33.8441 46.7391 41.8901 41.5415 45.6643 32.1349C47.1574 32.1779 50.3509 32.1349 51.9685 28.9133C52.0099 28.8274 52.0928 28.6556 52.3831 28.0114L52.549 27.6678L51.6366 27.1094ZM32.5169 14.9966H27.955V19.2919H32.5169V14.9966ZM32.5169 20.151H27.955V24.4463H32.5169V20.1508V20.151ZM27.1253 20.151H22.5634V24.4463H27.1253V20.1508V20.151ZM21.7337 20.151H17.1716V24.4463H21.7337V20.1508V20.151ZM16.3421 25.3054H11.78V29.6007H16.342V25.3053L16.3421 25.3054ZM21.7337 25.3054H17.1716V29.6007H21.7337V25.3054ZM27.1253 25.3054H22.5634V29.6007H27.1253V25.3054ZM32.5171 25.3054H27.9548V29.6007H32.5171V25.3054ZM37.9087 25.3054H33.3464V29.6007H37.9087V25.3054Z" fill="#2396ED"/>
</g>
<defs>
<clipPath id="clip0_425_1091">
<rect width="44.2033" height="31.7867" fill="white" transform="translate(8.3457 14.9966)"/>
</clipPath>
</defs>
</svg>
