<svg width="62" height="61" viewBox="0 0 62 61" fill="none" xmlns="http://www.w3.org/2000/svg">
<rect x="0.432617" width="60.5933" height="60.5933" rx="30.2967" fill="#333333"/>
<path d="M46.0754 17.3566L39.2739 14.0821C38.8898 13.8969 38.4576 13.8358 38.0372 13.9072C37.6168 13.9787 37.2291 14.1791 36.9277 14.4808L14.6631 34.7791C14.3929 35.0242 14.2312 35.3666 14.2135 35.7309C14.1958 36.0952 14.3236 36.4517 14.5687 36.7218C14.5982 36.7537 14.6277 36.7844 14.6595 36.8127L16.4773 38.4641C16.7148 38.6803 17.0205 38.8064 17.3414 38.8206C17.6622 38.8349 17.9779 38.7362 18.2337 38.5419L45.0515 18.2059C45.2541 18.0522 45.4955 17.9581 45.7487 17.9342C46.0018 17.9102 46.2566 17.9574 46.4844 18.0705C46.7122 18.1835 46.9039 18.3579 47.0379 18.5739C47.172 18.79 47.2431 19.0392 47.2432 19.2935V19.2145C47.2431 18.8263 47.1335 18.446 46.9269 18.1173C46.7203 17.7886 46.4252 17.525 46.0754 17.3566Z" fill="#0065A9"/>
<path d="M46.0754 43.2369L39.2739 46.5126C38.8897 46.6972 38.4576 46.7581 38.0373 46.6866C37.6171 46.6152 37.2293 46.4151 36.9277 46.1139L14.6631 25.8144C14.3929 25.5693 14.2312 25.2269 14.2135 24.8626C14.1958 24.4982 14.3236 24.1418 14.5687 23.8716C14.5982 23.8398 14.6277 23.8091 14.6595 23.7808L16.4773 22.1294C16.715 21.9123 17.0215 21.7856 17.3431 21.7714C17.6648 21.7571 17.9812 21.8563 18.2372 22.0515L45.0515 42.3876C45.2541 42.5413 45.4955 42.6354 45.7487 42.6593C46.0018 42.6832 46.2566 42.636 46.4844 42.523C46.7122 42.41 46.9039 42.2356 47.0379 42.0195C47.172 41.8035 47.2431 41.5543 47.2432 41.3V41.3849C47.2419 41.7721 47.1317 42.1511 46.9252 42.4786C46.7187 42.8061 46.4242 43.0688 46.0754 43.2369Z" fill="#007ACC"/>
<path d="M39.2738 46.5127C38.8895 46.6974 38.4575 46.7582 38.0372 46.6868C37.6169 46.6153 37.2292 46.4152 36.9276 46.114C37.097 46.2812 37.3119 46.3946 37.5455 46.4402C37.7791 46.4857 38.021 46.4613 38.2408 46.37C38.4606 46.2787 38.6485 46.1245 38.7811 45.9268C38.9136 45.7292 38.9849 45.4968 38.9859 45.2588V15.3351C38.9861 15.096 38.9154 14.8622 38.7826 14.6633C38.6498 14.4645 38.461 14.3095 38.24 14.2181C38.0191 14.1266 37.776 14.1028 37.5415 14.1496C37.307 14.1964 37.0917 14.3118 36.9229 14.4811C37.2243 14.1795 37.6119 13.9791 38.0323 13.9074C38.4526 13.8358 38.8848 13.8965 39.269 14.0812L46.0693 17.351C46.4202 17.5185 46.7166 17.7818 46.9243 18.1106C47.132 18.4393 47.2425 18.82 47.243 19.2089V41.385C47.2431 41.7736 47.1334 42.1542 46.9266 42.4831C46.7198 42.812 46.4243 43.0758 46.0741 43.2441L39.2738 46.5127Z" fill="#1F9CF0"/>
</svg>
