<svg width="62" height="62" viewBox="0 0 62 62" fill="none" xmlns="http://www.w3.org/2000/svg">
<g clip-path="url(#clip0_425_1075)">
<rect x="0.619141" y="0.593262" width="60.5933" height="60.5933" rx="30.2967" fill="#333333"/>
<path d="M6.41545 36.7723H8.10508V30.0997L10.721 35.9167C11.0294 36.6209 11.4518 36.8697 12.2806 36.8697C13.1094 36.8697 13.5158 36.6209 13.8242 35.9167L16.4401 30.0997V36.7723H18.1297V30.1108C18.1297 29.461 17.8698 29.1463 17.3335 28.9843C16.0498 28.5836 15.1885 28.9304 14.7986 29.797L12.2317 35.5379L9.74617 29.7966C9.3723 28.9304 8.49499 28.5836 7.21132 28.9838C6.67498 29.1463 6.41504 29.4605 6.41504 30.1104L6.41545 36.7723ZM19.5352 31.3406H21.2244V35.0168C21.2088 35.2163 21.2885 35.6852 22.214 35.7C22.6861 35.7074 25.8589 35.7 25.8885 35.7V31.3225H27.5819C27.5897 31.3225 27.5802 37.2921 27.5802 37.3168C27.5893 38.7893 25.7536 39.1089 24.9072 39.1335H19.5718V37.9967C19.5808 37.9967 24.9035 37.9979 24.9166 37.9963C26.0045 37.8815 25.8758 37.3411 25.8754 37.1593V36.7159H22.2843C20.6136 36.7007 19.5491 35.9715 19.5356 35.1324C19.5348 35.0555 19.5722 31.3776 19.5352 31.3406Z" fill="#F7F7FF"/>
<path d="M28.8848 36.7721H33.7431C34.3119 36.7721 34.8647 36.6532 35.3031 36.4476C36.034 36.1119 36.3914 35.657 36.3914 35.0607V33.8259C36.3914 33.3385 35.9855 32.8832 35.1892 32.5805C34.7668 32.4176 34.2465 32.3317 33.7427 32.3317H31.6952C31.0128 32.3317 30.6879 32.126 30.6069 31.6711C30.5908 31.6168 30.5908 31.5736 30.5908 31.5193V30.7502C30.5908 30.707 30.5908 30.6634 30.6069 30.6095C30.6879 30.2628 30.8668 30.1653 31.4682 30.111L31.6306 30.1004H36.4564V28.9742H31.7121C31.0297 28.9742 30.6723 29.0174 30.3474 29.1149C29.3401 29.4291 28.9008 29.9272 28.9008 30.7938V31.7793C28.9008 32.5377 29.7625 33.1876 31.2082 33.3394C31.3711 33.3496 31.5331 33.3612 31.6956 33.3612H33.4506C33.5156 33.3612 33.5806 33.3612 33.6295 33.3714C34.1659 33.4146 34.3929 33.5125 34.5558 33.7071C34.5975 33.7456 34.6307 33.7925 34.653 33.8448C34.6753 33.897 34.6863 33.9534 34.6854 34.0102V34.9961C34.6854 35.115 34.6043 35.2667 34.4419 35.3967C34.2959 35.5267 34.052 35.6134 33.727 35.6352L33.5481 35.6459H28.8848V36.7721ZM46.9331 34.8118C46.9331 35.9705 47.7944 36.6203 49.5325 36.7507C49.695 36.7614 49.8575 36.7721 50.0199 36.7721H54.4233V35.6459H49.9879C48.9966 35.6459 48.6232 35.3967 48.6232 34.8007V28.9734H46.9335L46.9331 34.8118ZM37.4699 34.8702V30.8539C37.4699 29.8338 38.1864 29.2148 39.6029 29.0195C39.7538 28.9978 39.9061 28.9869 40.0586 28.987H43.2664C43.4292 28.987 43.5757 28.9977 43.7381 29.0195C45.1546 29.2148 45.8715 29.8334 45.8715 30.8539V34.8702C45.8715 35.6986 45.5672 36.1411 44.8659 36.4299L46.5309 37.9324H44.5685L43.2219 36.7166L41.8663 36.8025H40.0586C39.7228 36.8004 39.3888 36.7529 39.0657 36.6614C37.991 36.3686 37.4699 35.8039 37.4699 34.8702ZM39.2936 34.7727C39.2936 34.827 39.3096 34.8817 39.3261 34.9467C39.4236 35.4136 39.8637 35.6739 40.5308 35.6739H42.0658L40.6558 34.4009H42.6181L43.8475 35.5114C44.0746 35.3901 44.2235 35.2058 44.2757 34.9685C44.2917 34.9142 44.2917 34.8599 44.2917 34.8057V30.9526C44.2917 30.9094 44.2917 30.8547 44.2757 30.8004C44.1778 30.3661 43.7381 30.1168 43.087 30.1168H40.5304C39.7818 30.1168 39.2932 30.4426 39.2932 30.9526L39.2936 34.7727Z" fill="#F7F7FF"/>
<path d="M55.9096 27.1042C54.8711 27.0758 54.0777 27.1724 53.399 27.4583C53.2061 27.5397 52.8989 27.5418 52.8676 27.7832C52.9733 27.8947 52.9898 28.0604 53.0741 28.197C53.2361 28.459 53.5097 28.8102 53.7536 28.9941C54.0197 29.1952 54.2944 29.4107 54.5807 29.5851C55.0886 29.8953 55.6562 30.0721 56.1461 30.3822C56.4344 30.5657 56.7207 30.796 57.0024 31.0029C57.1419 31.1045 57.2348 31.2637 57.4162 31.3274V31.2982C57.3212 31.1773 57.2965 31.0111 57.2093 30.8844L56.8252 30.5003C56.4496 30.0018 55.9734 29.5646 55.4662 29.201C55.0623 28.911 54.1583 28.519 53.9896 28.0489L53.96 28.0197C54.2463 27.9872 54.5819 27.8836 54.846 27.8128C55.2902 27.6936 55.6871 27.7244 56.1457 27.606L56.7659 27.4283V27.3106C56.5344 27.0729 56.3686 26.7578 56.1161 26.5427C55.4551 25.9797 54.7329 25.417 53.9896 24.9473C53.5775 24.6874 53.0679 24.5183 52.6307 24.2978C52.4843 24.2234 52.226 24.1852 52.1285 24.0614C51.8986 23.7689 51.774 23.3983 51.5967 23.0574C51.2181 22.3208 50.8635 21.5721 50.5335 20.8125C50.3097 20.3004 50.1633 19.7953 49.884 19.3359C48.5428 17.1309 47.0991 15.7999 44.8629 14.492C44.387 14.2135 43.814 14.1041 43.209 13.9606L42.2342 13.9014C42.0364 13.8187 41.8299 13.576 41.6436 13.4584C40.9024 12.9903 39.0022 11.9724 38.4535 13.3111C38.1072 14.156 38.9718 14.9802 39.2807 15.4084C39.4974 15.7086 39.7755 16.0451 39.9305 16.3828C40.0325 16.6049 40.0498 16.8274 40.1374 17.0622C40.3517 17.6405 40.5388 18.2702 40.8165 18.8045C40.9567 19.0751 41.1118 19.3602 41.2891 19.602C41.3976 19.7501 41.5844 19.8159 41.6136 20.045C41.4314 20.3 41.4207 20.6965 41.3183 21.0194C40.8568 22.475 41.0308 24.2843 41.7024 25.3615C41.9085 25.6926 42.3938 26.4017 43.0609 26.1294C43.6446 25.8916 43.5146 25.155 43.6816 24.5047C43.7194 24.3579 43.696 24.2493 43.77 24.1506V24.1802L44.3018 25.2434C44.6955 25.8772 45.3934 26.539 45.9853 26.9861C46.2921 27.2177 46.534 27.6187 46.9305 27.754V27.724H46.9013C46.8239 27.6043 46.7043 27.555 46.6055 27.4583C46.3744 27.2317 46.1173 26.9503 45.9265 26.6904C45.3881 25.9599 44.9126 25.1599 44.4791 24.3275C44.2722 23.9301 44.0925 23.4917 43.9181 23.087C43.8506 22.9311 43.8515 22.695 43.7116 22.6148C43.52 22.9109 43.239 23.1507 43.091 23.5007C42.8549 24.0601 42.8244 24.7425 42.7368 25.4499L42.6776 25.4791C42.2659 25.38 42.1215 24.9563 41.9685 24.5932C41.5819 23.6747 41.5099 22.1953 41.8505 21.1378C41.9385 20.8639 42.3362 20.0022 42.175 19.7493C42.0981 19.4971 41.8443 19.3515 41.7028 19.1582C41.5172 18.8995 41.3588 18.6224 41.2302 18.3311C40.9135 17.615 40.7659 16.8109 40.4331 16.0866C40.2735 15.7403 40.0046 15.3903 39.7833 15.0826C39.5385 14.7412 39.2642 14.4904 39.0742 14.0782C39.0067 13.9318 38.915 13.6969 39.015 13.5464C39.0466 13.4448 39.0923 13.4025 39.1926 13.3691C39.3637 13.2371 39.8409 13.4132 40.0194 13.4872C40.4932 13.6842 40.8884 13.8713 41.2899 14.137C41.4824 14.265 41.6769 14.5117 41.9101 14.58H42.1758C42.5916 14.6754 43.0576 14.6092 43.4459 14.7273C44.1328 14.9362 44.7481 15.2607 45.3066 15.6136C47.009 16.6888 48.4005 18.2188 49.353 20.0442C49.506 20.3382 49.5727 20.6183 49.7072 20.9301C49.9795 21.5586 50.3225 22.2056 50.5931 22.8205C50.8633 23.4337 51.127 24.0527 51.5091 24.5631C51.7098 24.8313 52.4855 24.9753 52.838 25.1242C53.0852 25.2286 53.4899 25.3376 53.7239 25.4783C54.171 25.7481 54.6045 26.0693 55.0237 26.3646C55.233 26.5135 55.8775 26.8372 55.9096 27.1042ZM42.7072 15.8513C42.5282 15.8484 42.3494 15.8683 42.1754 15.9106V15.9398H42.205C42.3083 16.1524 42.4905 16.289 42.6184 16.4716L42.9141 17.0918L42.9433 17.0626C43.1263 16.9339 43.2098 16.7278 43.209 16.4128C43.1354 16.3355 43.1247 16.2388 43.0614 16.1471C42.9774 16.0237 42.8137 15.9546 42.7072 15.8513Z" fill="#F7F7FF"/>
</g>
<defs>
<clipPath id="clip0_425_1075">
<rect x="0.619141" y="0.593262" width="60.5933" height="60.5933" rx="30.2967" fill="white"/>
</clipPath>
</defs>
</svg>
