<svg width="62" height="62" viewBox="0 0 62 62" fill="none" xmlns="http://www.w3.org/2000/svg">
<rect x="0.805664" y="0.593262" width="60.5933" height="60.5933" rx="30.2967" fill="#333333"/>
<g clip-path="url(#clip0_425_1086)">
<path d="M31.1021 48.8037C40.9955 48.8037 49.0158 40.7835 49.0158 30.8901C49.0158 20.9966 40.9955 12.9763 31.1021 12.9763C21.2086 12.9763 13.1885 20.9966 13.1885 30.8901C13.1885 40.7835 21.2086 48.8037 31.1021 48.8037Z" fill="white"/>
<path d="M31.1028 12.0166C20.6794 12.0166 12.2295 20.4665 12.2295 30.8899C12.2295 41.3135 20.6794 49.7633 31.1028 49.7633C41.5264 49.7633 49.9762 41.3135 49.9762 30.8899C49.9762 20.4665 41.5264 12.0166 31.1028 12.0166ZM31.1028 13.9359C40.4662 13.9359 48.0568 21.5266 48.0568 30.8899C48.0568 40.2533 40.4662 47.8439 31.1028 47.8439C21.7394 47.8439 14.1488 40.2533 14.1488 30.8899C14.1488 21.5266 21.7394 13.9359 31.1028 13.9359Z" fill="#4000BF"/>
<path d="M31.3162 17.4548C38.7363 17.4548 44.7515 23.4701 44.7515 30.8901C44.7515 38.3102 38.7363 44.3253 31.316 44.3253C23.896 44.3253 17.8809 38.3102 17.8809 30.8901C17.8809 29.0768 18.2402 27.3473 18.8915 25.7688C19.8424 27.0639 21.376 27.9045 23.1057 27.9045C25.9912 27.9045 28.3305 25.5652 28.3305 22.6797C28.3305 20.9498 27.4899 19.4163 26.1949 18.4654C27.7733 17.8142 29.5027 17.4548 31.3162 17.4548Z" fill="url(#paint0_linear_425_1086)"/>
</g>
<defs>
<linearGradient id="paint0_linear_425_1086" x1="1361.41" y1="2704.5" x2="1361.41" y2="17.4548" gradientUnits="userSpaceOnUse">
<stop stop-color="#7400E1"/>
<stop offset="1" stop-color="#4000BF"/>
</linearGradient>
<clipPath id="clip0_425_1086">
<rect width="37.7467" height="37.7467" fill="white" transform="translate(12.2295 12.0166)"/>
</clipPath>
</defs>
</svg>
