<svg width="61" height="62" viewBox="0 0 61 62" fill="none" xmlns="http://www.w3.org/2000/svg">
<rect x="0.0263672" y="0.593262" width="60.5933" height="60.5933" rx="30.2967" fill="#333333"/>
<g clip-path="url(#clip0_425_1070)">
<path d="M45.4805 21.0698L31.237 12.8717C31.0011 12.7243 30.6767 12.6653 30.3228 12.6653C29.9689 12.6653 29.6446 12.7538 29.4086 12.8717L15.2536 21.0993C14.7523 21.3942 14.3984 22.1314 14.3984 22.6917V39.1174C14.3984 39.4418 14.4574 39.8252 14.6933 40.1496L46.1882 21.866C46.0113 21.5122 45.7459 21.2468 45.4805 21.0698Z" fill="#659AD3"/>
<path d="M14.6045 40.1202C14.7519 40.3561 14.9584 40.5626 15.1648 40.6805L29.3788 48.9081C29.6147 49.0556 29.9391 49.1145 30.293 49.1145C30.6468 49.1145 30.9712 49.0261 31.2071 48.9081L45.3621 40.6805C45.8635 40.3856 46.2173 39.6484 46.2173 39.0881V22.6624C46.2173 22.397 46.1878 22.1021 46.0404 21.8367L14.6045 40.1202Z" fill="#03599C"/>
<path d="M36.6035 34.4583C35.3649 36.6406 33.0058 38.115 30.3222 38.115C26.3411 38.115 23.0973 34.8712 23.0973 30.8901C23.0973 26.909 26.3411 23.6651 30.3222 23.6651C33.0058 23.6651 35.3649 25.1396 36.6035 27.3513L40.4371 25.1396C38.4318 21.6304 34.6572 19.2417 30.3222 19.2417C23.8935 19.2417 18.6738 24.4614 18.6738 30.8901C18.6738 37.3188 23.8935 42.5385 30.3222 42.5385C34.6277 42.5385 38.4024 40.1793 40.4076 36.6995L36.6035 34.4583Z" fill="white"/>
</g>
<defs>
<clipPath id="clip0_425_1070">
<rect width="37.7467" height="37.7467" fill="white" transform="translate(11.4492 12.0166)"/>
</clipPath>
</defs>
</svg>
