<svg width="62" height="62" viewBox="0 0 62 62" fill="none" xmlns="http://www.w3.org/2000/svg">
<rect x="0.432617" y="0.593262" width="60.5933" height="60.5933" rx="30.2967" fill="#333333"/>
<g clip-path="url(#clip0_425_1066)">
<path d="M30.6424 12.0273C21.0455 12.0273 21.6448 16.1891 21.6448 16.1891L21.6554 20.5008H30.8135V21.7953H18.018C18.018 21.7953 11.877 21.0988 11.877 30.782C11.877 40.4654 17.237 40.122 17.237 40.122H20.4358V35.6285C20.4358 35.6285 20.2634 30.2685 25.7103 30.2685H34.7935C34.7935 30.2685 39.8967 30.3509 39.8967 25.3364V17.0451C39.8967 17.0451 40.6717 12.0273 30.6424 12.0273ZM25.5926 14.9269C25.809 14.9267 26.0233 14.9692 26.2233 15.0519C26.4233 15.1346 26.605 15.256 26.758 15.409C26.9111 15.562 27.0324 15.7437 27.1151 15.9437C27.1979 16.1437 27.2403 16.358 27.2401 16.5744C27.2403 16.7908 27.1979 17.0051 27.1151 17.2051C27.0324 17.4051 26.9111 17.5868 26.758 17.7398C26.605 17.8929 26.4233 18.0142 26.2233 18.0969C26.0233 18.1797 25.809 18.2221 25.5926 18.2219C25.3762 18.2221 25.1619 18.1797 24.9619 18.0969C24.7619 18.0142 24.5802 17.8929 24.4272 17.7398C24.2742 17.5868 24.1528 17.4051 24.0701 17.2051C23.9874 17.0051 23.9449 16.7908 23.9451 16.5744C23.9449 16.358 23.9874 16.1437 24.0701 15.9437C24.1528 15.7437 24.2742 15.562 24.4272 15.409C24.5802 15.256 24.7619 15.1346 24.9619 15.0519C25.1619 14.9692 25.3762 14.9267 25.5926 14.9269Z" fill="url(#paint0_linear_425_1066)"/>
<path d="M30.9148 49.6337C40.5116 49.6337 39.9124 45.472 39.9124 45.472L39.9018 41.1604H30.7435V39.8659H43.5391C43.5391 39.8659 49.6801 40.5624 49.6801 30.879C49.6801 21.1957 44.3201 21.5391 44.3201 21.5391H41.1212V26.0324C41.1212 26.0324 41.2937 31.3925 35.8467 31.3925H26.7636C26.7636 31.3925 21.6604 31.31 21.6604 36.3247V44.6161C21.6604 44.6161 20.8855 49.6337 30.9147 49.6337H30.9148ZM35.9646 46.7345C35.7482 46.7347 35.5338 46.6922 35.3339 46.6095C35.1339 46.5267 34.9522 46.4054 34.7992 46.2524C34.6461 46.0993 34.5248 45.9176 34.4421 45.7177C34.3593 45.5177 34.3169 45.3034 34.317 45.087C34.3168 44.8705 34.3593 44.6562 34.442 44.4562C34.5247 44.2562 34.6461 44.0745 34.7991 43.9214C34.9521 43.7684 35.1338 43.647 35.3338 43.5643C35.5338 43.4816 35.7482 43.4391 35.9646 43.4393C36.181 43.4391 36.3953 43.4816 36.5953 43.5643C36.7953 43.647 36.977 43.7684 37.13 43.9214C37.283 44.0744 37.4044 44.2561 37.4871 44.4561C37.5698 44.6561 37.6123 44.8704 37.6121 45.0868C37.6123 45.3032 37.5698 45.5175 37.4871 45.7175C37.4044 45.9175 37.283 46.0992 37.13 46.2522C36.977 46.4052 36.7953 46.5266 36.5953 46.6093C36.3953 46.692 36.181 46.7347 35.9646 46.7345Z" fill="url(#paint1_linear_425_1066)"/>
</g>
<defs>
<linearGradient id="paint0_linear_425_1066" x1="375.165" y1="350.277" x2="2248.58" y2="2205" gradientUnits="userSpaceOnUse">
<stop stop-color="#387EB8"/>
<stop offset="1" stop-color="#366994"/>
</linearGradient>
<linearGradient id="paint1_linear_425_1066" x1="557.873" y1="599.728" x2="2569.7" y2="2501.57" gradientUnits="userSpaceOnUse">
<stop stop-color="#FFE052"/>
<stop offset="1" stop-color="#FFC331"/>
</linearGradient>
<clipPath id="clip0_425_1066">
<rect width="37.8947" height="37.7467" fill="white" transform="translate(11.8555 12.0166)"/>
</clipPath>
</defs>
</svg>
