<svg width="61" height="62" viewBox="0 0 61 62" fill="none" xmlns="http://www.w3.org/2000/svg">
<rect x="-0.0078125" y="0.593262" width="60.5933" height="60.5933" rx="30.2967" fill="#333333"/>
<g clip-path="url(#clip0_425_1094)">
<path d="M30.2884 12.0166C19.8609 12.0166 11.415 20.4624 11.415 30.8899C11.415 39.2414 16.8175 46.2953 24.3197 48.796C25.2633 48.9612 25.6172 48.395 25.6172 47.8995C25.6172 47.4513 25.5936 45.965 25.5936 44.3844C20.8517 45.2573 19.6249 43.2284 19.2475 42.1667C19.0351 41.6241 18.1151 39.9491 17.313 39.5009C16.6524 39.147 15.7087 38.2741 17.2894 38.2505C18.7756 38.2269 19.8373 39.6189 20.1911 40.1851C21.8897 43.0396 24.6028 42.2375 25.688 41.7421C25.8531 40.5153 26.3486 39.6896 26.8912 39.2178C22.6919 38.746 18.3038 37.1181 18.3038 29.8991C18.3038 27.8466 19.0351 26.148 20.2383 24.8269C20.0496 24.355 19.389 22.4205 20.4271 19.8254C20.4271 19.8254 22.0077 19.33 25.6172 21.76C27.1271 21.3353 28.7313 21.123 30.3356 21.123C31.9398 21.123 33.544 21.3353 35.0539 21.76C38.6634 19.3064 40.2441 19.8254 40.2441 19.8254C41.2821 22.4205 40.6215 24.355 40.4328 24.8269C41.636 26.148 42.3673 27.823 42.3673 29.8991C42.3673 37.1417 37.9557 38.746 33.7563 39.2178C34.4405 39.8076 35.0303 40.94 35.0303 42.7094C35.0303 45.2337 35.0067 47.2626 35.0067 47.8995C35.0067 48.395 35.3606 48.9847 36.3042 48.796C40.0511 47.5315 43.3071 45.1236 45.6136 41.9114C47.9201 38.6992 49.161 34.8445 49.1617 30.8899C49.1617 20.4624 40.7159 12.0166 30.2884 12.0166Z" fill="#F7F7FF"/>
</g>
<defs>
<clipPath id="clip0_425_1094">
<rect width="37.7467" height="37.7467" fill="white" transform="translate(11.415 12.0166)"/>
</clipPath>
</defs>
</svg>
