<svg width="1918" height="200" viewBox="0 0 1918 200" fill="none" xmlns="http://www.w3.org/2000/svg">
<mask id="path-1-outside-1_574_12123" maskUnits="userSpaceOnUse" x="-4" y="0" width="1927" height="200" fill="black">
<rect fill="white" x="-4" width="1927" height="200"/>
<path d="M-1 194.418V5.58175H38.9423V83.4953H120.026V5.58175H159.876V194.418H120.026V116.413H38.9423V194.418H-1Z"/>
<path d="M192.808 194.418V5.58175H320.107V38.499H232.75V83.4953H313.557V116.413H232.75V161.501H320.476V194.418H192.808Z"/>
<path d="M351.862 194.418V5.58175H391.805V161.501H472.797V194.418H351.862Z"/>
<path d="M499.248 194.418V5.58175H539.19V161.501H620.182V194.418H499.248Z"/>
<path d="M812.883 100C812.883 120.593 808.978 138.112 801.168 152.557C793.419 167.003 782.842 178.036 769.435 185.659C756.09 193.22 741.085 197 724.419 197C707.631 197 692.564 193.189 679.219 185.567C665.874 177.944 655.327 166.91 647.579 152.465C639.83 138.019 635.956 120.531 635.956 100C635.956 79.4075 639.83 61.8885 647.579 47.443C655.327 32.9975 665.874 21.9943 679.219 14.4335C692.564 6.81116 707.631 3 724.419 3C741.085 3 756.09 6.81116 769.435 14.4335C782.842 21.9943 793.419 32.9975 801.168 47.443C808.978 61.8885 812.883 79.4075 812.883 100ZM772.387 100C772.387 86.661 770.388 75.4119 766.391 66.2529C762.455 57.0938 756.89 50.1477 749.695 45.4145C742.5 40.6813 734.074 38.3146 724.419 38.3146C714.764 38.3146 706.339 40.6813 699.144 45.4145C691.949 50.1477 686.353 57.0938 682.355 66.2529C678.42 75.4119 676.452 86.661 676.452 100C676.452 113.339 678.42 124.588 682.355 133.747C686.353 142.906 691.949 149.852 699.144 154.586C706.339 159.319 714.764 161.685 724.419 161.685C734.074 161.685 742.5 159.319 749.695 154.586C756.89 149.852 762.455 142.906 766.391 133.747C770.388 124.588 772.387 113.339 772.387 100Z"/>
<path d="M945.117 194.418L891.061 5.58175H934.693L965.965 136.79H967.533L1002.03 5.58175H1039.39L1073.8 137.067H1075.46L1106.73 5.58175H1150.36L1096.31 194.418H1057.38L1021.4 70.9553H1019.93L984.045 194.418H945.117Z"/>
<path d="M1334.69 100C1334.69 120.593 1330.79 138.112 1322.98 152.557C1315.23 167.003 1304.65 178.036 1291.25 185.659C1277.9 193.22 1262.9 197 1246.23 197C1229.44 197 1214.37 193.189 1201.03 185.567C1187.68 177.944 1177.14 166.91 1169.39 152.465C1161.64 138.019 1157.77 120.531 1157.77 100C1157.77 79.4075 1161.64 61.8885 1169.39 47.443C1177.14 32.9975 1187.68 21.9943 1201.03 14.4335C1214.37 6.81116 1229.44 3 1246.23 3C1262.9 3 1277.9 6.81116 1291.25 14.4335C1304.65 21.9943 1315.23 32.9975 1322.98 47.443C1330.79 61.8885 1334.69 79.4075 1334.69 100ZM1294.2 100C1294.2 86.661 1292.2 75.4119 1288.2 66.2529C1284.27 57.0938 1278.7 50.1477 1271.5 45.4145C1264.31 40.6813 1255.88 38.3146 1246.23 38.3146C1236.57 38.3146 1228.15 40.6813 1220.95 45.4145C1213.76 50.1477 1208.16 57.0938 1204.17 66.2529C1200.23 75.4119 1198.26 86.661 1198.26 100C1198.26 113.339 1200.23 124.588 1204.17 133.747C1208.16 142.906 1213.76 149.852 1220.95 154.586C1228.15 159.319 1236.57 161.685 1246.23 161.685C1255.88 161.685 1264.31 159.319 1271.5 154.586C1278.7 149.852 1284.27 142.906 1288.2 133.747C1292.2 124.588 1294.2 113.339 1294.2 100Z"/>
<path d="M1364.28 194.418V5.58175H1438.82C1453.08 5.58175 1465.26 8.13277 1475.34 13.2348C1485.49 18.2754 1493.21 25.4366 1498.5 34.7186C1503.85 43.9392 1506.52 54.7887 1506.52 67.2671C1506.52 79.807 1503.82 90.5951 1498.41 99.6312C1492.99 108.606 1485.15 115.491 1474.88 120.285C1464.67 125.08 1452.31 127.477 1437.8 127.477H1387.9V95.3897H1431.34C1438.97 95.3897 1445.3 94.3448 1450.35 92.2548C1455.39 90.1648 1459.14 87.0298 1461.6 82.8498C1464.12 78.6698 1465.38 73.4756 1465.38 67.2671C1465.38 60.9972 1464.12 55.7107 1461.6 51.4078C1459.14 47.1049 1455.36 43.847 1450.25 41.634C1445.21 39.3596 1438.85 38.2224 1431.16 38.2224H1404.22V194.418H1364.28ZM1466.3 108.483L1513.26 194.418H1469.16L1423.23 108.483H1466.3Z"/>
<path d="M1534.75 194.418V5.58175H1574.69V161.501H1655.68V194.418H1534.75Z"/>
<path d="M1749.11 194.418H1682.14V5.58175H1749.66C1768.66 5.58175 1785.02 9.36217 1798.73 16.923C1812.45 24.4224 1823 35.2104 1830.37 49.2871C1837.82 63.3638 1841.54 80.2066 1841.54 99.8156C1841.54 119.486 1837.82 136.39 1830.37 150.529C1823 164.667 1812.39 175.516 1798.55 183.077C1784.77 190.638 1768.29 194.418 1749.11 194.418ZM1722.08 160.21H1747.45C1759.25 160.21 1769.19 158.12 1777.24 153.94C1785.36 149.699 1791.45 143.152 1795.51 134.3C1799.63 125.387 1801.69 113.892 1801.69 99.8156C1801.69 85.8619 1799.63 74.4591 1795.51 65.6074C1791.45 56.7557 1785.39 50.2399 1777.33 46.0599C1769.28 41.8799 1759.35 39.7899 1747.54 39.7899H1722.08V160.21Z"/>
<path d="M1917.34 5.58175L1913.74 137.804H1879.98L1876.29 5.58175H1917.34ZM1896.86 196.816C1890.77 196.816 1885.55 194.664 1881.18 190.361C1876.81 185.997 1874.66 180.772 1874.72 174.686C1874.66 168.662 1876.81 163.499 1881.18 159.196C1885.55 154.893 1890.77 152.741 1896.86 152.741C1902.7 152.741 1907.84 154.893 1912.27 159.196C1916.69 163.499 1918.94 168.662 1919 174.686C1918.94 178.743 1917.86 182.462 1915.77 185.843C1913.74 189.163 1911.07 191.837 1907.75 193.865C1904.42 195.832 1900.8 196.816 1896.86 196.816Z"/>
</mask>
<path d="M-1 194.418V5.58175H38.9423V83.4953H120.026V5.58175H159.876V194.418H120.026V116.413H38.9423V194.418H-1Z" stroke="#2A2C30" stroke-width="6" mask="url(#path-1-outside-1_574_12123)"/>
<path d="M192.808 194.418V5.58175H320.107V38.499H232.75V83.4953H313.557V116.413H232.75V161.501H320.476V194.418H192.808Z" stroke="#2A2C30" stroke-width="6" mask="url(#path-1-outside-1_574_12123)"/>
<path d="M351.862 194.418V5.58175H391.805V161.501H472.797V194.418H351.862Z" stroke="#2A2C30" stroke-width="6" mask="url(#path-1-outside-1_574_12123)"/>
<path d="M499.248 194.418V5.58175H539.19V161.501H620.182V194.418H499.248Z" stroke="#2A2C30" stroke-width="6" mask="url(#path-1-outside-1_574_12123)"/>
<path d="M812.883 100C812.883 120.593 808.978 138.112 801.168 152.557C793.419 167.003 782.842 178.036 769.435 185.659C756.09 193.22 741.085 197 724.419 197C707.631 197 692.564 193.189 679.219 185.567C665.874 177.944 655.327 166.91 647.579 152.465C639.83 138.019 635.956 120.531 635.956 100C635.956 79.4075 639.83 61.8885 647.579 47.443C655.327 32.9975 665.874 21.9943 679.219 14.4335C692.564 6.81116 707.631 3 724.419 3C741.085 3 756.09 6.81116 769.435 14.4335C782.842 21.9943 793.419 32.9975 801.168 47.443C808.978 61.8885 812.883 79.4075 812.883 100ZM772.387 100C772.387 86.661 770.388 75.4119 766.391 66.2529C762.455 57.0938 756.89 50.1477 749.695 45.4145C742.5 40.6813 734.074 38.3146 724.419 38.3146C714.764 38.3146 706.339 40.6813 699.144 45.4145C691.949 50.1477 686.353 57.0938 682.355 66.2529C678.42 75.4119 676.452 86.661 676.452 100C676.452 113.339 678.42 124.588 682.355 133.747C686.353 142.906 691.949 149.852 699.144 154.586C706.339 159.319 714.764 161.685 724.419 161.685C734.074 161.685 742.5 159.319 749.695 154.586C756.89 149.852 762.455 142.906 766.391 133.747C770.388 124.588 772.387 113.339 772.387 100Z" stroke="#2A2C30" stroke-width="6" mask="url(#path-1-outside-1_574_12123)"/>
<path d="M945.117 194.418L891.061 5.58175H934.693L965.965 136.79H967.533L1002.03 5.58175H1039.39L1073.8 137.067H1075.46L1106.73 5.58175H1150.36L1096.31 194.418H1057.38L1021.4 70.9553H1019.93L984.045 194.418H945.117Z" stroke="#2A2C30" stroke-width="6" mask="url(#path-1-outside-1_574_12123)"/>
<path d="M1334.69 100C1334.69 120.593 1330.79 138.112 1322.98 152.557C1315.23 167.003 1304.65 178.036 1291.25 185.659C1277.9 193.22 1262.9 197 1246.23 197C1229.44 197 1214.37 193.189 1201.03 185.567C1187.68 177.944 1177.14 166.91 1169.39 152.465C1161.64 138.019 1157.77 120.531 1157.77 100C1157.77 79.4075 1161.64 61.8885 1169.39 47.443C1177.14 32.9975 1187.68 21.9943 1201.03 14.4335C1214.37 6.81116 1229.44 3 1246.23 3C1262.9 3 1277.9 6.81116 1291.25 14.4335C1304.65 21.9943 1315.23 32.9975 1322.98 47.443C1330.79 61.8885 1334.69 79.4075 1334.69 100ZM1294.2 100C1294.2 86.661 1292.2 75.4119 1288.2 66.2529C1284.27 57.0938 1278.7 50.1477 1271.5 45.4145C1264.31 40.6813 1255.88 38.3146 1246.23 38.3146C1236.57 38.3146 1228.15 40.6813 1220.95 45.4145C1213.76 50.1477 1208.16 57.0938 1204.17 66.2529C1200.23 75.4119 1198.26 86.661 1198.26 100C1198.26 113.339 1200.23 124.588 1204.17 133.747C1208.16 142.906 1213.76 149.852 1220.95 154.586C1228.15 159.319 1236.57 161.685 1246.23 161.685C1255.88 161.685 1264.31 159.319 1271.5 154.586C1278.7 149.852 1284.27 142.906 1288.2 133.747C1292.2 124.588 1294.2 113.339 1294.2 100Z" stroke="#2A2C30" stroke-width="6" mask="url(#path-1-outside-1_574_12123)"/>
<path d="M1364.28 194.418V5.58175H1438.82C1453.08 5.58175 1465.26 8.13277 1475.34 13.2348C1485.49 18.2754 1493.21 25.4366 1498.5 34.7186C1503.85 43.9392 1506.52 54.7887 1506.52 67.2671C1506.52 79.807 1503.82 90.5951 1498.41 99.6312C1492.99 108.606 1485.15 115.491 1474.88 120.285C1464.67 125.08 1452.31 127.477 1437.8 127.477H1387.9V95.3897H1431.34C1438.97 95.3897 1445.3 94.3448 1450.35 92.2548C1455.39 90.1648 1459.14 87.0298 1461.6 82.8498C1464.12 78.6698 1465.38 73.4756 1465.38 67.2671C1465.38 60.9972 1464.12 55.7107 1461.6 51.4078C1459.14 47.1049 1455.36 43.847 1450.25 41.634C1445.21 39.3596 1438.85 38.2224 1431.16 38.2224H1404.22V194.418H1364.28ZM1466.3 108.483L1513.26 194.418H1469.16L1423.23 108.483H1466.3Z" stroke="#2A2C30" stroke-width="6" mask="url(#path-1-outside-1_574_12123)"/>
<path d="M1534.75 194.418V5.58175H1574.69V161.501H1655.68V194.418H1534.75Z" stroke="#2A2C30" stroke-width="6" mask="url(#path-1-outside-1_574_12123)"/>
<path d="M1749.11 194.418H1682.14V5.58175H1749.66C1768.66 5.58175 1785.02 9.36217 1798.73 16.923C1812.45 24.4224 1823 35.2104 1830.37 49.2871C1837.82 63.3638 1841.54 80.2066 1841.54 99.8156C1841.54 119.486 1837.82 136.39 1830.37 150.529C1823 164.667 1812.39 175.516 1798.55 183.077C1784.77 190.638 1768.29 194.418 1749.11 194.418ZM1722.08 160.21H1747.45C1759.25 160.21 1769.19 158.12 1777.24 153.94C1785.36 149.699 1791.45 143.152 1795.51 134.3C1799.63 125.387 1801.69 113.892 1801.69 99.8156C1801.69 85.8619 1799.63 74.4591 1795.51 65.6074C1791.45 56.7557 1785.39 50.2399 1777.33 46.0599C1769.28 41.8799 1759.35 39.7899 1747.54 39.7899H1722.08V160.21Z" stroke="#2A2C30" stroke-width="6" mask="url(#path-1-outside-1_574_12123)"/>
<path d="M1917.34 5.58175L1913.74 137.804H1879.98L1876.29 5.58175H1917.34ZM1896.86 196.816C1890.77 196.816 1885.55 194.664 1881.18 190.361C1876.81 185.997 1874.66 180.772 1874.72 174.686C1874.66 168.662 1876.81 163.499 1881.18 159.196C1885.55 154.893 1890.77 152.741 1896.86 152.741C1902.7 152.741 1907.84 154.893 1912.27 159.196C1916.69 163.499 1918.94 168.662 1919 174.686C1918.94 178.743 1917.86 182.462 1915.77 185.843C1913.74 189.163 1911.07 191.837 1907.75 193.865C1904.42 195.832 1900.8 196.816 1896.86 196.816Z" stroke="#2A2C30" stroke-width="6" mask="url(#path-1-outside-1_574_12123)"/>
</svg>
