<svg width="41" height="41" viewBox="0 0 41 41" fill="none" xmlns="http://www.w3.org/2000/svg">
<circle cx="20.5" cy="20.5" r="20" stroke="#FFBA49"/>
<path d="M17.3182 26.2045C16.4702 26.2045 15.7202 25.9893 15.0682 25.5589C14.4205 25.1286 13.9134 24.5341 13.5469 23.7756C13.1804 23.0128 12.9972 22.1328 12.9972 21.1357C12.9972 20.13 13.1804 19.2457 13.5469 18.483C13.9134 17.7159 14.4205 17.1193 15.0682 16.6932C15.7202 16.2628 16.4702 16.0476 17.3182 16.0476C18.1662 16.0476 18.9141 16.2628 19.5618 16.6932C20.2095 17.1236 20.7166 17.7202 21.0831 18.483C21.4538 19.2457 21.6392 20.13 21.6392 21.1357C21.6392 22.1328 21.456 23.0128 21.0895 23.7756C20.723 24.5341 20.2138 25.1286 19.5618 25.5589C18.9141 25.9893 18.1662 26.2045 17.3182 26.2045ZM17.3182 25.1626C18 25.1626 18.5774 24.9794 19.0504 24.6129C19.5234 24.2464 19.8814 23.7585 20.1243 23.1491C20.3714 22.5398 20.495 21.8686 20.495 21.1357C20.495 20.4027 20.3714 19.7294 20.1243 19.1158C19.8814 18.5021 19.5234 18.0099 19.0504 17.6392C18.5774 17.2685 18 17.0831 17.3182 17.0831C16.6406 17.0831 16.0632 17.2685 15.5859 17.6392C15.1129 18.0099 14.7528 18.5021 14.5057 19.1158C14.2628 19.7294 14.1413 20.4027 14.1413 21.1357C14.1413 21.8686 14.2628 22.5398 14.5057 23.1491C14.7528 23.7585 15.1129 24.2464 15.5859 24.6129C16.0589 24.9794 16.6364 25.1626 17.3182 25.1626ZM24.1369 26V16.1818H25.2427V17.6903H25.3258C25.5218 17.196 25.8627 16.7976 26.3485 16.495C26.8386 16.1882 27.3926 16.0348 28.0105 16.0348C28.1042 16.0348 28.2086 16.0369 28.3237 16.0412C28.4387 16.0455 28.5346 16.0497 28.6113 16.054V17.2109C28.5602 17.2024 28.4707 17.1896 28.3429 17.1726C28.215 17.1555 28.0765 17.147 27.9274 17.147C27.416 17.147 26.96 17.2557 26.5595 17.473C26.1632 17.6861 25.85 17.9822 25.6199 18.3615C25.3897 18.7408 25.2747 19.1733 25.2747 19.6591V26H24.1369Z" fill="#FFBA49"/>
</svg>
