<svg width="1280" height="181" viewBox="0 0 1280 181" fill="none" xmlns="http://www.w3.org/2000/svg">
<g clip-path="url(#clip0_720_8094)">
<line x1="46.5" y1="2.18557e-08" x2="46.5" y2="181" stroke="#35363B"/>
<line x1="10.5" y1="2.18557e-08" x2="10.5" y2="181" stroke="#35363B"/>
<line x1="118.5" y1="2.18557e-08" x2="118.5" y2="181" stroke="#35363B"/>
<line x1="154.5" y1="2.18557e-08" x2="154.5" y2="181" stroke="#35363B"/>
<line x1="190.5" y1="2.18557e-08" x2="190.5" y2="181" stroke="#35363B"/>
<line x1="226.5" y1="2.18557e-08" x2="226.5" y2="181" stroke="#35363B"/>
<line x1="262.5" y1="2.18557e-08" x2="262.5" y2="181" stroke="#35363B"/>
<line x1="298.5" y1="2.18557e-08" x2="298.5" y2="181" stroke="#35363B"/>
<line x1="334.5" y1="2.18557e-08" x2="334.5" y2="181" stroke="#35363B"/>
<line x1="370.5" y1="2.18557e-08" x2="370.5" y2="181" stroke="#35363B"/>
<line x1="406.5" y1="2.18557e-08" x2="406.5" y2="181" stroke="#35363B"/>
<line x1="442.5" y1="2.18557e-08" x2="442.5" y2="181" stroke="#35363B"/>
<line x1="478.5" y1="2.18557e-08" x2="478.5" y2="181" stroke="#35363B"/>
<line x1="514.5" y1="2.18557e-08" x2="514.5" y2="181" stroke="#35363B"/>
<line x1="550.5" y1="2.18557e-08" x2="550.5" y2="181" stroke="#35363B"/>
<line x1="586.5" y1="2.18557e-08" x2="586.5" y2="181" stroke="#35363B"/>
<line x1="622.5" y1="2.18557e-08" x2="622.5" y2="181" stroke="#35363B"/>
<line x1="658.5" y1="2.18557e-08" x2="658.5" y2="181" stroke="#35363B"/>
<line x1="694.5" y1="2.18557e-08" x2="694.5" y2="181" stroke="#35363B"/>
<line x1="730.5" y1="2.18557e-08" x2="730.5" y2="181" stroke="#35363B"/>
<line x1="766.5" y1="2.18557e-08" x2="766.5" y2="181" stroke="#35363B"/>
<line x1="802.5" y1="2.18557e-08" x2="802.5" y2="181" stroke="#35363B"/>
<line x1="838.5" y1="2.18557e-08" x2="838.5" y2="181" stroke="#35363B"/>
<line x1="874.5" y1="2.18557e-08" x2="874.5" y2="181" stroke="#35363B"/>
<line x1="910.5" y1="2.18557e-08" x2="910.5" y2="181" stroke="#35363B"/>
<line x1="946.5" y1="2.18557e-08" x2="946.5" y2="181" stroke="#35363B"/>
<line x1="982.5" y1="2.18557e-08" x2="982.5" y2="181" stroke="#35363B"/>
<line x1="1018.5" y1="2.18557e-08" x2="1018.5" y2="181" stroke="#35363B"/>
<line x1="1054.5" y1="2.18557e-08" x2="1054.5" y2="181" stroke="#35363B"/>
<line x1="1090.5" y1="2.18557e-08" x2="1090.5" y2="181" stroke="#35363B"/>
<line x1="1126.5" y1="2.18557e-08" x2="1126.5" y2="181" stroke="#35363B"/>
<line x1="1162.5" y1="2.18557e-08" x2="1162.5" y2="181" stroke="#35363B"/>
<line x1="1234.5" y1="2.18557e-08" x2="1234.5" y2="181" stroke="#35363B"/>
<line x1="1270.5" y1="2.18557e-08" x2="1270.5" y2="181" stroke="#35363B"/>
<circle cx="641" cy="87" r="53.5" stroke="#35363B"/>
<circle cx="641" cy="90" r="90.5" stroke="#35363B"/>
<circle cx="641" cy="90" r="125.5" stroke="#35363B"/>
<circle cx="641" cy="90" r="162.5" stroke="#35363B"/>
<circle cx="641" cy="90" r="198.5" stroke="#35363B"/>
<line y1="34.5" x2="1280" y2="34.5" stroke="#35363B"/>
<line y1="140.5" x2="1280" y2="140.5" stroke="#35363B"/>
<line x1="-0.0700067" y1="180.505" x2="1279.93" y2="-0.49508" stroke="#35363B"/>
<line y1="-0.5" x2="1292.73" y2="-0.5" transform="matrix(0.99015 0.140013 0.140013 -0.99015 0 0)" stroke="#35363B"/>
<line y1="70.5" x2="1280" y2="70.5" stroke="#C1C3C8"/>
<line y1="108.5" x2="1280" y2="108.5" stroke="#C1C3C8"/>
<line x1="82.5" y1="2.18557e-08" x2="82.5" y2="181" stroke="#C1C3C8"/>
<line x1="1199" y1="4.37114e-08" x2="1199" y2="181" stroke="#C1C3C8" stroke-width="2"/>
</g>
<rect x="0.5" y="0.5" width="1279" height="180" stroke="#5E616A"/>
<defs>
<clipPath id="clip0_720_8094">
<rect width="1280" height="181" fill="white"/>
</clipPath>
</defs>
</svg>
